<svg xmlns="http://www.w3.org/2000/svg" xmlns:xlink="http://www.w3.org/1999/xlink" viewBox="0 0 649 179.1"><defs><style>.fd936d1f-bdb8-4baf-bd07-dc026984a0e3{fill:#509c44;}.eaa74734-e4f7-4ab6-94c3-0e0e79d39bf5{fill:#fff;}.fc6fa283-f375-4b79-8d71-94f3f67afd16{fill:url(#e85eec7c-1650-46f1-b7c7-15e3d8f5dea0);}.e323ca84-465d-4d75-8fbe-2c20d39b5c73{fill:url(#a90954a4-8dc2-472d-a37e-735104b1bddd);}.fc611d5a-ba0a-4b32-9632-cada7e5c5303{fill:url(#b9040f1b-27f5-4183-a5f6-4e19efa62155);}.a5085869-30e0-41e6-b5e3-db8f7a149d1b{fill:url(#b5ef248e-6213-45d3-91da-131b4927314a);}.fb414d23-a10d-4f51-9558-12559999df46{fill:url(#a266f6ab-6ed6-4dc9-8dd9-2ba7d655bdaa);}.b82f4783-6ebb-48a2-8cc3-01f2a52bdc3a{fill:url(#f89ddbc9-e6be-4095-97f9-cea5f43504de);}.a23123f0-e6dc-462d-a770-80030b624636{fill:url(#eb61c184-a2e2-44a9-b063-c6cd1f04a476);}.b3f993cc-a603-425b-b04c-7236a4501413{fill:#d2d2dc;}.ba371091-3f0b-4941-8d54-8204f1d44887{fill:#ad4043;}.ab7f9af8-16dc-4b2c-940c-da30a067aef7{fill:#064264;}</style><linearGradient id="e85eec7c-1650-46f1-b7c7-15e3d8f5dea0" x1="0.14" y1="89.07" x2="89.64" y2="89.07" gradientTransform="matrix(1, 0, 0, -1, 0, 180)" gradientUnits="userSpaceOnUse"><stop offset="0" stop-color="#dd4d43"/><stop offset="1" stop-color="#be1e2d"/></linearGradient><linearGradient id="a90954a4-8dc2-472d-a37e-735104b1bddd" x1="2.14" y1="144.16" x2="90.01" y2="144.16" xlink:href="#e85eec7c-1650-46f1-b7c7-15e3d8f5dea0"/><linearGradient id="b9040f1b-27f5-4183-a5f6-4e19efa62155" x1="344.14" y1="89.07" x2="433.64" y2="89.07" gradientTransform="translate(528.1 180) rotate(180)" gradientUnits="userSpaceOnUse"><stop offset="0" stop-color="#4298cc"/><stop offset="1" stop-color="#09446e"/></linearGradient><linearGradient id="b5ef248e-6213-45d3-91da-131b4927314a" x1="346.14" y1="144.23" x2="434.01" y2="144.23" xlink:href="#b9040f1b-27f5-4183-a5f6-4e19efa62155"/><linearGradient id="a266f6ab-6ed6-4dc9-8dd9-2ba7d655bdaa" x1="372.89" y1="89.32" x2="408.85" y2="89.32" gradientTransform="translate(528.1 180) rotate(180)" gradientUnits="userSpaceOnUse"><stop offset="0" stop-color="#53b844"/><stop offset="1" stop-color="#509c44"/></linearGradient><linearGradient id="f89ddbc9-e6be-4095-97f9-cea5f43504de" x1="373.71" y1="125.05" x2="409.01" y2="125.05" xlink:href="#a266f6ab-6ed6-4dc9-8dd9-2ba7d655bdaa"/><linearGradient id="eb61c184-a2e2-44a9-b063-c6cd1f04a476" x1="373.71" y1="87.06" x2="409.01" y2="87.06" gradientTransform="matrix(-1, 0, 0, 1, 528.14, 37.9)" xlink:href="#a266f6ab-6ed6-4dc9-8dd9-2ba7d655bdaa"/></defs><title>Asset 1</title><g id="ab0d2057-9fb2-46f6-9c73-913a3bbceaab" data-name="Layer 2"><g id="b481cf68-82db-4257-bc8e-5cf03f4d4fcf" data-name="Layer 1"><g id="fba08302-03bf-4eb9-b3ba-83bd0e5de64b" data-name="Layer 2-2"><path class="fd936d1f-bdb8-4baf-bd07-dc026984a0e3" d="M51.2,44.7v-.2l-.2-.2H49.9c-.1.1-.1,0-.1,0l-.2.2c-.1.1-.1,0-.1,0h0l-.2.2h-.2v-.2h-.3c.1,0,.1-.2.2-.2v-.2c0,.1-.1,0-.2,0h-.5s-.1-.2,0-.2h.2c.1,0,.2-.1.2-.3h0a.1.1,0,0,0-.1-.1c-.1.1-.1-.1-.2-.1s-.1,0-.1,0h-.7v-.4h-.2s0-.1-.1,0-.2.1-.2,0H45.9s0-.1-.3-.1l-.5.2-.3.2h-.2c0,.1.2.1.1.2s-.3.1-.3.2v.2c0,.1.1,0,.1.2s0,.1-.1.1a.1.1,0,0,0-.1-.1c-.1,0-.1-.2-.1-.2h0v-.3h-.2c0,.1,0,.1-.1.1s0-.1-.2,0h-.2s0-.2-.1-.1-.1,0-.1.1v.2c0,.1-.1.1-.1.2s-.1,0-.1.1h-.4s-.2,0-.1-.1l.2-.3h0v-.2h0c.1-.1.3-.2.3-.4h0c-.1-.1-.2-.1-.2-.2h-.1a.1.1,0,0,0,0-.2s0-.1-.2-.1h-.3s-.1,0,0-.1,0-.1,0-.2-.1,0,0-.1.1-.1,0-.1v-.2H41c-.1,0-.1-.2-.2-.1l-.5.2s0-.1-.2,0l-.3.2h-1c-.2,0-.1,0-.2.1s-.1.1-.1.2h-.1s-.1-.1-.1.1v.2c0,.1,0,.1-.1.2s-.1.1-.1.2v.2c0,.1.1.1.1.2s0,.1.1.1h.8v.3a.4.4,0,0,0-.3-.2h-.4c0,.1-.1.2-.1.3s-.2,0-.3.1v.2c0,.1.3.2.3.3h.2c0,.1.3.1.3.1s.2,0,.2.1.2.2.1.3h-.4c0,.1-.1,0-.2,0l-.3-.3h-.1l-.2-.2a.1.1,0,0,1-.1-.1c-.1-.1,0-.1-.1-.2s0-.1,0-.1-.1,0-.2,0v-.4h0s.3-.3.1-.4l-.3-.2.4-.6c.1-.1-.6,0,0-.4l.8-.6c.3-.3.3,0,.3-.3h-.3a1.7,1.7,0,0,0-1.2-.1h-.8c-.1.1-.5.1-.6.3s-.3.2-.6.5-.4.3-.6.7-.3.2-.3.6a.5.5,0,0,1-.3.5c.1.7-.2.8.1,1l.8.7h-.2c0,.5,0,.7.2.8s.4,0,.6.2.1.3.3.4h.3c.7-.2.5-.3.7-.2s.4,0,.6.2,0,.3.3.4h1s.4-.1.5,0h1.8c.4.4.5.4.6.2l-.3-.4h2.5a.1.1,0,0,1,.1.1h.5v-.2h-.6v-.2c.1,0,0-.1.1-.1s0,.2.2,0h.1c.1.1.2,0,.1.2h.3c0,.1-.1.1.1.1h.5a.3.3,0,0,1,.1.2,1,1,0,0,1-.1.3c0,.1-.2,0,.1.1s.4-.1.4-.1H46a.1.1,0,0,1,.1.1h.1s-.1.1,0,.1h.4c-.1.1-.1.1,0,.2h.8c-.1.1,0,.1,0,.1h-.2c-.1,0,0,.1-.1.1h-.5c-.1.1-.2.1-.2.3s.1.2.1.2h1.4c0-.1.2.1.2.1h0c0,.1.2.1.2.1h0a.4.4,0,0,1,.1.3c0,.1.1,0,.1.1h.1a.1.1,0,0,0,.1-.1h.2c0,.1.1.1.1.2s-.2.1-.1.1h.5l.5.8H50c.1.1.1,0,.2.2a.3.3,0,0,0,.1.2v.2c0,.1.1,0,0,.2h-.1l-.2.2h-.2c-.1.2-.1.1-.2.2s.1,0,0,.1,0,0-.1.1l-.2.2-.4.2c0,.1-.3.2-.3.2s-.1.1-.1.2,0,.1,0,.2l.2.2.2.2c.1.1.3,0,.2.1l-.3.2c0,.1,0,0-.1.1s-.2,0-.2.1h-.3a.1.1,0,0,1-.2,0h-.2c-.1.1,0,0-.1,0h-.2c-.1.1-.2.1,0,.1a.1.1,0,0,0,.2,0c0,.1,0,.2-.1.2s0,0-.1.1-.2-.1-.2-.1.2-.1-.1-.2h-.3a.3.3,0,0,1-.1-.2h-.3c-.1-.1-.2-.1-.2,0h-.6c0,.1-.1.1-.1.2v.2h-.3c-.1,0,0,0-.1.1a.9.9,0,0,0-.1.5v.2c.1.1.2,0,.2.1h1.1c.1.1-.2.2.2.1H47c0-.1.1-.1.1-.2a.1.1,0,0,0,.1-.1c0-.1,0-.1.1-.1h.6s.1-.1.1,0,.3,0,.3,0h0c-.1-.1,0-.2-.1-.2H48c0-.1.1-.2.2-.1s.2.2.3.2h.1V55a.3.3,0,0,0,.1.2l.2-.2h0c0,.1,0,0,.1,0s.3,0,.3.1h0c0,.2-.1.1.1.2s.2.3.3.3.1-.1.2,0h-.3c0,.1,0,.1.1.2H50a.4.4,0,0,1-.1.3.1.1,0,0,0,.1.1h1.1c0,.1-.1.1-.2.2s-.2-.1-.3,0-.1.1,0,.2.3.1.3.2h.5a.3.3,0,0,0,.1.2s.2.1.1.2h-.1s.2,0,.2.1,0,0,0,.1h.6c.1,0,0-.2.2,0l.3.2h.4l.2.2h1.2a.1.1,0,0,0,.1.1c.2,0,.2-.1.3,0l.3.2h.5v-.6h-.2l-.6-.5a.2.2,0,0,0-.2-.2c-.1,0,.3,0-.2-.2s-.6-.2-.6-.3h-.1c0-.1,0,0-.1-.2s-.2-.2-.2-.2h.2s.2,0,.2.1h.4l.5.3h.4s.2,0,.2.1.2.2.3.3H56c.2,0,.2-.3.2,0h.2a.1.1,0,0,0,.1.1h.1c0,.1.1.1.1.2h.1c.1,0,.1.2.1.1v-.2a.1.1,0,0,0-.1-.1h-.1a.1.1,0,0,0-.1-.1s-.1-.1,0-.1h.2a.4.4,0,0,0,.1-.3.1.1,0,0,0-.1-.1h.3v-.2s0-.3-.1-.3,0-.1-.1-.1,0-.1,0-.2h0c0-.1,0-.2-.1-.2h-.2c-.1,0-.1-.1-.1-.2s-.1-.1,0-.1V55s.1-.2,0-.2a.4.4,0,0,1-.3-.2c-.1.1-.1,0-.1-.1a.1.1,0,0,0-.1-.1H56c-.1.1-.1,0-.2,0a.1.1,0,0,0-.1-.1h-.2a.1.1,0,0,1-.2,0v-.4a.1.1,0,0,0-.1-.1H55c-.1,0,0-.2,0-.2h-.1a.1.1,0,0,0-.1-.1c-.2,0-.1-.2-.2-.1h-.2v-.2h-.2a.1.1,0,0,0-.1-.1H54a.1.1,0,0,0-.1-.1h0c0-.1,0-.1.1,0a.1.1,0,0,1,.1.1h.7s.1.1.1,0h0c0-.1.1-.3,0-.2a.1.1,0,0,1-.1-.1h-.2s-.1-.1,0-.1h.2c.1,0,.3,0,.2-.1V52a.1.1,0,0,1,.1-.1h.1c.1,0,.2,0,.2.1s.1.1.1.2h.1c0,.1.2,0,.2,0h.1c.1,0,.1,0,.1.1s.1.1.1.2a.1.1,0,0,0,.1.1s.2-.1.2,0,.2.1.2.2h.1c.1.1.2.1.1.2s-.1.1,0,.1h.3c0,.1-.1.2,0,.2l.2.2h.1a.1.1,0,0,0,.2,0s.2,0,.2.1.1.1.2.1h.2s0,.2.1.2.2-.1.2-.2.1-.3.1-.4,0-.1-.1-.2,0,0,0-.2.1-.2.1-.1H59l.2-.2h-.1a.1.1,0,0,0,.1-.1.1.1,0,0,1,.1-.1h0l-.2-.2v-.2h.5c0,.1,0,.1.1.1H60a1.5,1.5,0,0,0,.2-.4.1.1,0,0,0,0-.2c-.1,0,0-.1,0-.1l-.2-.2h-.6c-.1-.1-.1-.2-.2-.1s-.1,0-.1.1h-.2c-.1,0-.2,0-.1-.1l.2-.2h.1c-.1,0,0-.1-.1-.1s-.2,0-.2-.1-.1-.2-.2-.2a1,1,0,0,0-.1-.3h-.7a.3.3,0,0,0-.1.2c-.1.1,0,.1-.1.2s-.1-.1-.2-.1.2-.2.2-.2v-.2c-.1-.1,0-.3-.1-.3h-.7c-.1,0,0-.2-.2-.2h-.1c-.1.1,0,.1-.1.2s0,0-.1,0-.2-.1-.2,0h-.2a.1.1,0,0,1-.1-.1H56a.3.3,0,0,1,.1-.2c-.1,0,.1-.1,0-.2s.1-.1-.2-.2l-.4-.2h-.2a.2.2,0,0,0-.2.2H55c-.1.1-.2,0-.3,0v.2c-.1.1,0-.3,0-.3h-.4a.1.1,0,0,0,.1-.1h0a.1.1,0,0,0-.1-.1H54a.1.1,0,0,0-.1-.1c-.1,0,0-.2-.1-.1h-.2l-.2-.2s.3,0,.3-.1v-.2h.5V48h.3c0,.1.2,0,.2,0h.7a.1.1,0,0,0-.1-.1c0-.1,0-.2-.2-.2H53.9a.1.1,0,0,1-.1-.1h.6c.1,0,.3.1.3,0h0c0-.1.1-.1.1-.2s-.1-.4-.2-.3-.2-.3-.3-.3,0-.1-.2,0l-.3.2c-.1.1,0,.1-.1.2s-.2,0-.3,0h-.1c0-.1,0-.1.1-.2h-.2v-.2h.3c.1,0,.2,0,.2-.1v-.2h-.7c-.1,0,0-.2-.2-.2s-.1,0-.2,0-.1,0-.1.1h-.3a.1.1,0,0,0-.1.1v-.2h-.4c-.2.1,0,0-.1.1h-.2l.2-.2h.1v-.2h-.5c-.2.1-.1.1-.2.2s-.1,0-.1-.1,0-.2.1-.2Z"/><path class="fd936d1f-bdb8-4baf-bd07-dc026984a0e3" d="M24.4,46.6h-.6c-.1,0,0-.1-.1-.1s0-.2-.1-.2a.5.5,0,0,1-.5,0c.1,0,0-.1,0-.1s0-.3-.3-.2-.1-.2-.2-.2,0-.2-.2-.1-.2.2-.4.1-.2-.2-.3-.3,0-.3-.2-.3-.3,0-.4-.2,0-.3.1-.3.2,0,.2-.1.1-.4,0-.5l-.3-.3c-.1-.1-.2-.4-.3-.4a.3.3,0,0,0-.1-.2.5.5,0,0,1-.2-.4.8.8,0,0,1-.1-.4.4.4,0,0,0-.1-.3c-.1,0-.2-.1-.1-.1h.5l.2-.3c.1-.1.3-.2.3-.3v-.2l-.2-.3v-.2c-.1,0-.2-.2-.5-.1h-.8a6.4,6.4,0,0,1-.2.7h.1c.2.1.2,0,.2.2s.2.3,0,.3l-.3-.2h-.2a18,18,0,0,1-.8,2.1h0a.4.4,0,0,0,.1.3h-.4c-.7,1.7-1.6,3.4-2.5,5.1h1.2l.5-.2h1.3l.2-.2s0-.2.1-.2l.3-.2c.1.1.3,0,.3.2s-.1.2,0,.2h.7c.1.2.2.1.2.2l.3.3c.1.1.1.1.2,0h1.9c0-.1.1-.1.2-.1h.4c.1-.1.2,0,.2-.1h0c-.1,0-.3-.1-.3-.2v-.2s-.3-.2-.4-.1,0,0-.1.1-.1.1-.2.2a.1.1,0,0,1,0-.2c.1,0,.1-.1,0-.1h0c.1,0,.2.1.2,0h0c0-.1,0-.3.1-.3h.3c.1,0,.2-.1.2,0s0,.1.2.2.1-.1.2,0h.6v-.6Z"/><path class="fd936d1f-bdb8-4baf-bd07-dc026984a0e3" d="M32.7,25.2h1.7c0,.1,0,.1-.1.2H34l-.4.2c0,.1-.1.1-.1.2h1l.3-.2h.4c0,.1,0,.1-.4.2h-.5l-.2.2h-.2a.1.1,0,0,0,0,.2l.2.2c.2,0,.2.1.3,0h.2c.1,0,.2-.1.2,0h0v.2h.3l.7.2h.2c0,.1.1.1.2.1h.5l.2-.2v-.2h.8c0-.1.1-.1.2-.1s.2,0,0,.1l-.3.3h-.3c-.1,0-.1,0-.1.1s0-.1-.1.1-.2.2,0,.2,0,.1.3,0h2a.1.1,0,0,0,.1-.1c.1,0,0,0,0-.1l.2-.2a.2.2,0,0,1,.2-.2c0,.1.1-.1.1.2s-.1.1,0,.2h.1c.1.1.5,0,.7,0h1.1l.3-.2h1.3c0-.1.1-.1.1-.2h.1l.2-.2h.8c.4-.2,1.1-.3.9-.2l-1,.4c-.2.1-.3.1-.3.2l-.3.3h0c0,.1.2.1.2.1h1.2c.2.1.3.1,0,.1h-.8c-.1.1-.1,0-.3,0h-.3c-.1,0-.2,0-.2.1h-.5c-.1,0,0-.1-.2,0l-.3.2H40.6c-.1.1-.2,0-.1.1a.5.5,0,0,0,.2.4s.2,0,.2.1h.3l.4.3c.1,0,.2,0,.2.1s-.1.1-.1.2h-.2l-.2-.2c-.3-.2-.1-.3-.2-.3h-1c-.1,0-.1-.1-.2-.2H37.2c-.1.1-.1.1-.1.2s0,.2,0,.3l.2.2h.1c0,.1,0,.1.1.1h.2l.3.2.7.2a.2.2,0,0,1,.2.2c.1.1.2.1.2.2h.3l.6.4h.1c.1.1.1,0,.2,0h1.4l-.2.2H41c0,.1.1.1.1.2h-.6c-.1,0-.1-.2-.3-.2s0-.2-.1-.2H40c-.2,0-.6,0-.6-.1H37.7c-.3.1,0-.1-.3,0l-.4.3-.3.3-.2.3V32c0,.1.2.2.2.2h.2v.2h.3c0-.1.1-.1.1-.2a.1.1,0,0,1,.2,0c.1,0,.1,0,.1.1v.2h.6l.4-.3s-.1,0,0-.1v-.2c0-.1,0-.2.1-.2h.2v.3c0,.1,0,.1.1.2s.3.1.3.2H38.3c-.1.1.2.2.2.2h.4a.3.3,0,0,1-.1.2h-.2c.1.2.4,0,.5.1s.1,0,.2,0h.8c.1,0,.2,0,.2-.1s.1-.1.1-.2.2-.2.2-.3h.5l-.5.5v.2c-.1.1-.2.1-.2.2H38.5a2.3,2.3,0,0,0-.5-.5c-.2,0-.4-.2-.6-.3a.1.1,0,0,0-.1-.1H36.2c-.1.1-.1,0-.2.2a.4.4,0,0,0,.1.3c0,.1.1,0,.1.1s.1.1.1.2,0,.2.1.2H37v.2H35.7c-.1,0,.1,0-.1.1h-.4l-.3.2c-.1.1-.1,0-.1.2s-.2.1,0,.4l.2.3h.3a.3.3,0,0,0,.1-.2.4.4,0,0,0,.1-.3h.2v.4c0,.1.1.1.2.1a.2.2,0,0,0,.3,0h.2s0-.1.1,0,.2,0,.2.1,0,.1.1.1h.7s0-.2.1-.2.1,0,.1,0h.6a.1.1,0,0,0,.1.1h.8c0,.1.1,0,.1,0a.1.1,0,0,1,.1.1h.1a.1.1,0,0,1,.1-.1v-.2h.2s-.2-.1,0,.1.2,0,.2,0h.3c0-.1,0-.1.1,0h.2c.1.1.1,0,.1.1s0-.1,0,.1.2,0,.2.1h.6a.1.1,0,0,1,.1-.1c.1,0,.1-.2.2-.3h0c-.1-.1-.1-.2-.2-.2h-.1c-.1-.1-.1,0-.1-.2a.1.1,0,0,1,.1-.1h0a.2.2,0,0,1,.2.2.3.3,0,0,1,.1.2c.1-.1.1-.1.2,0h.5c.1,0,.2,0,.2.1v.2a.1.1,0,0,1-.1.1c0,.1,0,.1.1.2h1.9c0-.1-.1-.1,0-.2h.1c.1.1.1,0,.1.1s0,.1.1.2l.5-.3a.1.1,0,0,1,.1-.1v-.2h0a2.2,2.2,0,0,0-.3-.5h-.1c-.1.1-.2.1-.2.2h-.4l-.3-.2h-.1c.1-.1.2-.1.2-.2h0c0-.1.1-.1.1-.2h.3c.1.1.2,0,.3,0l.4-.3h.1c0-.1.1.1,0-.2l-.3-.3v-.2h2.4v-.4h.4c0-.1-.2-.2-.3-.2h-.1c-.1,0-.1-.1,0-.1h.8s.1-.1.1,0,.2,0,.2-.1L48,31c-.1,0,0-.1-.2-.1h-.2l-.6-.2h1.1c.1,0,0-.3,0-.3h0l-.2-.2h-1s0-.1-.2-.1h-.1c0-.1.1-.1,0-.1s0-.1,0-.1h2.9v-.2h-.1c-.1,0-.1-.1-.2-.2s-.2,0-.1-.1h2.1l.3-.2v-.2h0s-.1-.1,0-.1h.3s.1-.1,0-.1-.1-.1-.3,0h.6c.1-.1.1-.1,0-.2h0v-.2h1l.4-.3.8-.7h.3l.3-.2h.5l.3-.2H56l1.4-.6h0s.1-.1,0-.1H55c-.1,0,0-.1.1-.1l.5-.2h.3l.8-.2H57l.5-.2H59l.4-.2h.4a.1.1,0,0,0,.1-.1c0-.1,0-.1.1-.2h.4c.1-.1.1-.2,0-.2s0-.1-.3-.2-.3-.3-.6-.2H59a.3.3,0,0,1-.4,0,.7.7,0,0,0-.6-.4c.4-.4.4-.5.2-.4s-.4-.2-.6-.1H57l-.5-.2c0,.1-.1.3-.2.3H56s-.2-.2-.3-.1-.2,0-.3.2h-2l.9-.3h.5l.5-.2h-.9a.1.1,0,0,1-.1-.1H53c-.1,0-.2-.1-.2,0H51.1c0,.1,0,.1.1.1l.2.2s.1,0,0,.1h-.6v-.2s.1,0,0-.1,0-.1-.1,0-.1,0-.2,0h-.9c-.2,0-.3,0-.3.1h-.2s-.1,0,0,.1l.2.2h-.4a.2.2,0,0,1-.2-.2h-.2c-.1-.1,0-.2-.1-.2H45.7l.2.2.2.2h.4a.2.2,0,0,1,.2.2h.1c.1.1.1-.1.2.1s.1.2,0,.2h-.2c0,.1-.1,0-.1-.1h-.2c-.1,0,0-.1-.2-.1H46l-.2-.2c-.1,0,0-.2-.1-.2H44c-.1-.1,0-.2-.2-.1h-.6c0,.1.1.2.1.3H43s0-.1-.1,0H42c0,.1-.1,0,.1.1l.4.2h-.1s-.2-.3-.3-.3,0-.1-.2-.1h-.3l-.3.2h0c.1.1.1,0,0,.1h-.4c-.1,0-.1.1,0,.2h.8l.7.2h1.1c.2.1.2.1.2.2s.1.2,0,.2l-.3-.2-.3-.2c-.1,0,.1-.1-.2-.1H40.8c0,.1-.1,0-.1,0s-.1.1.1.2l.3.2c.1,0,.2,0,.1.1h-.3l-.3-.2c-.1,0,.1.2-.2-.1s-.2-.3-.3-.3H39l-.4-.2h-.3c-.2,0,0,0,0,.1s-.2.1-.2.2l.2.2h-.9c-.2.1-.3.1-.3.2s-.2,0,.1.1h1.6c0,.1.2.1,0,.2h-.4a.5.5,0,0,0-.4-.2.1.1,0,0,0-.1-.1h-.5c-.1,0-.2-.1-.3,0s0,.2-.1.2-.1,0-.2,0h-.2c0-.1.2-.1-.1-.1h-.4a.2.2,0,0,0-.3,0h-.4a.5.5,0,0,0-.4.2h-.3c-.1.1-.2,0-.2-.1h-.8c0,.1-.1,0-.2.1h-.9c-.1,0-.2,0-.2.1Z"/><path class="fd936d1f-bdb8-4baf-bd07-dc026984a0e3" d="M28.6,29c.1.2.2.2.2.3h1.4c0,.1.2.2-.1.2h-.6c-.1.1-.3-.2-.3.1s.1.2.2.4l.4.2H30a.2.2,0,0,0,.2-.2h.2c.1,0,.1-.2.1,0s-.1.2.1.2l.4-.2h.5c.1-.1-.1-.2.2-.1s.4.1.3.2h.6a.2.2,0,0,1-.2.2H32c-.1.1-.3-.1-.2,0s0,.2.3.2H33c.2,0-.4.2-.4.2H31.1c-.2.1-.1-.1-.2.1s-.1,0-.3,0-.4-.2-.2.1l.5.4c.1.1,0,.1.2.1s.2-.2.3,0,.1.2.1.3H32s.2-.1.2,0h.3c.1.1-.4.2-.5.2s-.3-.2-.3-.1.2.3.3.4l.4.2h.9c.2,0,.1-.1.3,0s.5.3.4,0-.2-.3,0-.4h.2c.2.2.3.1.3.3s0,.1.2.1a.1.1,0,0,0,.1-.1c-.1-.1-.1-.3,0-.2H35c.2.2.3.2.4.2a.1.1,0,0,0,.1-.1v-.4s-.2-.1,0-.1.4-.1.4,0-.1,0,0,.1.2-.2.1-.2v-.2l-.2-.2c0-.2-.1-.1,0-.3s.1-.3.2-.2.3-.1.2.1-.3.1-.2.2,0,.3.1.3,0,.2.3,0l.3-.2H37c.3-.2-.2,0,.4-.3l.7-.2h.2l.3-.2h.1v-.2a.1.1,0,0,1-.1-.1.3.3,0,0,1-.1-.2l-.2-.2c0,.1-.1-.1-.2,0s0,.3-.1.2h-.4s-.2-.1-.2,0h-.4v-.2c.1,0,.2-.2.1-.2s0-.2-.1-.1h-.2s.3-.2.2-.2h-.2l-.4-.3H36l.5-.2v-.2a.3.3,0,0,1-.1-.2l-.6-.2-.3.2c0,.1-.1.1,0,.2l.3.2c0,.1,0,.3-.2.2h-.4c0-.1-.1-.1-.1-.2v-.3c0-.1.1-.2,0-.2H33.8s0-.2-.1-.2,0-.3-.2-.3-.2-.1-.3-.2l-.3-.2c-.2-.2-.2-.3-.3-.3h-.2c-.1-.1-.1-.2-.3-.2H30.5c-.1.2-.2.4,0,.4H31c.2,0,.3-.1.4,0l.2.2h-.9c-.1,0-.2-.1-.2,0v.2h-.7l-.3.2v.2c.1.1.1.2.3.2H30c-.1,0-.1-.2-.2-.2h-.9c-.1.1.3.1.2.2s-.1.2-.2.2l.2.2c0,.1-.5-.1-.5,0s-.1,0-.1.1-.2.3.1.2h.5c.2,0,.2-.1.3,0h.3c.2-.1.5.1.5,0s.5-.3.3-.1a.6.6,0,0,1-.6.3h-.5c-.1.1-.2,0-.4,0h-.2a.3.3,0,0,0-.4,0s-.1,0,0,.1A1.4,1.4,0,0,1,28.6,29Z"/><path class="fd936d1f-bdb8-4baf-bd07-dc026984a0e3" d="M26.8,31.5c0,.2,0,.1.1.5s.1,0,.2.1h.3c.1-.1.2.1.3.2s0,0-.5.1h.3a.1.1,0,0,1,.1.1c0,.1.1.1.1.2s.2.1.4.1h.4c.1,0-.1,0,.1.1s.2-.1.4-.1h.4c.2,0,.1-.1.3-.2s0-.1,0-.2-.2-.1-.2-.2l.3-.2s-.1,0-.1-.2a.1.1,0,0,0-.1-.1h-.8c-.1,0-.2-.1-.1-.3l-.2-.2s-.4.1-.5,0h-.7c-.1-.1-.4,0-.5,0s-.1.1-.1.2S26.8,31.3,26.8,31.5Z"/><path class="fd936d1f-bdb8-4baf-bd07-dc026984a0e3" d="M28.9,33.6c.1,0,.1-.1.2,0h.6c.1,0,.3-.1.4,0h.4c.1,0,.1-.1.3,0h.4a.3.3,0,0,0,.1-.2.1.1,0,0,0,0-.2c-.1-.1,0-.2-.2-.2s-.3-.1-.4,0-.1-.2-.4-.1H29.2c-.3.1-.2-.1-.4,0l-.2.2s-.2.1,0,.2Z"/><path class="fd936d1f-bdb8-4baf-bd07-dc026984a0e3" d="M33.6,33.2c-.8,0-.5.3-.5.3s.1.2.1.3,0,.1,0,.1,0,.1,0,.2h.2c.1,0,.1.1.1,0s0-.1.1-.2.1.2.2.2,0,0,.2,0h.5c.1,0,0-.3,0-.4s-.1-.2-.1-.2-.2,0-.3-.2S34.4,33.1,33.6,33.2Z"/><path class="fd936d1f-bdb8-4baf-bd07-dc026984a0e3" d="M31.1,35.5a.2.2,0,0,0,.2-.2c.1-.1.2,0,.1-.2s-.2-.3-.3-.3H28.7l-.4.2c0,.1-.1,0-.1.1s-.1.2-.1.3,0,.1.1.2h.2l.2.2c.2.1.2,0,.2,0H29c.1,0-.2.2-.1.2h.5c.1,0,0-.1.1,0h1.7C31.1,35.6,31,35.5,31.1,35.5Z"/><path class="fd936d1f-bdb8-4baf-bd07-dc026984a0e3" d="M33.6,38.9c.1,0,.2,0,.2.1h1.1l.3-.2s.1-.2.2-.1.1-.2.1-.1,0,.3,0,.3v.3h.3s.1-.1.1,0h.4s.1-.2.2-.2.1-.1.2,0,0,.1.1.1a.2.2,0,0,0,.3,0h.7a.1.1,0,0,0,.1.1s0,.2.2,0,0-.1.1-.1h.6c.2,0,.2.2.3.2h.9a.1.1,0,0,0,.1-.1s-.1-.2,0-.2.3,0,.2.1h0l.4.2h1.7a.2.2,0,0,0,.3,0c.2-.1.2,0,.2-.1a.4.4,0,0,1,.1-.3s-.2-.1,0-.1h.5s.2-.2.1-.2h-.2a.3.3,0,0,1-.1-.2.1.1,0,0,1,.1-.1c.1-.1.1-.1.1-.2s.1-.2,0-.3,0-.1-.2-.1h-.2c0-.1,0-.2-.1-.2h-.9l-.4-.2h-.7s0-.1-.2,0h-.6c-.1-.1-.1-.2-.2-.2h-.4c-.1.1-.1,0-.2,0s-.1.1-.2.2l-.4.2a.3.3,0,0,0-.4,0h-.7c-.1,0-.2,0-.1.1s.1.1,0,.1-.4,0-.4,0H36.1c-.1,0-.2.1-.3,0h-.5c0,.1-.1,0-.1.1h0c0,.1-.2-.1-.2-.1a.4.4,0,0,1-.1-.3c.1-.1.1-.1,0-.2h-.5v-.2h-.6c0-.1.2,0,0-.1h-.2c.1-.1,0-.1.1-.1h.2c.1.1,0,.1.2.1h.7v-.2h-.6l-.3-.2c-.1,0-.2,0-.2-.1h0s-.3-.1-.3-.2-.3-.5-.4-.5h-.9a.1.1,0,0,1-.1.1h-.3c-.1,0-.2-.1-.2,0l-.2.2-.2.3h.2c.1.1,0,.2.1.3s0,.1.1.1h.2c.1,0,.1.1.1.2h.2s.2,0,.2.1v.2c0,.1.1.2,0,.3a.2.2,0,0,0-.2.2H32c0,.1-.1.1,0,.2v.2c0,.1.1,0,.1.2s0,.1,0,.2.1.3.2.3a.1.1,0,0,1,.1.1h.9v.3Z"/><path class="fd936d1f-bdb8-4baf-bd07-dc026984a0e3" d="M28.7,47.7c.2,0,.1-.1.2,0s.1.2.2.2h.2c0-.1.1-.1.1-.2a.1.1,0,0,0,0-.2h-.3c0-.1-.1-.1-.2-.1h-.5c-.1,0-.1-.1-.2,0h-.3c-.1-.2,0-.2-.2-.2H27c-.1,0-.2,0-.2.1s-.2.3-.2.5v.2h-.3c0,.1,0,.1-.1.1s-.1,0-.2,0a.1.1,0,0,0-.2,0h-.2v.3h.6c.2,0,.3-.2.3,0s-.1.1,0,.2h1c.2,0,.2-.1.3,0l.2.2h.7a.3.3,0,0,0,.1-.2h.5c.1,0,.2.1.1-.1s0-.2-.1-.2h-.2a.3.3,0,0,0-.1-.2h-.2c-.2-.2-.2,0-.2-.2S28.5,47.7,28.7,47.7Z"/><path class="fd936d1f-bdb8-4baf-bd07-dc026984a0e3" d="M28.3,42.7c.1-.2.1,0,.2-.3s-.1-.1-.1-.2h-.2c-.1-.1,0-.1.1-.2s.1-.1.1-.3-.1,0-.1-.1-.1,0-.2-.1h-.2c-.1,0-.1.1-.1.3s.1,0,.1,0,.1.1.1.2,0,0-.2.1-.1,0-.1-.1,0-.1-.1-.3,0,0-.3-.1h-.5c-.1-.1,0,0,0-.1s.2-.1.2-.2.1-.1.1-.2h.2l.3-.2v-.2c.1-.2.1,0,.2,0v-.2c.1-.1.1-.1,0-.2l-.3-.2h-.2v-.2H27c-.1,0-.2,0-.2.1H26c-.1.2,0,.1.1.2s.1.1.2.2h-.6l-.3-.2h-.2c-.2,0,0,.2,0,.2a.1.1,0,0,0-.1.1h-.7v.2a.1.1,0,0,1-.1.1H24a.3.3,0,0,0-.1.2c-.1.1,0,0,.1,0s0,.2.1.3H25v.2c.1,0,.1.1-.1.1s0,.1,0,.2,0,.1-.1.1l-.3.2h-.4l-.4-.4c-.4-.4-.1-.2-.3-.2l-.4.2h-.2v.3h.2a.2.2,0,0,0,.2.2.2.2,0,0,0,.2.2c.1.1.1.1.1.2s.1.1.2.1h.5c.1,0,0,0,.1.1s.1,0,.1,0h.3a.3.3,0,0,1,.1.2s.2.1.2.2.2,0,.2.1l.3.2.3.2.2.2c0,.1,0,.2.1.2s0,.1.1.1a.2.2,0,0,0,.3,0,.1.1,0,0,1,.1.1l.3-.2c.1-.1.1-.2,0-.2s-.1-.2-.1-.3.1-.1.1-.1h0c0,.1.1.1.2.3s0,0,.1-.1.2,0,.3,0h.3a.3.3,0,0,0,.1-.2h.2c.2-.1.2,0,.2-.2a.4.4,0,0,1,.1-.3v-.2c0-.1-.1-.2,0-.2Z"/><path class="fd936d1f-bdb8-4baf-bd07-dc026984a0e3" d="M27.5,36.8Z"/><path class="fd936d1f-bdb8-4baf-bd07-dc026984a0e3" d="M27.5,36.9h0c-.1-.1,0,0,0-.1s-.1-.1-.1-.2v-.6c0-.2,0,0-.1-.1s0-.1,0-.2,0-.1.1-.2-.2,0-.3-.2h-.3c-.1-.1-.2,0-.4,0s-.2.1-.2.1h-.3s-.2,0-.2-.1v-.2c0-.2-.3,0-.3-.1s-.1.2-.1.2a.1.1,0,0,1-.2,0c-.1-.1,0-.1-.2-.1s-.3.2-.4.2,0-.2,0-.2-.3.1-.4,0-.2.3-.1.3h.4c.1,0,.1.1.1.2s.1,0,.2,0h.4c0,.1.1.1.1.3s.2.1.2.1.1.2,0,.2l-.3-.2c-.1,0-.2,0-.2-.1s-.2,0-.2-.1-.3,0-.3-.2-.1,0-.3-.3-.1,0-.2,0h-.3c-.1,0-.2,0-.3.2s0,.1-.1.3l.3.3h.3a1,1,0,0,1,.1.3s.4.1.4.2h-.6c0-.1,0,0-.2-.1s0-.3,0-.3-.2.1-.3,0H23c0-.1,0,0-.1-.1s0-.1-.1-.3h-.3l-.6.7h0v.3s.2-.2.2-.1a.3.3,0,0,0,.1.2h.6v.2h0c0,.1,0,.1.4.1s.1,0,.1-.1h.6c.1.1.2.1.4,0s.1.1.2,0h.7c.2-.1,0,.1,0,.1H25l-.2.2.2.3v.5h.7c.2-.1.2,0,.2-.1s.2,0,.2,0h1.1c.1,0,.1,0,.3-.3s0,0-.1-.1-.1,0-.2,0,0,0,0-.3,0,0,.2-.1.1.1.1.2.3.1.3,0v-.3c0-.1-.1,0,0-.1S27.6,37.1,27.5,36.9Z"/><path class="fd936d1f-bdb8-4baf-bd07-dc026984a0e3" d="M28.4,37.4h.4v-.2h-.2a.2.2,0,0,0-.3,0c-.2.1-.4,0-.4.2s-.1,0,0,.1h0c.1.1,0,.1.1.1s.2.1.2,0Z"/><path class="fd936d1f-bdb8-4baf-bd07-dc026984a0e3" d="M30.3,38.9h.1c.1,0,.3-.1.3,0H31c0-.1.1-.2.1-.4s.1,0,0-.2.1.2-.1-.2-.1-.5-.2-.5-.1-.1-.1-.2l-.3-.2s-.1-.1-.1,0-.2-.1-.3,0-.1-.1-.2,0-.4-.1-.4,0l-.3.2c0,.1-.1.1-.2.2h-.2l-.2.2c-.1.1-.1,0-.1.1s-.2.2,0,.3,0,.1.2.1-.1,0,.1,0l.3.2h.3c.4.1.6.1.6.2Z"/><path class="fd936d1f-bdb8-4baf-bd07-dc026984a0e3" d="M29.2,38.7h-.1c-.1.1-.2-.1-.2.1s-.1.1,0,.1.2,0,.2.1,0,0,.1,0,.2.1.2,0h0A.4.4,0,0,0,29.2,38.7Z"/><path class="fd936d1f-bdb8-4baf-bd07-dc026984a0e3" d="M29.9,36.7h.4c.1,0,0,0,0-.1s-.1-.2-.2-.2h-.2c-.1,0-.1.2-.1.2Z"/><path class="fd936d1f-bdb8-4baf-bd07-dc026984a0e3" d="M21.9,37.5h-.7s-.3.2-.3.3v.2c0,.1,0,.1.1.2s.1,0,.3,0h.2c.2,0,.3.1.4,0s.1-.2.1-.3S22,37.6,21.9,37.5Z"/><path class="fd936d1f-bdb8-4baf-bd07-dc026984a0e3" d="M45.9,41.9h.8a1.5,1.5,0,0,1-.2-.4.3.3,0,0,0-.1-.2l-.2-.2c0-.1-.1-.1-.2-.1s-.1-.2-.2-.2h-.9l-.4-.2h-.7c0-.1-.2-.2-.2-.2h-.4c-.2-.1,0-.1-.2-.1a.5.5,0,0,0-.5,0V41c0,.1,0,.1.1.1s.1,0,.2,0H43c0,.1.1,0,.1.2v.2c0,.1,0,.2.1.2h.2c.1.1,0,.2.2.2h.5c0,.1.3,0,.3,0l.4-.2h1.1Z"/><path class="fd936d1f-bdb8-4baf-bd07-dc026984a0e3" d="M59.7,75s.1-.2,0-.2l-.7-.5-.5-.2H57.3c.1.2.2.3.4.3a.9.9,0,0,1,.6.3l.3.2.5.2h.6Z"/><path class="fd936d1f-bdb8-4baf-bd07-dc026984a0e3" d="M64.8,72.2h-.3c-.2.1-.2.4-.2.5s-.4.2-.4.3l-.3.3-.2.5c-.2.2-.2.2-.1.3v.2l-.2.3-.2.2c-.1,0-.1.1-.1.2a.4.4,0,0,1-.1.3l-.3.2v.2h.2c.2,0,0,.2,0,.2h-.2c0,.1-.1.2-.2.3a.4.4,0,0,0-.1.3h3.1c.2,0,0,.1,0,.2s0,.1.1.2l.2.2-.2.2-.2.2h.7q.1-.3.3-.3l.3-.2c-.1-.1.1,0,.4,0h0a.4.4,0,0,0,0,.5H67l.3.4.3-.2c.2-.1,0-.1.1-.2s0-.1.1-.3h.1v-.3h-.4c0-.1.1-.1.1-.2s.1-.2,0-.4h-.3c-.1.1-.1.3-.2.4l-.3-.2.3-.4.4-.3.2-.2h-.6c-.1.1-.3,0-.3,0s-.1,0,0-.1,0,0,0-.2-.1,0,0-.3.2,0,.3-.1v-.2c0-.1-.3-.2-.4-.2h-.2a.4.4,0,0,1-.3-.2c0-.1-.2.1-.2.1a.2.2,0,0,1-.2.2.4.4,0,0,0-.1.3h-.2a.6.6,0,0,0-.1-.4h-.6v-.2l.2-.2c.2-.1.1-.2.1-.2h-.6c-.1,0,0,0-.2.2s-.3.3-.4.4a.4.4,0,0,0,.1-.3v-.5l.3-.3c.2-.1.3-.3.5-.5s0-.2-.2-.3.1-.1.3-.2.2,0,.1-.2h-.5Z"/><path class="fd936d1f-bdb8-4baf-bd07-dc026984a0e3" d="M42.2,56.7c.4,0,.4,0,.6-.2s.3-.1.1-.4-.1-.4-.3-.4-.7.2-.7,0l-.4-.6s-.1-.2-.2-.2h-.4l-.6-.4c-.3-.3-.4-.3-.5-.3s-.3.4-.4,0-.3-.3-.3-.3-.2.2-.3,0-.1.1-.1-.2v-.3a.3.3,0,0,0-.4-.2c-.4.1-.8.1-.7.6s.3.4.1.9-.4.3-.2.6.2.1.1.4a.5.5,0,0,1-.5.3c-.1.1-.5.2-.3.3a.9.9,0,0,0,.7.1c.3-.1.6-.3.7-.1s-.1.5,0,.6.5.3.7.2a2.3,2.3,0,0,0,.5-.5l.3-.3a1,1,0,0,0,.4-.5h.3c.2.1.3.4.5.4s.7.3.8.4Z"/><path class="fd936d1f-bdb8-4baf-bd07-dc026984a0e3" d="M47.4,105.3c.1.1.3-.2.3-.2H48c.1.1.4,0,.5-.2s0,0-.2-.2,0-.1-.2-.2-.2-.1-.4-.2-.2,0-.3,0-.1-.2-.1-.3-.2,0-.3-.1h-.4c-.2,0-.1,0-.2-.1s-.1-.1-.3-.3h-.4l-.4-.3c-.1-.1-.3.1-.4,0s-.2-.1-.4-.3h-.6l-.2-.3c-.1-.2,0-.1-.3-.2H40l-.4.3-.4.2c-.1,0,.1.4.1.5l.4-.3c.2-.2.2,0,.6-.1l.4-.2c.1-.2.2-.1.4-.2h.4c.1.1,0,.1,0,.3s.1,0,.3.1l.4.2h.9c.2,0,.2,0,.5.4s.2.1.4,0,.3,0,.4.1.2.3.3.4a1,1,0,0,0,.5.4h.4c.1,0,.2.1.1.2l-.3.4c-.1.1.1.1.4.1h1.3C47.2,105.1,47.3,105.2,47.4,105.3Z"/><path class="fd936d1f-bdb8-4baf-bd07-dc026984a0e3" d="M40.6,103.2c-.1,0-.2.1-.1.2h0c.1.2,0,.2.2.2s.3.1.3-.1S40.8,103.1,40.6,103.2Z"/><path class="fd936d1f-bdb8-4baf-bd07-dc026984a0e3" d="M46,106.5H44.8c0,.1.2.3.3.4a.5.5,0,0,0,.4.2c.1.1.1,0,.3-.1h.9c.2-.1,0,0-.3-.3S46.2,106.7,46,106.5Z"/><path class="fd936d1f-bdb8-4baf-bd07-dc026984a0e3" d="M51.4,106.6h1.8c.2,0,.3,0,.3-.2s-.2-.2-.8-.4l-.4-.2h0a.4.4,0,0,1-.2-.3c-.1-.2-.4,0-.6,0H50.3l-.4-.3c-.3-.1-.4.1-.5.2s0,.1.1.2.2.1.2.1.2.2.1.4.1.1.1.3l.4.2-.4.2h-.3l-.5-.2c-.2-.1-.6.1-.7.1s0,.3.1.4h.4c.1-.1.2,0,.3,0h1.3l.2.2.4.2c.2.1,0-.1,0-.2A.9.9,0,0,1,51.4,106.6Z"/><path class="fd936d1f-bdb8-4baf-bd07-dc026984a0e3" d="M56,106.5H54.8c-.2,0,0,.2,0,.3a.2.2,0,0,0,.2.2h1.1c.2,0,.1-.1.1-.3Z"/><path class="fd936d1f-bdb8-4baf-bd07-dc026984a0e3" d="M45.1,100.2V100a.9.9,0,0,0-.1.5c0,.2-.1.2,0,.3h.2c.1.2.1.3.2,0s.1-.2,0-.4Z"/><path class="fd936d1f-bdb8-4baf-bd07-dc026984a0e3" d="M45.3,101.5l.2-.3h-.3C45.2,101.4,45.2,101.6,45.3,101.5Z"/><path class="fd936d1f-bdb8-4baf-bd07-dc026984a0e3" d="M45.9,98.7c0-.1-.1-.1-.4,0s.2.1.2.2v.5c0-.1.1-.1.2-.2v-.5Z"/><path class="fd936d1f-bdb8-4baf-bd07-dc026984a0e3" d="M44.9,98.5c-.1,0-.4-.1-.4.1s-.1.2-.1.3a.6.6,0,0,0,.4-.2c.1-.1.2,0,.3,0S45,98.5,44.9,98.5Z"/><path class="fd936d1f-bdb8-4baf-bd07-dc026984a0e3" d="M48.5,102.5c-.2,0,.1,0,.1.2s-.1,0-.1.2-.1.2.1.2a.4.4,0,0,0,.1-.3S48.9,102.4,48.5,102.5Z"/><path class="fd936d1f-bdb8-4baf-bd07-dc026984a0e3" d="M64.9,71.1v-.2c.1-.3.3-.3.3-.5s-.1-.2-.1-.4.2-.2,0-.3l-.6-.3h-.5c-.2,0-.3.1-.3.2s.1.2-.1.2,0-.1,0-.4-.1-.3-.3-.3h-.5l-.4.2H62l-.2.2-.6.3h-.3c-.1-.1-.1-.3,0-.3h.6l.3-.3H62l.2-.2h1.5l-.5-.2c-.1-.2,0-.4-.1-.4h-.5c-.2.1-.2.2-.3,0s0-.3-.1-.3-.1-.3-.2-.2l-.3.2-.3.2a.4.4,0,0,0,.1-.3c0-.1-.2-.1-.3-.1H61v-.4l-.2-.2c-.1-.2,0-.1-.1-.2h-.1c-.3,0,0,.2-.1.2s-.1-.3-.2-.3-.2-.3-.2-.3-.1-.2-.2-.2a.4.4,0,0,1-.3-.2s-.2-.1,0-.1h.4s.2-.3.1-.3-.1-.4-.2-.4-.1-.2-.3-.3-.1-.2,0-.2.3-.1.1-.2a.5.5,0,0,0-.4-.3l-.3-.2c-.1,0,0-.1-.1-.2s-.1-.3-.2-.3-.1.1-.2,0,0-.6-.1-.6h-.1c-.1-.1-.1-.2-.2-.2s-.1-.1-.1-.2,0-.2-.1-.2-.2-.1-.2-.2-.1-.4-.2-.4-.1-.1-.2-.3,0-.3-.1-.2l-.4.5c-.1.2,0-.1-.1.1h0c0,.3-.3.1-.3.3s0,.1.1.2.2.2.1.3-.3-.2-.3.1-.2.3-.1.3.4-.1.1.2-.2.6-.3.6-.2-.5-.4-.4h-.1l-.3.2c-.1.2,0,.1-.1.1h0c0,.1-.1.1-.2.2h-.3c-.1.2,0-.2-.2-.2s0-.2-.2.1l-.3.2c-.2.1-.3,0-.2-.2s.3-.3.2-.3,0-.3-.1-.5,0-.1-.2-.1-.5.1-.7.3,0,.3-.3.1-.3-.5-.2-.4h.3c.1-.1.2,0,.2-.1h0v-.2c-.1-.3,0,.3-.1-.1s-.2-.4-.3-.6v-.2c0-.1.1-.1.1-.4s-.1-.2-.1-.3-.3,0,0-.3a1.2,1.2,0,0,0,.3-.6h-.4c-.1,0,0,.1-.3.1s-.1-.2-.2-.2h-1l-.2-.3v-.3l-.3-.2h-.4v-.2c-.1-.1,0-.2-.2-.3s0-.3-.4-.3H48.1c-.2.1,0,.2-.2.1l-.2-.2h-.2c-.1.1,0-.1-.2,0s-.2.1-.3,0,0-.2-.1-.3.1-.2-.3-.1-.4.2-.5.1-.1-.3-.3-.2h-.3l-.5.2c-.1.2-.1,0-.1.3s.2.2.2.5a.8.8,0,0,0,.2.4c0,.2.2-.1,0,.2s0,.4-.1.5a.4.4,0,0,1-.1.3c0,.1,0,.1.1.3s.3.3.3.4v.3c0,.1.1.2.1.3s.1.3,0,.4h-.4a.7.7,0,0,1-.1.5l-.4.2c0,.1,0,.1-.1.2s-.3.4-.2.4l.7.2c.3.2.6.2.6.3s.1,0,.2.3l.3.4c0,.1.1.2.1.3v.2c0,.2.1,0,0,.5v.5a1,1,0,0,0,.1.3s0,.2-.1.2,0,.2-.3.4l-.5.3-.4.3v.2l-.4.2h-.5c-.1.1-.1-.2-.3-.1s-.2.2-.2.3.4.4.4.5v.2a.6.6,0,0,0,.1.4c0,.1.3.1.2.3s0,.1-.1.3.1.2,0,.4a.7.7,0,0,0,.1.5c0,.1.2,0,.2.2a.8.8,0,0,1,.2.4h-.2a.2.2,0,0,0-.2.2.3.3,0,0,0-.1.2c.1.1.3.2.3.3s-.2.4-.3.4-.2-.2-.2-.3-.2-.2-.4,0-.1.1-.1.3.1.1.2.3-.2-.2-.4-.3h-.4l-.5.2h.1l.2-.2c.1-.2.1,0,.1-.2V72h-.3c-.1-.1.2-.1-.1-.2l-.4-.2c-.3,0-.4.2-.3,0l.2-.3h0l-.3-.3c-.1,0,0-.1-.2-.1s0-.1-.1-.2h-.1V70c0-.1.1-.1,0-.3a.5.5,0,0,1-.2-.4v-.2l-.2-.2c0-.1,0-.3.1-.3l.2-.3c0-.1.2.1-.1-.3H41c0-.1.1,0,0-.1H39.6c-.1,0,0-.2-.1-.2h-1c-.3-.4-.2-.5-.5-.5h-.3c-.2-.1.1-.2-.4-.3h-.8c-.3-.3,0-.3-.3-.5s-.3-.1-.3-.2h-.6l-.2-.2-.3-.2c-.2,0-.2-.2-.3-.1h-.3l-.2-.3H32.8l-.4.2h-.7l.2-.2c.1-.2.2-.2.2-.3s0,0-.2-.2l-.2-.4a.4.4,0,0,0-.1-.3.8.8,0,0,1-.1-.4c-.1-.1.1,0-.1-.2l-.4-.2h-.3l-.5.2c.1,0,0-.4,0-.3l-.3-.3c-.1-.1-.2-.1-.1-.2l.2-.2v-.3c0-.2.1-.4.1-.6A.4.4,0,0,1,30,61c0-.2-.1-.2,0-.3s.4-.2.4-.4.2-.2.2-.4.1,0,.1-.3.1-.3.1-.4l.5-.2v-.2c-.1-.1-.1-.2,0-.2l.3-.2h.2s.1-.2,0-.2a.1.1,0,1,1,0-.2h.6c-.1-.2-.2-.3-.1-.3h.4a.1.1,0,0,1,.1.1h.4v-.2h.3v-.2l-.4-.2c0-.1,0-.1-.1-.3s-.2-.2-.4-.1h-.2c-.1,0,0-.3-.2-.3s-.3.2-.3.1H32l-.3-.2c-.1-.1-.3-.2-.2-.2l.7.2s-.1.1,0,.1.1,0,.3,0l.3.2h1.4v-.5h1.3l.3-.3h.3a.3.3,0,0,1,.1-.2l.3-.3v-.2l.3-.2V54h-.1l.3-.3.2-.2.3-.2c.1-.1.2-.2.2-.3h.1l-.2-.3h-.3s0-.2.1-.2h.7l.2.2c.1.3.2.2.2.3H39l.2-.2h.7c0-.1-.2-.3-.2-.3V52l-.2-.2c-.2-.1-.1-.2-.3-.2s-.4,0-.2,0h.2c.1,0,.1,0,.1-.1h0c.1.2.1.2.2.2h.2c.1.1.2.2.2.3s.2,0,.2.1l.2.2.4.3c-.2-.3-.2-.2-.2-.3s-.1-.1,0-.2h.1a.8.8,0,0,0,.6-.2c0-.2-.2-.2,0-.2h.3v-.2h.2l.2-.2A.4.4,0,0,0,42,51c.2-.2.2-.3.1-.4h-.3l-.2-.3c-.2-.1-.3-.1-.3-.3s.1.1,0-.2l-.3-.3c0-.1-.1,0,0-.1s-.1-.1,0-.1h.6a.1.1,0,0,1,.1-.1c.1,0,.3,0,.3-.1v-.2c-.1,0-.2-.2-.3-.1s-.1.1-.1,0-.3-.1,0-.2.2,0,.2-.2V48H41c-.1-.1,0-.2-.1-.2h-.3l.2-.2c.1,0,0-.2,0-.2h-.6a.4.4,0,0,0-.3-.2H38.4s0-.2-.2,0,0,.2.1.2v.3c0,.3-.1.2,0,.3s.3-.2.4.1-.1.2.2.3.4,0,.2.2l-.4.2h-.2c-.1.1-.3-.2-.3,0v.4c-.2.3-.2.2-.2.4s.2.3,0,.3h-.1l-.2.2-.3.3v.2a.2.2,0,0,1,0,.3h-.2c-.3.1-.4.1-.4.2s-.1.4-.1.3v-.4a.5.5,0,0,0-.2-.4l-.4-.3c0-.2,0-.3-.1-.4s-.1-.2,0-.3.2-.3.3-.2.1.3.1.1v-.2l-.3-.2v-.7h-.8c0-.1,0-.1-.1-.1a.2.2,0,0,0-.3,0l-.2.2-.2.2c.1.3,0,.1-.1.2s-.3.3-.3.5a.3.3,0,0,1-.1.2v-.8c0-.1.4-.1.1-.2s-.4-.1-.4-.2.2-.2.3-.2.2.1.1,0,0-.3-.1-.3-.2-.2-.3-.2-.2-.1-.3-.1a.2.2,0,0,0-.2-.2c-.1,0-.1-.1-.2,0s.1.2-.1.2a.4.4,0,0,1-.5,0c-.3,0-.4-.1-.3-.2s-.5.3.1-.1l.7-.4c.1.1.2.1.2,0s.1-.3,0-.3-.1-.2-.3-.2,0,0-.1,0l-.4-.3c-.1-.2-.2-.3-.2-.4s-.2,0-.2,0v-.5c0-.1,0,0-.1-.2a.3.3,0,0,0-.3-.3s-.3-.5-.4-.5h-.5c-.1.1-.1,0-.2,0s-.1-.2-.1-.2h.4l.4-.2v-.3l.3-.2-.2-.2v-.2h1.1c.2.1.8-.2.7-.2s.1,0,.1-.3,0-.4.1-.4h.3v-.2a.2.2,0,0,0,.2-.2,2.2,2.2,0,0,0,.3-.5v-.2H32.3c0-.1-.1-.1-.2-.1s-.1-.2-.3-.2H29.9c-.2,0-.1,0-.2.1s-.2,0-.1.2v.3a.1.1,0,0,0-.1-.1c-.2.1-.2-.1-.2,0s0,.2,0,.4v.6c-.1.1-.1.2-.1.4V42c0,.1,0,0,.1.2s.1.3.2.4.1.1.1.2-.1.3-.1.4a.4.4,0,0,0,.1.3c0,.2.1.1,0,.2s-.3.1-.3.2-.1.2,0,.2.2.3.1.3h-.7l-.2.4c-.1.1-.1.1-.1.2s-.1.3,0,.5h.5c.1,0-.2.2-.2.4a.4.4,0,0,0-.1.3c0,.2.1.3.2.5s.2.1.2.1.3,0,.3,0h.5l.5.3h.3a.1.1,0,0,1,.1.1h-.1c0,.1-.1,0-.1.2s.2.1.2.2l-.2.2-.2.2h.5a.1.1,0,0,0,.1-.1.4.4,0,0,0,.1-.3s.2.2.1.3v.2c0,.3.2.2,0,.4l-.4.4a.1.1,0,0,0-.2,0c0,.2-.1.1-.3.2s0-.1-.2,0-.1-.1-.3.1-.2-.2-.2.1-.3.3-.2.4.2,0,.3.2,0,.2.1.4v.3a.4.4,0,0,0-.1.3v-.2c-.5-.3-.5-.4-.5-.4h-.2a.5.5,0,0,1-.4-.2c0-.1-.1-.2,0-.3s.3-.1.3-.2v-.4c-.1-.2,0-.3-.1-.3h-.6c-.2,0-.3-.1-.3-.2s0-.2-.1-.2,0-.1-.2-.1-.3-.1-.4,0,.1.1,0,.2h-.5c-.3.1-.4,0-.3.1s.2,0,.2.2,0,.1,0,.2h-.1a.2.2,0,0,0,0,.3.2.2,0,0,1-.2.2H26s.2-.3-.2-.2-.3.1-.3.1H23.7c-.1,0-.2.1-.2,0v-.2H23l-.4-.2c0-.1-.1-.3-.2-.3s-.2-.1-.3,0-.2,0-.4,0-.1.2-.2.1h-.2l-.3-.2c-.1-.1.1-.1-.2-.2h-.4v-.2c-.1-.1,0,0,0-.1l-.2-.3c-.1-.1,0-.2-.1-.2h-1l-.5.2h-1c-.2.1-.2.2-.3.3v.2c0,.1.1.1.2.2h.6s.1-.2.2-.2h0s-.1-.1.1-.1h1.3l.3-.2c0,.1.1,0,0,.2a.2.2,0,0,1-.2.2h-.3l-.4.3s-.2-.1-.2,0h-.2l-.4.2c-.1.1-.1,0-.2.2s-.2,0-.1.2l.3.2v.3l.3.3v.2a.3.3,0,0,1,.1.2s-.1-.2-.2-.1-.4-.1-.3,0a.8.8,0,0,1,.2.5.1.1,0,0,1,.1.1c0,.2-.4-.4-.4-.4h-.3c-.1,0-.2-.1-.1-.2s.3-.1.3-.3.1-.2,0-.2,0-.1-.1-.2h-.6c-.1-.1-.2-.2-.2-.3v-.2h-.6c-.3-.2-.3-.3-.3-.3h-.4c-.1,0-.2.1-.3,0s-.2-.1-.3,0-.1.2-.1.4H15a5.7,5.7,0,0,0-.8,1.3c.4-.7-7.1,13.3-3,4.7-.5,1.1-1.3,2.1-1.8,3.2s-1,1.9-1.6,2.8S7.2,66,7,67.9c-.7,4.6-1,9.3-2,13.9-.3,1.6-.7,3.1-1.1,4.7h.2c0,.2,0,.1.1.1l.2.3h.1a.1.1,0,0,0,.1.1s.1-.1.1,0v.2h.5l-.2.2c.1.1,0,.1,0,.1s-.2,0-.1.2l.2.3c0,.1.1.1.1.2a.1.1,0,0,1,.2,0v.5c0,.1,0,.2.1.2l.3.3h.1c.1.1.1.1.1.2H6l.3.2h0v.4h.1v.2a.1.1,0,0,0,.1.1H7.9a.1.1,0,0,1,.1.1h.2c0,.1,0,0,.1.1h.6c0,.1,0,.1.1.1h.1c.1.1.1,0,.1.1l.2.2.3.4a.4.4,0,0,0,.1.3h0c0,.1.1.1.1.2s.1.1.1.2v.2h.1l.2.3c0,.1.2.3.2.4s.2.1.2.3v.2h0v.3c0,.1.1.1.1.2h.4l.2.2h.1l.3.2v.2h.3c0,.1,0,.1.1.1s.1.2,0,.3h0v.2h-.9v.2h.2a.2.2,0,0,1,.2.2l.2.2c.1.1,0,.1.1.1h.2l.2.2h.9l.3.3h.2a19668661934063.9,19668661934063.9,0,0,0,.2.4c-.1.1,0,.1,0,.2s0,.1-.1.2,0,.1,0,.2v.2c0,.2,0,.2.1.2l.3.2.3.2.4.3a.3.3,0,0,0,.1.2s.2,0,.2.1H16c.1.1.1,0,.1.2s0,.2.1.2h.3c.1,0,.1-.1.2-.2h0l-.2-.2v-.2h0c0-.2,0,0-.1-.2s-.2-.1-.2-.1h-.5a.1.1,0,0,1-.1-.1v-.4c.1,0,.1-.1.1-.2s-.1-.1-.1-.2h-.2s.1-.2,0-.2h-.2c-.1-.1-.2,0,0-.1s.2-.1.2-.2l-.3-.3s.1.1.1,0v-.2c-.1-.2-.1-.3-.2-.3l-.3-.2v-.2h-.1l-.3-.3-.2-.2a.6.6,0,0,0-.1-.4c-.1,0-.2-.1-.2-.3l-.2-.2s-.2,0-.1-.3.2-.2.1-.3l-.3-.3h-.6c-.1-.1-.2-.2-.2-.3v-.8c0-.2,0,.1-.1-.3s-.4-.6,0-.4h.7c.1,0,.1-.1.2,0h.1l.2.2h.1s.1-.2.1,0l.2.3v.3c.1,0,.1.1.2.2v.2c0,.1.2.2.1.3h.1l.2.3c0,.1.1.1.1.2s0,.2.1.2v.2h.1c0,.1.1.1.1.2l.2.3h.4c.1.1,0,.1,0,.1h.4v.5a.1.1,0,0,1,.1.1h.4a.3.3,0,0,0,.1.2l.3.2h.1s.1,0,.1.2-.1.1-.1.2h-.1v.2h.2a.1.1,0,0,1,.1.1h.3l.2.2h.4v.2h0c0,.1.1.1.1.2l.3.2a.1.1,0,0,1,.1.1h.1c.1.1.2,0,.2.2h.2c0,.1-.2.1.1.2s.4.3.3.3l.2.3.4.3c0,.1.1.1.1.2s.1,0,.1.2v.3c0,.1.1.1,0,.2s-.1,0,0,.1l.2.2h0a.1.1,0,0,1,0,.2h0v.2h0l-.2.3c-.1,0-.1,0-.1.1l.2.2.2.3v.3l.3.2v.2h.5a.3.3,0,0,1,.1.2l.3.2h.1c0,.1.1.1.1.2h.4l.2.2h1s.2.1.2.2H24l.2.2h.3a.5.5,0,0,1,.4.2h1.3c0,.1.1.1.2.1h.4l.9.3h1.5l.4-.2h1.2c0,.1.3.3.4.3s.1.1.2.2h.3c.1.1.1-.1.2.1a2.9,2.9,0,0,0,.2.9l.2.3h0a.1.1,0,0,0,.1.1l.9.4h.9a.5.5,0,0,0,.4.2h1.7s.2,0,.2.1v.3h.2l.3.3.2.2c-.1,0,0,0,0,.1s.2.2.2.3h.4v.2a.1.1,0,0,1,.1.1h0v.9h.4l.3.2h.2v-.2l-.2-.2h.2a.4.4,0,0,0,.1.3h.2s0,.2.1.2.1,0,.1,0h.2c0,.1.2,0,.1.1s.2.2.2.2h0c0,.1,0,0-.1.1h.3v.2c.1-.1.2,0,.3,0v-.2h.9c.1.1.2,0,.2.1h.3v.2h.4l.2.2c-.1.1-.1.1,0,.2h.5c.2-.2.2-.3.2-.3l-.2-.2v-.2c0-.1.1-.2.3-.2a.1.1,0,0,0,.1-.1v-.2h.2a.4.4,0,0,0,.1.3h.4s.1-.1.1,0h.1c.1.1.2,0,.2.1h.1c.2.3.4.3.2.3h-.2c-.1.1,0,.2,0,.3h0l.4.5c.2-.1.4-.3.3-.5s.5-.1.5-.4h-.2c0-.1-.1-.1-.2-.2s-.1-.3-.2-.3L45,115l-.2-.2h-.4l-.4-.2s0-.3-.2,0-.2-.1-.3.2,0,.2-.1.2l-.4.2H41.9l-.5-.2c-.1-.1-.4-.2-.4-.3s-.1-.1-.2-.2l-.2-.2-.2-.4v-.3h-.1l-.3-.4c-.1-.1,0-.3,0-.4a.3.3,0,0,1,0-.4v-.9c.1-.1.1,0,.1-.3s.1-.4.2-.6v-.4a.4.4,0,0,0-.1-.3c0-.1-.1,0-.2-.2h0l-.2-.3-.7-.4c0-.1.1-.2-.1-.2l-.5-.2-.6.2h-.4c-.3,0-.3-.2-.6-.1h-.4c-.2.1-.1-.1-.3,0h-.4c-.1,0-.5.4-.5,0h0c0-.2.2-.3.3-.5s.2-.1.2-.2v-.8c0-.2-.4-.4,0-.4s.2-.1.2-.2a.3.3,0,0,0-.1-.2c0-.1-.2-.3-.1-.4s.2-.2.2,0,.1.4.1.5.2-.3.2-.3v-.4c0-.1.1-.1.1-.2v-.3c0-.2-.1-.4,0-.5s-.1,0,.2-.4.3-.2.4-.4.3-.1.1-.3-.1-.3-.3-.3-.1-.2-.4,0H35.2a1.1,1.1,0,0,1-.8.3c-.2,0-.2-.2-.4,0s.2-.1-.1.2-.2-.3-.2.4,0,.7-.1.8-.1,0-.2.2.1.2-.1.3l-.3.3c-.1.1,0,.1-.1.2s-.3-.1-.4-.1,0-.1-.2,0l-.5.2h-.7c-.1,0,0-.1-.3,0l-.3.2h-.4c-.1,0,0-.2-.2-.2s0-.3-.2-.3h-.6l-.3-.2a1.7,1.7,0,0,0-.2-.5c-.1,0-.1-.4-.2-.4s-.1-.1-.2-.3-.2,0-.4-.4.2.4-.1-.3-.3-.5-.4-.6l-.2-.4v-.7c.1-.1.1-.1.1-.3a.3.3,0,0,0,0-.4c0-.1-.1-.2,0-.3l.3-.2c-.1-.1-.3-.7-.2-.7s.3-.4.3-.5,0-.1.1-.2h0V99a1.1,1.1,0,0,0-.1-.6c-.2-.2-.3-.2-.3-.3s.1-.3.2-.4l.2-.2c.2-.2.1-.4.2-.5h.3l.2-.2h.3l.6-.3h.1c.2-.2.3-.1.3-.3s0,0,0-.2,0-.2.3-.1h.4a.9.9,0,0,1,.7-.3h1.3a.4.4,0,0,1,.5.1h.3v.2c.2.1.2.1.4,0h.2s-.2.2,0,.2.5-.2.4-.3h.3c0,.2,0,.3.2.2s.2-.2.1-.2l-.2-.3v-.3h-.3c-.1,0-.6,0-.4-.1h.9c.3,0,.2-.2.3,0l.6.2c0-.1,0-.1.1-.2s.1-.2.1-.1a.6.6,0,0,0,.5.2l.2-.2H38v.2l.2.2.3.2h.7c.4-.1.3-.2.4,0h.2l.3.2c0,.2.2.1.2.2l.2.4.2.3v.2a.7.7,0,0,0-.1.5c0,.1-.1.3,0,.3s.1.4.3.4l.2.3v.2a.4.4,0,0,1,.1.3c0,.1-.1.4,0,.3l.3.3h.2c.1,0,.2-.1.2.1s.1.3.1.4l.2.2c.1,0,.3,0,.3.1l.2-.3c0-.1,0-.2.1-.2s.1-.2.2-.3.1-.3,0-.3,0,0-.1-.3v-.4c0-.1.1-.1,0-.2s0-.1-.1-.2,0-.2-.2-.3-.1-.2-.1-.4,0,.3-.1-.2-.2-.4-.1-.6a.4.4,0,0,0,.1-.3l-.2-.3c-.1-.1-.3-.1-.4-.4v-.4c0-.2-.2-.1,0-.4s0,0,0-.3-.1-.2,0-.4l.3-.6c0-.1,0-.1.2-.3l.7-.6.4-.3.3-.2c.1-.2.1-.3.3-.4s0-.2.3-.1h.4l.2-.2c.3-.4.5-.4.5-.5s.3-.3.4-.2,0,.1.2,0,.3-.2.2-.3-.4-.2-.4-.3-.1-.1.2-.1.2,0,.3,0l.5-.4h.1c-.3-.1-.3,0-.3-.2s-.1-.2,0-.2.1,0,.1-.2v-.4c0-.1,0-.2-.2-.2h-.3c-.2-.2-.4-.2-.2-.3s.3.2.3,0,0-.1-.1-.2l-.2-.3c0-.4-.3-.5-.1-.5s0,.5.3-.1.2-.8.4-.9-.1.4,0,.7-.1.2,0,.4.2.1.2.3-.3.2-.1.4.4.1.4-.1,0-.2.1-.3l.2-.2c0-.1.1-.2.1-.4l-.2-.3c0-.1-.1,0-.1-.2V86l.3.2c0-.1.1-.1.2,0h.2c.1-.1.6-.5.5-.6s0-.2.1-.4.1-.2,0-.3-.2,0-.2-.2,0-.3.1-.4h.2v.4l.3-.2a.1.1,0,0,1,.1-.1c.2,0,.2-.2.3-.2h.4c.1,0-.1.2.3,0a.7.7,0,0,1,.6-.1H51c.1-.1.2-.2.2-.3h.3c0-.1.3-.2.3-.3l-.2-.3v-.3c-.1-.2-.3.1-.1-.2s.1-.1.1-.4,0-.3.2-.4l.4-.4c.2-.2-.2-.1.2-.2s.2.1.4,0h.4a.4.4,0,0,1,.1-.3l.3-.2h1.1v-.2c.1.1.3.2.3,0h0c.1-.4,0-.4,0-.3h0c.2,0,.4.1.5,0l.2-.3.3.2.4-.2h.4c.1,0,.1-.2.1-.2h.1c.1,0,.1.2.1.2s0,.2.1.2h.5s.2.1.2.2,0,.2-.2.2.1-.3-.4,0h-.8a1.2,1.2,0,0,0-.5.5c-.2.1-.2.3-.4.4s0,.1,0,.3,0,.2.1.2.3.2.4.1l.6-.2.5-.4c.1-.2.1-.3.3-.3l.4-.2.7-.2h.6l.7-.3.3-.2h.3l-.3-.3c0-.1.1-.3,0-.3h-.4l-.4.3a.2.2,0,0,0-.2-.2l-.6.2c-.1,0-.2-.4-.2-.4h-.4l-.3-.2h-.3l-.2-.2v-.2s0-.2-.1-.2-.2-.2-.2-.3l-.2-.3.4-.4-.2-.3c-.1-.1-.6.2-.6.1h-.1a.2.2,0,0,0-.2-.2H57l.4-.3c.1-.1.3-.2.3-.3l-.3-.3-.3-.3-.6-.2h-.3l-.6.2h-.2l-.4.2h-.8l-.6.3c-.2.1,0,0-.3.3a1.8,1.8,0,0,0-.7.5l-.3.3-.7.5c.1-.1.1-.3.2-.4l.3-.6.4-.3.2-.3c0-.1,0-.2.1-.2l.5-.2a.5.5,0,0,1,.2-.4l.3-.2h.5l.4-.2.2-.3.4-.4.5-.2h3.5l.2.2h1.1l.7-.3h.4c.1-.2.7-.4.7-.5s.3-.3.3-.4h1.4l.6-.2.3-.3.2-.2ZM17.3,57.9h-.7c.1.1-.1.3-.1.3H15.2v.3l-.4.2-.4.3a.5.5,0,0,1-.2.4h-.4c0-.1-.3,0-.4,0a2.3,2.3,0,0,0-.1.4.2.2,0,0,1-.2.2.5.5,0,0,1-.4,0h-.2c-.1.1-.2,0-.2-.1h-1s-.3,0-.3-.1l-.3-.2H10s-.1-.3-.2-.3-.1-.3-.1-.3l.3.3a.2.2,0,0,0,.3,0c.1-.1.2-.1.2-.2h.6c.2,0,.2-.1.2-.3s.2-.3.2-.4h.4c.3.1.2,0,.4-.1s0-.1-.1-.2l-.2-.2c-.1,0,0-.2-.1-.3l-.4-.3-.3-.3h.1a.5.5,0,0,1,.4.2l.3.2h.8c0,.1.2.2.2.2l.4.2h.4s.1.1.3,0h.6c.1-.2,0-.1.2-.3h.2l.3-.2h.2l.2-.3h1.6S17.5,57.9,17.3,57.9ZM28.4,73.4c-.1.3-.2.5-.4.3s-.1-.1-.1-.3V73a.7.7,0,0,0,.1-.5v-.3l-.3.2c0,.1-.2.1-.1-.1V72a.3.3,0,0,0-.3-.3c-.1,0-.3.2-.3.1l-.4-.6c-.2-.1-.3-.2-.3-.4s.2-.3.1-.3h-.3c-.2,0-.1-.1-.2-.2s0-.2.1-.4l.2-.3h.5c.1,0,.3-.9.3-.9a4.3,4.3,0,0,1,.1.5c.1.1.1-.1.3-.1s.1.1-.1.2l-.4.3c-.2.1.1.1.2.3l.3.2c.1.1,0,.3,0,.4s.1.2.2.2.2.1.1.2a.5.5,0,0,0,.2.4c0,.1.1.3.1.4s.2.4.3.4a1.4,1.4,0,0,0,.2.4c.1.1.1.2.1.4A.8.8,0,0,1,28.4,73.4ZM47.7,80l-.8.8c-.2.1-.3,0-.3.2v.3c-.1.2,0,.2-.1.3l-.2.2h-.2c-.1.1,0,.4-.4.2l-.5-.2h-.9v.5q-.1.3-.3.3l-.4.2c0,.1-.1.2-.2.3h-.3l-.4.2a.2.2,0,0,0-.3,0l-.3.2-.8.2H40.1c-.1-.1-.2,0,0-.1v-.2a2.5,2.5,0,0,0,.5-.8h.2A.4.4,0,0,0,41,82a.6.6,0,0,0-.1-.4c0-.1.1-.2,0-.3s-.1-.2-.2-.2,0-.2-.2-.2,0,.2-.2.3l-.3.3c-.2,0-.4-.2-.3-.3s.1-.1.3-.1.3-.1.3-.2,0,0,0-.2v-.9c.1,0,0-.3-.1-.4l-.6-.2s-.3-.1-.4,0-.2-.1-.2-.1l-.2.2-.2.3c-.1.2,0,.1-.1.3s-.1.4-.2.2-.1-.2-.3-.2l-.2.2c-.1.1-.2.2-.2.3v.4a.1.1,0,0,1,0,.2.8.8,0,0,0-.2.4l.2.3c0,.1.2.1.2.3a.7.7,0,0,1-.1.5l-.2.5c-.1.1.1.2-.1.3l-.4.3s-.5-.1-.6-.3a6.4,6.4,0,0,1-.2-.7c0-.1-.1-.3,0-.5s.2-.2.2-.4-.1-.5,0-.6l.2-.3.3-.4A.6.6,0,0,0,37,80c0-.1.1-.2,0-.4s0-.3,0-.2a1.6,1.6,0,0,1-.4.7l-.2.3a.2.2,0,0,1,0-.3l.3-.4c.1-.3.1-.1.1-.3a1,1,0,0,1,.1-.4h.4c.2,0,.1.1.3,0l.3-.2h.5c.1-.1.1-.3.2-.2h1.2c.1,0,0-.1-.2-.2s-.2-.2-.4-.2H39c-.2-.2,0-.2-.2-.2H38l-.5.3h-.3l-.3-.2c-.1.1-.3-.2-.4-.2l-.5-.2h-.2l.5-.3c.2-.1.4-.2.2-.2s-.4-.2-.6,0a.5.5,0,0,0-.4.3l-.4.3c-.2.2-.1.2-.3.3h-1c-.1,0-.3-.1-.2-.2s.1-.1,0-.1h-.3c-.1.1,0,.1-.2.2h-.6v-.2c0-.1.5-.3.6-.4s.5-.3.6-.5l.7-.2.7-.5c0-.1.1-.5.2-.4l.2.2.3-.4.3-.3c-.1-.1.2-.1.3,0l.2.2c0,.1.3,0,.4-.1h.4l.3.2c0,.1.1.2.1.3l.4.5c.1,0,0,.1,0,.2s.1.1.2,0,.1-.2.2-.2H39c0,.1.2.2.2.4s-.2.2,0,.3l.3.3c0,.1-.2.1-.2.2a.2.2,0,0,0,.2.2l.3.2c0,.1-.1.2,0,.3h1.7c.1,0,.4,0,.4.1h.2c0,.1.3,0,.3,0s.4,0,.4.1.2.2.2.3.3,0,.3.2.3.3.3.3.1.2,0,.3,0,.2-.1.2-.3.2-.4,0l-.5-.2-.3-.3H42v.2q.2,0,.3.3c0,.1.2.2.1.3l-.3.3h-.2v.7l-.2.3-.3.3c-.1.1-.2.2-.2.3s0,.2-.1.3h-.3l-.2.2h.5l.3-.2h.4l.2-.2h.5c.2.1.3.2.3.1l.2-.2h1.1s.1-.1-.2-.2h-.5c0,.1-.1,0,0-.1l.4-.2c.2,0,.2,0,.2-.2s-.1-.2,0-.2.3-.1.4,0h.3l.5-.2h.2c.1,0,0,.2.2.2H46c0-.1.1-.1.1-.2s.2-.3.3-.3l.3-.2.4-.2.4-.3Z"/><path class="fd936d1f-bdb8-4baf-bd07-dc026984a0e3" d="M46.6,99.9c-.2,0-.3-.1-.4.1h.4c0,.1,0,.3.1.3h.1a.4.4,0,0,0-.1-.3C46.7,100,46.7,99.9,46.6,99.9Z"/><path class="fd936d1f-bdb8-4baf-bd07-dc026984a0e3" d="M47.4,100.8c-.1,0-.1-.2-.2-.2a.1.1,0,0,0,0,.2c0,.1.1.1.1.2s-.1.3,0,.2.1-.1.1-.2S47.5,100.9,47.4,100.8Z"/><path class="fd936d1f-bdb8-4baf-bd07-dc026984a0e3" d="M46.8,101.7H47c0-.1-.2-.1-.2-.1S46.7,101.6,46.8,101.7Z"/><path class="fd936d1f-bdb8-4baf-bd07-dc026984a0e3" d="M47.4,101.9h.2c.2.2.1.3.2.2s.1-.1,0-.2,0-.2-.1-.2-.2-.2-.2-.1S47.3,101.9,47.4,101.9Z"/><path class="fd936d1f-bdb8-4baf-bd07-dc026984a0e3" d="M49,103.9c-.1,0-.1.1-.1.2h.6V104C49.6,103.9,49.1,103.9,49,103.9Z"/><path class="fd936d1f-bdb8-4baf-bd07-dc026984a0e3" d="M49.8,102.9s.2,0,.1-.1h-.3c-.1.1-.1.1,0,.2Z"/><path class="fd936d1f-bdb8-4baf-bd07-dc026984a0e3" d="M57.6,77.5l-.3.3c.1.1,0,.2.2.3s.3.3.4.2-.1-.3-.1-.4-.2-.1-.1-.2A.3.3,0,0,0,57.6,77.5Z"/><path class="fd936d1f-bdb8-4baf-bd07-dc026984a0e3" d="M59.1,78.1a3.1,3.1,0,0,1-1,0s-.2.1,0,.3H59l.2-.2c.1-.2.2-.2.1-.3Z"/><path class="fd936d1f-bdb8-4baf-bd07-dc026984a0e3" d="M61,78c.2-.3,0-.1-.1-.4s-.2,0-.3.1a2,2,0,0,0-.6.7h0l.3.2h.2C60.8,78.5,61,78.3,61,78Z"/><path class="fd936d1f-bdb8-4baf-bd07-dc026984a0e3" d="M61,79l.4-.2c.1-.1,0-.1,0-.4s-.2,0-.5,0-.1.3-.2.4,0,.1,0,.2Z"/><path class="fd936d1f-bdb8-4baf-bd07-dc026984a0e3" d="M46.5,49.4c-.2.1-.4.1-.5.3s-.3.3-.2.7-.2.4.2.5h.9a1,1,0,0,0,.6-.5.9.9,0,0,0,.1-.7c0-.1-.1-.2-.1-.3Z"/><path class="fd936d1f-bdb8-4baf-bd07-dc026984a0e3" d="M44.3,48.5c.2-.1.3-.3.5-.5s.2-.2,0-.2-.2-.2-.3,0l-.7.6c0,.1,0,.2.2.2Z"/><path class="fd936d1f-bdb8-4baf-bd07-dc026984a0e3" d="M44.7,47.5l.4-.2c.1-.2-.1-.2-.3-.3s-.4.3-.4.4A.2.2,0,0,0,44.7,47.5Z"/><path class="fd936d1f-bdb8-4baf-bd07-dc026984a0e3" d="M46.2,47.8c-.1-.2-.3-.2-.5-.2s-.2.3-.1.4a.3.3,0,0,0,.4,0C46.1,48.1,46.4,48,46.2,47.8Z"/><path class="fd936d1f-bdb8-4baf-bd07-dc026984a0e3" d="M47.6,49.1c.1,0,.1-.2.1-.3s-.2,0-.2.1S47.6,49.2,47.6,49.1Z"/><path class="fd936d1f-bdb8-4baf-bd07-dc026984a0e3" d="M48.4,50.3H49c.2,0,.2.1.2,0s.1-.3-.1-.3l-.6-.2H48C48.1,50,48.1,50.2,48.4,50.3Z"/><path class="fd936d1f-bdb8-4baf-bd07-dc026984a0e3" d="M43.2,47.5l.5-.2c.1-.1.3-.1,0-.2s-.3-.2-.5-.1h-.3c-.2-.1-.2,0-.1.1S43,47.6,43.2,47.5Z"/><path class="fd936d1f-bdb8-4baf-bd07-dc026984a0e3" d="M37.1,49.4c-.1.2-.3.4-.2.6s0,.2.2.2.2-.1.3-.2a.3.3,0,0,0,0-.4C37.4,49.5,37.3,49.3,37.1,49.4Z"/><path class="fd936d1f-bdb8-4baf-bd07-dc026984a0e3" d="M37.4,46.7c-.1-.2-.3-.2-.5-.2s-.3,0-.2.1h.4C37.4,46.8,37.6,46.9,37.4,46.7Z"/><path class="fd936d1f-bdb8-4baf-bd07-dc026984a0e3" d="M41.2,57.3l-.7.2h-.4c-.1.2-.3.3-.3.4s0,.2.3.4.2.1.5,0,.4-.3.6-.5.6-.1.3-.4S41.4,57.2,41.2,57.3Z"/><path class="fd936d1f-bdb8-4baf-bd07-dc026984a0e3" d="M43.2,59.1c.2.2.2.4.3.1l.3-.6c0-.2.2-.3,0-.4s-.3-.1-.6,0-.2.2-.2.4Z"/><path class="fd936d1f-bdb8-4baf-bd07-dc026984a0e3" d="M44.8,56.9h.4c.2.1.2.2.2,0a.2.2,0,0,0,0-.3c-.1-.1-.2-.2-.3-.1h-.3C44.6,56.7,44.5,56.9,44.8,56.9Z"/><path class="fd936d1f-bdb8-4baf-bd07-dc026984a0e3" d="M45.9,56.2c-.1.1-.2.1-.2.2s.3.4.4.3.3,0,.2-.2Z"/><path class="fd936d1f-bdb8-4baf-bd07-dc026984a0e3" d="M90,45.8h0V24.1H87.9c-.2,0-.3.1-.3,0h-.7a.1.1,0,0,1-.1.1h-.5s-.1,0-.1-.2.1,0,.1,0h.8c.1-.1.3,0,.4,0h1.2c.1-.1.1,0,.2,0H90V21.8h0v-.9h-.7a.2.2,0,0,0-.3,0H88c-.1-.1-.2-.1-.2-.2H85.4c-.1,0,0,.1,0,.2a.3.3,0,0,0-.1.2c-.1,0-.2,0-.2-.1v-.2H83.5a.2.2,0,0,0-.3,0h-.4l-.2.2c-.1,0,0-.1-.1-.1h-.3l-.5.2h-.9c0,.1,0,.2.1.2s.1.1.2.1h.5c-.1,0-.1,0-.1.1h-.4a.1.1,0,0,1-.1.1s-.3,0-.3.1,0,0,0,.1h.2v.2l-.4-.2a.1.1,0,0,1-.1-.1h-.2c0-.1,0-.1.1-.2s.1-.1.1-.2h-.7c.1,0,0,.1.1.1l-.2.2s0,.1-.2,0h-1a.1.1,0,0,0-.1-.1H78l-.7-.2H74.9a.1.1,0,0,0,.1.1s0,.3-.1.2,0,0-.1,0-.1-.1-.2-.1h-.7c-.1,0-.1,0-.1.1s-.1.1,0,.2,0,.1.1.1.2.1.2.1h1.4c.1,0,0,.1,0,.1h.1c.1,0,.1.1.1.2h.1c-.2,0-.1,0-.2-.1s-.1-.1-.2-.1h-1c-.1-.1-.1,0-.1-.1H73.1a.3.3,0,0,1,.1.2h.6c.1.1.1,0,.1,0l.2.2h.5a.1.1,0,0,1,.1.1h.1l.2.2h.2c.1,0,.1.2.1.2H75a.1.1,0,0,0-.1-.1H72.7l-.5-.2h-.3c0-.1-.1,0-.2,0h-.1c-.1,0,0,0-.1-.1h0c-.1-.1-.1,0-.1,0H70a.3.3,0,0,0-.1.2h0v.2c.1.1.1.1.1.2h.3v.2h-.5a.1.1,0,1,1-.2,0h0c0-.1-.1-.1-.1-.2h-.1c-.1-.2-.1-.1-.1-.1h-.6l-.6-.2h-.5c-.1,0,0,.1.1.1v.2a.3.3,0,0,1,.1.2v.3h-.3c-.1,0-.1,0-.1.1s-.1.1-.1.2h-.2s-.1-.1,0-.1-.1-.2,0-.3a.1.1,0,0,1,.1-.1V24c0-.1-.3-.1-.3-.2h0c0-.1-.4-.1-.4-.2s-.2,0-.2-.1h-.1c0,.1-.1.1-.2.1h-.3l-.2.2h-.4v.2h-.2c-.1-.2-.1,0-.1,0h-.4v-.2h-.4c0-.1-.1,0-.2,0s-.3.1-.3,0h-.5c-.1,0-.2.1-.2,0h-.2a.2.2,0,0,0-.2.2H63l.3.3c.2.1.2,0,.3,0s.1.1.1,0h.8s.2.1.2.2h-.1l-.2-.2h-.2c0-.1,0-.1-.1-.2l-.5-.2h-.5l-.4-.2a.4.4,0,0,0-.1-.3c0-.2,0,0-.1,0h-.4c-.1-.1-.1,0-.2,0H60.7l-.3.2V25s.1-.1.1,0h.3c.1.1,0,.1,0,.1l-.2.2h-.2v.2h.2v.2H60c-.1,0-.1-.1-.1-.2h-.7s-.2.1-.3,0-.1.1-.2,0-.1.1-.1.2h.1v.3h-.2l-.3-.2h-.6l-.4.2h-.4v.2H55.6l-.3.2h-.2v.2h1.6c0-.1.1,0,.1,0h.7a.1.1,0,0,0,.1-.1h.2c0-.1,0-.1.1-.1h-.6a.1.1,0,0,1-.1.1v.2c.1,0,0,.1.1.1a.5.5,0,0,1-.2.4v.2a.1.1,0,0,0,.1.1h-.3a.1.1,0,0,1-.1.1h-.6a.1.1,0,0,0-.1.1H56s0,.1-.1,0h-.5a.1.1,0,0,0-.1.1H53.6l-.2.2h-3v.2l-.3.2h.6c0,.1.1.1.2.1H52V33h.6v.2h.5l.2-.2H55c0-.1,0,0,.1-.1s.1-.1.2-.2h.6a.2.2,0,0,1,.2.2h-.2c0-.1-.1,0-.1,0h-.7a.1.1,0,0,0-.1.1H52.4a.1.1,0,0,0,.1-.1H54s-.2,0-.2-.1h-.1a.1.1,0,0,0-.1.1c-.1.1,0,0-.1,0h-.2s0,.2.1.2h1.9v-.2h0c0-.1.1,0,.1,0h.3a.1.1,0,0,0,.1.1h.1a.3.3,0,0,0,.1-.2H56c0-.1.1,0,.2,0h.1s0,.2.1.2h.5c.1,0,.2.3.2.3h.7v.2h.3a.1.1,0,0,1,.1-.1c0-.1,0,0,.1-.1h.2v-.2h1.3a.2.2,0,0,0,.3,0h.5c.1,0,.1.1.2,0h.4s.2.1.2,0h1.1c0-.1.1,0,.2,0h.1c.1,0,0,.1,0,.1a.1.1,0,0,0,.1.1c.1,0,.1.3.1.3h.1v.2l.2.2H64a.1.1,0,0,0,.1.1c.2,0,.1.1.2.1s0,.1,0,.2a.1.1,0,0,0,.1.1c0,.1,0,.1.1.1h.4v.2a.1.1,0,0,0-.1.1v.2c0,.1,0,.2.1.2s0,.2.1.2a.3.3,0,0,0,.1.2.1.1,0,0,1,.1.1h0v.4h0a.1.1,0,0,0,.1.1h.3v.2h-.1c0,.2,0,.3-.1.4h.8v.2h0v.2h.2c.2,0,0,.2,0,.2a.1.1,0,0,0-.2,0c0,.1,0,.2-.1.2h-.2l-.2.2h.3a.3.3,0,0,0,.1-.2h.1c.1,0,0,.1,0,.1h-1v.2h1.4a.1.1,0,0,0,.1-.1h.2c0-.1,0-.2.1-.2h.3v-.3h-.2v-.4c.1,0,0,.2,0,.2a.4.4,0,0,1,.1.3h.2v.2h.1l.2-.2H68v.2c-.1,0-.1,0-.1.1h.6c.1,0,0,.1,0,.1h.7l.2.2h0v.2a.1.1,0,0,0,.1.1h.2v.2h0v.2h-1l-.3-.2h-.9c-.1,0-.1.1-.1,0h.5a.1.1,0,0,1,.1.1c.1,0,0,.1,0,.1h2.3V47h-.3c.1,0,.1,0,.1.1H70a.1.1,0,0,1-.1.1H70c.1,0,.1.2.1.2s0,.2.1.2l.2-.2v.4c0,.1-.1.1-.2,0h-.3c-.1,0-.1,0-.1.1v.2h-.1V49a.1.1,0,0,0,.1.1h.1c.1,0,0,.1,0,.1h.2c.1,0,0,.1,0,0s.1.1.1,0h.2s0,.1.1,0h-.2a.1.1,0,0,1,.2,0h-.2a.2.2,0,0,1-.3,0h-.7c-.1,0-.1.1-.1,0H67.8c0,.1,0,.1-.1.1h0l-.4.3c-.2.1,0,0,0,.1h2.3l-.3-.2c-.2-.1,0,0,0-.1a.1.1,0,0,1-.2,0h-.8s-.2.1-.3,0h-.5v.2h0a.1.1,0,0,1,.1.1h1c.1-.1,0,.1,0,.1l-.2.2c-.1,0-.1.1-.2,0h-.5c0,.1-.1.1-.1.2V52c0,.1,0,.1.1.1h.1c0-.1.1,0,.1,0l.5-.2h.2l.4-.3h.5l-.4.2-.3.2h-.1l-.3.2H68v.2h.5a.1.1,0,0,0,.1.1h.3l.3-.2h-.1a.1.1,0,0,1-.1.1c0,.1-.1.1-.2.2h0v.8h.1a.1.1,0,0,1,.1-.1c.2-.1.1,0,.3,0h-.4a.3.3,0,0,0,.1.2h.2c.1-.1.1-.1.1-.2h.1c0-.1.1,0,.1-.1v-.2h.4v-.6H70l.2.3h.6v.4h-.3v.2h-.4v.2h-.2v.2c0,.1,0,.1.1.1a.1.1,0,0,0,.1-.1h.2a.1.1,0,0,1,.1.1h.1v.2h.5c.1.1.2.1.2,0h.2v.2a.1.1,0,0,0-.1.1h.1a.1.1,0,0,1-.1.1h.7c.2-.1,0,0,0,.1h.1a.1.1,0,0,1,.1.1h-.1c-.1,0,0,0,0,.1h.3c.1,0,.1,0,.1.1h.3v.4h.1c.2.1.1,0,.2,0s.1,0,.1-.1l.2-.2h.2v.2c0,.1.2,0,.2,0h.3a.1.1,0,0,1,.1-.1c.1,0,.3,0,.3-.1s0-.1.1-.3.1,0,.1.1h.2l.2-.2v.4h-.2v.2c0,.1.2.2.2.1h.3v.2c.1.1.2,0,.3,0s0,.1,0,.1v.3h.1l.3-.2c.2,0,.1.1.1.1h.3v.2s.2,0,.1-.1,0-.1.1-.1a.1.1,0,0,1,.2,0c.1-.1.1-.2.2-.2s-.1-.1-.2-.2h-.2c-.1-.2,0,0,.2-.1s.2.1.3,0,0,0,0-.2,0,0,.2-.1h.1c.1-.1,0-.1,0-.3s0-.2,0-.3h.2s.1,0,0-.1-.1-.1-.1-.2.1-.1.1-.1a.1.1,0,0,0,.1-.1.4.4,0,0,0,.1-.3v-.3h0c.1,0,.1-.1,0-.2s-.1-.1-.1-.2h-.5c0-.1,0,0,.2-.2h.2a.1.1,0,0,1,.1.1h.3a.3.3,0,0,0,.3-.3c.1-.2,0-.1,0-.2a.1.1,0,0,0,.1-.1h.2c0-.1.2-.1.2-.2s0,0,0-.1-.2-.1-.2-.1v-.2c0-.1.2.1.3,0s.1.1.2.1h0a.8.8,0,0,0,.2-.4v-.2a.1.1,0,0,1-.1-.1c-.1-.1-.5,0-.5,0h-.1l.3-.2H79c.1,0,.2.1.3,0a.2.2,0,0,0,.2-.2c0-.1-.1,0-.1-.2s0-.1-.1-.2-.2,0-.3,0h-.2v-.3h.7c.1-.1.2,0,.3-.2h0c.1-.2.2,0,.2-.1s0,0,0-.1,0,0-.1,0h-.2v-.2c.2-.2.2-.1.2-.1h1.1l.2-.3c0-.2,0,0,.1-.1s.1.1.1,0a.3.3,0,0,1,.1-.2c-.1-.1-.1-.1,0-.2a.1.1,0,0,1,.1-.1H82c-.1.1-.1.2-.2.2h0a.3.3,0,0,1-.1.2c0,.1-.1.1-.2.2a.5.5,0,0,0,.1.3h.3v-.4c0-.1.1.2.1.2h.2c0-.1.1-.1.2-.1s.1.2.2.2,0-.1,0-.2h0c0-.1.1-.1.2-.1h0l.3.2c.1,0,0-.1,0-.2s.1,0,.2,0a.1.1,0,0,1,.1-.1s0-.2.1-.2h.2c.1.1.1.1.2,0h.5v-.6s.1.2.2.2.1-.1.1-.2l.2-.2h0v-.2a.2.2,0,0,0,.2-.2c.1,0,.1-.1,0-.2s.1-.2.1-.3h.2c.1-.1.2-.1.2-.2h.3c0-.1.2-.1.2-.2h.3l.2-.2c.1-.1-.2-.1-.2-.2s-.1-.2-.1-.2,0-.1-.1-.2.1-.1.1,0l.3.2h.3l.3.3h.4c.1,0,.1-.1.1-.2s.1,0,.1,0h.6s.1,0,0-.1h0c0-.1.2.1.3.2H89l.3-.3c.1-.1.3.1.4,0h.1Z"/><path class="fd936d1f-bdb8-4baf-bd07-dc026984a0e3" d="M68.2,46.7a.8.8,0,0,0-.4-.4l-.4-.2a2.1,2.1,0,0,0-1.1,0c-.2.1-.1.5,0,.5s.4,0,.4.1-.5,0-.5.2.1.4.3.4.5-.1.6,0-.4.1-.2.3.5.1.6.1l.9-.2h.4a.3.3,0,0,0,.2-.5C68.9,46.8,68.3,46.9,68.2,46.7Z"/><path class="fd936d1f-bdb8-4baf-bd07-dc026984a0e3" d="M69.4,49.1c0-.2,0-.2-.2-.2s-.3,0-.3-.1-.4-.3-.7-.1,0,0,.1.2.1.1-.1.2-.6,0-.5.1l.5.2c.2.1,0,.2-.1.2l-.5.2c0,.1-.3,0-.3.2s-.3.4,0,.4l.7-.3h.9s.2.3.4.2l.4-.2c0-.1.1-.1,0-.2h-.4C69.4,49.4,69.4,49.4,69.4,49.1Z"/><path class="fd936d1f-bdb8-4baf-bd07-dc026984a0e3" d="M65.4,41.9c-.1,0-.3.1-.2.2s.2,0,.4.1.5,0,.4-.1S65.5,41.9,65.4,41.9Z"/><path class="fd936d1f-bdb8-4baf-bd07-dc026984a0e3" d="M66.1,43.1l.3-.5c0-.1.1-.3,0-.2s-.4-.1-.6.1-.2.1,0,.1.3,0,.2.1-.4-.1-.4.1-.2.3,0,.3.4-.2.3,0S66,43.2,66.1,43.1Z"/><path class="fd936d1f-bdb8-4baf-bd07-dc026984a0e3" d="M67.3,44.5c0,.1-.2.1-.1.2s-.1.2.1.2.3,0,.3-.2S67.4,44.3,67.3,44.5Z"/><path class="fd936d1f-bdb8-4baf-bd07-dc026984a0e3" d="M68.7,44.2h-.5c-.1,0,.1.1.2.2s0,.2.2.3.2-.1.2-.2S68.9,44.3,68.7,44.2Z"/><path class="fd936d1f-bdb8-4baf-bd07-dc026984a0e3" d="M69.1,45.2c.3,0,.5.1.3-.1s-.2-.2-.3-.2h-.3C68.7,45.2,68.9,45.2,69.1,45.2Z"/><path class="fd936d1f-bdb8-4baf-bd07-dc026984a0e3" d="M42.2,128.4l.2.2h.1c.1.2.1.1.1.3h-.2l.2.3h.5c.1,0,.2,0,.2.1l.2.2.2.2c-.1.1-.1.1,0,.2s0,.2.1.2v.3c.1.1.1.2.2.4h.1v.2c0,.1.1.1.1.2h.3c0,.1.1,0,.1.2s.1.2.1.3.1.1.1.4.2.3.2.5v.2l.3.4.2.2a.4.4,0,0,0,.1.3l.2.3v.2c.1.2,0,.2.1.3l.3.3a.4.4,0,0,0,.1.3c0,.1.1,0,.1.2v.7l.4.2v.3h.2c.1.2.3.1.3.2a.2.2,0,0,1,.2.2l.2.2.4.2.7.5h.3c.1.1.2-.1.3,0l.3.2h.5a.3.3,0,0,1,.3.3c.2.1.2.2.3.4l.4.4c.2.2,0-.2.2.2h.1l.2.2v.4c0,.1.1.4.1.5v.2a.2.2,0,0,1,0,.3v.6c.1.1.1-.1.2.2v.5c-.1.1-.1.2-.2.4a.9.9,0,0,0-.1.5c0,.2.2-.2,0,.3s-.1.4-.1.6v.5a9.9,9.9,0,0,1-.2,1.7c-.1.2-.2.2-.2.4s.2.2.1.4,0,.2-.1.4a.4.4,0,0,1-.1.3v.5a1.4,1.4,0,0,0-.2.6c-.1.4.1.2-.1.4h0c-.1.4-.1.4,0,.6s.1.1.1.3-.2.3-.2.5v.3c0,.5-.2.7-.1,1v.5c0,.2.1.2.1.4v.4l-.2.3c0,.2,0,.3-.1.4s0,0,0,.2-.2.2-.3.5-.1.1-.1.3.1.1.1.3-.1.2-.2.4l-.3.6c-.1.1,0,.2-.1.4s0,.3-.1.4l-.2.2a.5.5,0,0,1-.2.4c-.3.4-.2.4-.2.7a.3.3,0,0,0,0,.4c0,.3-.1.1,0,.3a.8.8,0,0,1,.2.4v.9c-.1.2-.1,0-.1.2h0v.4c-.1.2-.2.3-.2.4s-.1,0-.1.2,0,.2,0,.4l.2.2h.2c.3.1.3.1.4,0h.3c.1.1.2.1.1.2s-.3,0-.2.2v.2a16.2,16.2,0,0,1,4.6,3.1l.6.5h.3s-.1.1.2,0,.6-.5.6-.4.2.3.4,0,.1-.5.2-.8l-.2-.2.2-.2s.1-.5.2-.5l.3-.3-.3-.4c.1-.1.1-.2.2-.1s.1-.1.2,0,.1.4.3.4.1.5.3-.1.3-.7.1-.7-.4-.3-.5-.1l-.3.3-.4-.2v-.3a.8.8,0,0,0,.1-.4v-.3c0-.1-.2-.3-.1-.4h.9c-.1.2,0,.3.2.3h.8l.3-.2c.1-.1.6-.1.3-.3s-.4-.1-.3-.2.1-.2.2-.3.2-.4.2-.6.1-.1,0-.3-.3-.4-.2-.4.4-.1.6,0h1l1.5-.4h.3s.2-.1.2,0,.2-.2.2-.2.2-.1.3-.1v-.2l.3-.2.2-.4.2-.2v-.4c0-.3.1-.2,0-.4s0-.3-.2-.3l-.2-.3h0c0-.3.1-.3.1-.4s0-.4,0-.4,0-.3-.2-.3l-.8-.2-.2-.2c0-.1-.1-.2,0-.3s.1,0,.1-.3.1-.5.1-.5-.2-.1-.1-.3-.1-.1.1-.2.1-.1.1-.3v-.4h0c0,.2.1.4.1.6s-.1.2-.1.4v.6c-.1.3-.2.3-.1.4a.5.5,0,0,0,.3.3h.7l.3.3h2.3l.2-.3c.1,0,.2,0,.3-.2a1.5,1.5,0,0,0,.3-.5c.1-.1.2-.2.2-.3l.3-.4.4-.2a.8.8,0,0,0,.1-.4.6.6,0,0,1,.1-.4c0-.1,0-.1.1-.2s.2.2.2-.1l.4-.2.3-.3.3-.2.3-.2c0-.1.2-.3.2-.4s0-.3.1-.4.1,0,.1-.2,0-.4.2-.5.1-.4.5-.6l.5-.8V150a.6.6,0,0,0,.1-.4c0-.1.2-.4.1-.5s0-.4,0-.4v-.3c-.1-.1,0-.1-.1-.2s-.2-.2-.1-.3.3,0,.2-.2-.3-.4-.1-.4h.6l.3-.2a2,2,0,0,1,.7-.6l.2-.3h1.4s-.5-.1-.3-.2.3,0,.5-.2.3,0,.3-.2,0-.4.1-.2.1,0,.2.1h.7c0,.1.1-.1.2,0a.2.2,0,0,0,.3,0c.2-.1.2-.2.3-.1h.2c.1.1.2,0,.3-.1s.1-.3.1-.4l.4-.2c.4-.3.4-.4.4-.5s-.1-.4,0-.5l.4-.4.3-.5.2-.4c.1-.1.1.4.2-.3s.1-.6,0-.8v-.2c.1-.2,0-.2.2-.3l.2-.2.2-.4c0-.1.1-.4,0-.5a.3.3,0,0,1,0-.4v-.4c0-.2-.2-.4-.2-.6s.2-.5.1-.6.1-.2,0-.4v-.7c0-.2-.3-.3-.1-.4h.2c.3-.1.4,0,.2-.1h.2c.1.1,0,.2.1,0l.4-.3a.5.5,0,0,1,.2-.4c0-.1.1-.1.1-.2v-.2c0-.1,0-.3.1-.3l.2-.2a3.9,3.9,0,0,1,1-.8l.3-.3c.1-.1.1-.3.2-.4s.2-.2.3-.2,0-.3.1-.4a.4.4,0,0,0,.1-.3v-.7c0-.1-.1-.3,0-.4s.1-.2.1-.4v-.3h0v-.2c-.4-.7-.3-.8-.5-.8H82.1c-.2-.2-.3-.2-.3-.4a1.1,1.1,0,0,0-.2-.5h-.4l-.3-.2-.3-.3-.3-.2-.4-.2h-.4l-.3-.2H77.7l-.4-.2H77c-.1,0,0-.2-.3-.2s-.1-.2-.3-.1l-.2.2h-.4c-.2,0-.1-.1-.2,0s0,.2-.2.2-.2,0-.1-.2.1-.2.1-.3-.1-.3-.2-.4l-.3-.2h-.4c0-.1-.1,0-.2-.1h-.6c-.1,0-.2-.2-.3-.1s-.1-.2-.2-.2-.1-.2-.2-.1h-.4c-.1.1-.3-.1-.4,0s-.1,0-.2.2a.8.8,0,0,1-.2.4l-.4.3c-.2.2-.1,0-.2.2l-.2.2h-.1s0-.4-.1-.3h-.4l-.3-.2c-.1,0-.1,0-.2-.2H71l.5-.2a.1.1,0,0,0,.1-.1.4.4,0,0,1,.1-.3v-.4c0-.1.1-.2,0-.2h-.6c-.1,0-.1-.1-.3,0s-.1,0-.4-.1-.1-.2-.3,0l-.4.3c0,.1.1,0,.1.3s0,.4-.1.4-.2-.1-.1-.2l-.2-.2c-.1-.3-.2-.3-.1-.4v-.3c.1-.1-.1,0,.2-.2l.5-.2c.1-.1.2-.1.2-.2s0-.2.1-.3.1.3.1-.2a.2.2,0,0,1,0-.3v-.2l-.3-.2c-.1,0-.2-.2-.3-.1s-.1-.2-.1-.3v-.3c0-.1.1-.2-.1-.3s0-.3-.1-.4.1-.1-.1-.4a.5.5,0,0,0,0-.5h-.3l-.3-.3-.5-.4a.5.5,0,0,1-.4-.2c-.2,0-.2-.2-.3-.2s-.1-.1-.3-.1,0-.1-.2-.1-.1-.2-.2-.1h-.6c-.1.1-.2-.1-.3-.1h-.7l-.2.2c-.1,0,0-.2-.3-.1s-.2,0-.3.1-.1,0-.1,0h-.1l-.3-.4-.6-.4h-.5c-.1-.1,0-.1,0-.3s-.2-.2-.2-.3,0-.2-.2-.2l-.3-.2c0-.1-.1-.2-.3-.2h-.3a.3.3,0,0,0-.1-.2l-.4-.2h-.4c-.3.2-.4.2-.4.1l.2-.3.2-.3-.3-.3c-.1,0-.1-.1-.3,0s-.2,0-.2-.1v-.2l-.3.2c-.1.1-.3,0-.3,0v-.3s-.3.2-.3,0,0-.2,0-.3-.4.2,0-.1l.4-.2H58.1c-.2.1-.2-.2-.5.1l-.3.3H56.2c-.2-.1-.1-.3-.3-.2h-.4c-.2,0,.2-.2-.3,0s-.4.3-.7.1h-.3c-.1-.2-.1-.3-.2-.4s0-.2-.1-.2H53c-.1-.1,0-.2-.1-.3s0-.3-.2-.3-.2-.3-.3,0l-.3.5c0,.1.2,0,0,.2s-.4.1-.6.2-.3.1-.3.3-.1.1,0,.2.3.2.3.5.1,0,.1.4.2.3,0,.5-.3,0-.4,0l-.4-.6c0-.1-.2,0,.1-.4a1.2,1.2,0,0,0,.1-1c0-.1-.2,0-.2-.2h0c0-.1,0-.2.2-.2h.4c.1,0,.3-.2.2-.3h.2c.1,0,0,0,0-.2s0-.2-.2-.2h-.4a1.2,1.2,0,0,0-.8.4c0,.1,0,.2-.2.3l-.3.2-.2.2h-.2c-.3-.1-.3-.2-.4-.1s.1-.4-.2,0-.1.3-.4.3h-.6c-.1,0-.1.2-.3.3s0,0,0,.3,0,.6-.1.7h-.2c-.2,0-.2-.1-.3.1a1,1,0,0,1-.4.5c-.1.1-.1,0-.2.2s0,.1-.1.3m0,0a.7.7,0,0,1-.5.4c0,.2-.1.3-.3.4l.2.2h0v.2l.2.2c0,.1.1.1,0,.2v.6c0,.1-.1.2-.1.3v.2c.1.2.1.2.1.3v.6a.6.6,0,0,0,.1.4s.1,0,0,.1l-.2.3h-.2c0,.1,0,.2-.1.2v.2h-.1c-.1,0,.1,0,0,.1h-.5c-.1,0-.2,0-.2.2v.3c0,.1,0,.1-.1.1h0v.2h0a.3.3,0,0,1,.1.2h-.4l-.2.2h-.1c-.1.1-.2,0-.3,0h-.1c-.1,0-.1,0-.1.2v.2c.1.1,0,.1.1.2s0,0,0,.1,0,0-.1.1l-.2.2c-.1.1,0,.1,0,.2h0v.4l-.2.3c-.1.1-.1,0-.1.2s.1.1,0,.2h0c0,.1,0,.1.1.2s.2.1.2.2h.1s.2.1.2,0a.3.3,0,0,0,.1-.2l.2-.3a4.3,4.3,0,0,1-.1.5s.1,0,0,.2l-.3.3H43c-.1.2,0,0-.1.1s-.3.2-.3.3-.1.2-.1.4v.4c0,.1-.3.1-.2.2Z"/><path class="fd936d1f-bdb8-4baf-bd07-dc026984a0e3" d="M59.9,109.2h.2c0-.1.1-.2.1-.3H60A.6.6,0,0,1,59.9,109.2Z"/><path class="fd936d1f-bdb8-4baf-bd07-dc026984a0e3" d="M60.2,109.6h-.1v.3h.1c.1,0,.1,0,.1-.1S60.3,109.6,60.2,109.6Z"/><path class="fd936d1f-bdb8-4baf-bd07-dc026984a0e3" d="M60.6,110.3h-.3c0,.2,0,.3.1.4h.3C60.7,110.5,60.7,110.4,60.6,110.3Z"/><path class="fd936d1f-bdb8-4baf-bd07-dc026984a0e3" d="M60.5,111c-.1,0-.2.4,0,.4S60.9,110.9,60.5,111Z"/><path class="fd936d1f-bdb8-4baf-bd07-dc026984a0e3" d="M60.4,111.8s0-.2-.1-.1S60.4,111.9,60.4,111.8Z"/><path class="fd936d1f-bdb8-4baf-bd07-dc026984a0e3" d="M59.9,112.9c.1,0,.2-.1,0-.2S59.8,112.9,59.9,112.9Z"/><path class="fd936d1f-bdb8-4baf-bd07-dc026984a0e3" d="M33.5,124.2v-.3l-.3-.2h-.1c-.1,0-.3.3-.2.3h.2v.2c0,.1-.2,0-.2.2a.2.2,0,0,0,.2.2h.4c.1-.1.2-.2.1-.2Z"/><path class="fd936d1f-bdb8-4baf-bd07-dc026984a0e3" d="M33.7,124c0,.1,0,.2.1.1Z"/><path class="fd936d1f-bdb8-4baf-bd07-dc026984a0e3" d="M34,124.2h-.1v.3h.2c.1-.1.2-.2.1-.3Z"/><path class="fd936d1f-bdb8-4baf-bd07-dc026984a0e3" d="M34.8,124.5c-.1,0-.1.1,0,.2H35Z"/><path class="fd936d1f-bdb8-4baf-bd07-dc026984a0e3" d="M57,107.6c-.1.1-.2.1-.1.2h.3a.1.1,0,0,0,0-.2Z"/><path class="fd936d1f-bdb8-4baf-bd07-dc026984a0e3" d="M58.6,107.2s-.1.2,0,.2a.1.1,0,0,0,.1-.1h0S58.6,107.1,58.6,107.2Z"/><path class="fd936d1f-bdb8-4baf-bd07-dc026984a0e3" d="M58.8,107.9c-.1,0,0,.2,0,.2H59C59.1,108.1,59,107.8,58.8,107.9Z"/><path class="fd936d1f-bdb8-4baf-bd07-dc026984a0e3" d="M59.9,114.7h.3c.2,0,.3.1.3-.2s0-.6-.2-.5a.5.5,0,0,0-.3.5C59.9,114.6,59.8,114.7,59.9,114.7Z"/><path class="eaa74734-e4f7-4ab6-94c3-0e0e79d39bf5" d="M67.6,88.9v19.4h0v40.5a63.5,63.5,0,0,1,0-119.7V7.9A83.7,83.7,0,0,0,88.1,172.6V88.9Z"/><path class="eaa74734-e4f7-4ab6-94c3-0e0e79d39bf5" d="M11.8,56.6A84.3,84.3,0,0,0,7,72.1s18.2.1,20.5,0h0V71a1.1,1.1,0,0,1,.1-.5.3.3,0,0,0,.1-.2H28v0h0c0-.2.1-.3.1-.5l.2-.3h.1c.4-1.3,1.4-3.7,1.9-4.8A62.7,62.7,0,0,1,88.4,25.6V5.2A82.9,82.9,0,0,0,11.8,56.6Z"/><rect class="eaa74734-e4f7-4ab6-94c3-0e0e79d39bf5" x="79.6" y="5.8" width="10.4" height="19.77"/><rect class="eaa74734-e4f7-4ab6-94c3-0e0e79d39bf5" x="64.9" y="87.7" width="26.6" height="67.89"/><path class="fc6fa283-f375-4b79-8d71-94f3f67afd16" d="M67.5,89.6v20.7h0v43.3a67.8,67.8,0,0,1,0-128.1V2.8A89.5,89.5,0,0,0,89.6,179.1V89.6Z"/><path class="e323ca84-465d-4d75-8fbe-2c20d39b5c73" d="M7.3,54.9A87.4,87.4,0,0,0,2.1,71.6s19.6.2,22.1,0V70.5a1.3,1.3,0,0,1,.1-.6l.2-.2.4-.3,2.5-6.1A67.5,67.5,0,0,1,90,21.8V0A89.5,89.5,0,0,0,7.3,54.9Z"/><path class="fc611d5a-ba0a-4b32-9632-cada7e5c5303" d="M116.6,18.8v91.5h0v43.3a67.7,67.7,0,0,0,0-128.1V2.8A89.5,89.5,0,0,1,94.5,179.1V8.4Z"/><path class="a5085869-30e0-41e6-b5e3-db8f7a149d1b" d="M176.9,54.9A89.7,89.7,0,0,0,94.5,0V21.8a67.8,67.8,0,0,1,62.3,41.5,62.3,62.3,0,0,1,2.8,8.3H182A97.5,97.5,0,0,0,176.9,54.9Z"/><path class="eaa74734-e4f7-4ab6-94c3-0e0e79d39bf5" d="M182.4,70c-.6-2.6-1.5-5.1-2-7.7H155.7c-.8,0,0,1.7,0,1.7s.1.3.2.5c2.3,5.8,4.5,11.6,4.9,17.8v1.3c.6,5.2.1,16.8-.5,16.5s-.7,3.5-1.2,5.2l-.6,2.4s-1.3,5.7-2.9,8v.2h25.1c.3-2.9,1.5-5.8,2.1-8.5s.6-5.5,1.4-8l.2-.5a138.2,138.2,0,0,0,0-18.2C183.7,77.2,183.1,73.6,182.4,70Z"/><path class="fb414d23-a10d-4f51-9558-12559999df46" d="M128.2,48.2v53.9h0v25.5c10.7-5.4,18.3-20.2,18.3-37.7s-7.7-32.4-18.4-37.8V38.7c15.6,5.8,27.1,26.5,27.1,51.2s-11.5,45.3-27.1,51.1a24.1,24.1,0,0,1-8.8,1.6V42Z"/><path class="b82f4783-6ebb-48a2-8cc3-01f2a52bdc3a" d="M152.4,69.5c-5.9-21.9-21-34.7-33.1-38.9V49.9c10.6.1,20.7,9.3,25,24.5a38.8,38.8,0,0,1,1.1,4.9h9A63,63,0,0,0,152.4,69.5Z"/><path class="a23123f0-e6dc-462d-a770-80030b624636" d="M152.4,110.5c-5.9,21.9-21,34.6-33.1,38.8V130c10.6-.1,20.7-9.2,25-24.5a41.5,41.5,0,0,0,1.1-4.8h9A68.2,68.2,0,0,1,152.4,110.5Z"/><path class="eaa74734-e4f7-4ab6-94c3-0e0e79d39bf5" d="M154.4,78.4c-.2-1.6-.6-3-.7-4.6h-9.4c-.3,0,0,1,0,1a.4.4,0,0,0,.1.3,53.7,53.7,0,0,1,1.8,10.5v.8a67.7,67.7,0,0,1-.1,9.7c-.2-.2-.3,2.1-.5,3.1a6.8,6.8,0,0,0-.2,1.4,24.9,24.9,0,0,1-1.2,4.7h9.6c.1-1.6.6-3.4.8-5s.2-3.2.6-4.7v-.3a95.5,95.5,0,0,0,0-10.7C154.9,82.6,154.7,80.5,154.4,78.4Z"/><path class="b3f993cc-a603-425b-b04c-7236a4501413" d="M607.8,109.7H214.4a1.1,1.1,0,0,0-1,1h0a1,1,0,0,0,1,1H607.8a.9.9,0,0,0,1-1h0A1,1,0,0,0,607.8,109.7Z"/><path class="ba371091-3f0b-4941-8d54-8204f1d44887" d="M179.4,92.8h-6l-.8.2a1.8,1.8,0,0,0-.4.9h-.6V88.3h.5a1.6,1.6,0,0,0,.5.9.8.8,0,0,0,.8.2h11.4V90a2,2,0,0,0-.9.5,1.9,1.9,0,0,0-.2.8v4.9a2.9,2.9,0,0,0,.2.9,1.8,1.8,0,0,0,.9.4V98a26.1,26.1,0,0,1-13.3,3.9,15.3,15.3,0,0,1-9.5-2.7,11.5,11.5,0,0,1-4.6-9.8,11.1,11.1,0,0,1,4.1-9.2c2.6-2.1,6.1-3.2,10.4-3.2a17.2,17.2,0,0,1,3.9.4l4.2,1.2a4.8,4.8,0,0,0,1.7.5,1.2,1.2,0,0,0,.8-.4l.5.3-2.8,5.7-.5-.2a2.9,2.9,0,0,0-.2-.9l-.6-.6a11.5,11.5,0,0,0-3.2-1.4,15.9,15.9,0,0,0-3.9-.6,9.3,9.3,0,0,0-6.2,2.1,7.8,7.8,0,0,0-2.8,6.4,7.6,7.6,0,0,0,2.7,6.1,9.9,9.9,0,0,0,6.6,2.2,17.5,17.5,0,0,0,4-.5,10.1,10.1,0,0,0,3.3-1.2Z"/><path class="ab7f9af8-16dc-4b2c-940c-da30a067aef7" d="M194.6,97.9h11.1a1.1,1.1,0,0,0,.8-.3,2.2,2.2,0,0,0,.5-.8h.5v5.8H207a4.1,4.1,0,0,0-.5-.9.8.8,0,0,0-.8-.2h-17V101a1.3,1.3,0,0,0,.9-.5,1.1,1.1,0,0,0,.3-.8V83.5a1.1,1.1,0,0,0-.3-.8,1.3,1.3,0,0,0-.9-.5v-.5h7v.5a2,2,0,0,0-.9.5,1.9,1.9,0,0,0-.2.8Z"/><path class="ab7f9af8-16dc-4b2c-940c-da30a067aef7" d="M220.8,81.3a12.5,12.5,0,0,1,7.9,2.4,10.3,10.3,0,0,1,0,15.8,14,14,0,0,1-15.7,0,9.5,9.5,0,0,1-3.8-7.9,9.4,9.4,0,0,1,3.8-7.9A12.2,12.2,0,0,1,220.8,81.3Zm0,3.7a6.6,6.6,0,0,0-5,2,6.8,6.8,0,0,0,0,9.2,6.6,6.6,0,0,0,5,2,6.5,6.5,0,0,0,6.8-6.5,6.5,6.5,0,0,0-1.8-4.7,7,7,0,0,0-5-2Z"/><path class="ab7f9af8-16dc-4b2c-940c-da30a067aef7" d="M253.8,90.8a7.7,7.7,0,0,1,2.1,1.4,4.3,4.3,0,0,1,1.3,3.4,5,5,0,0,1-2.2,4.5,8.8,8.8,0,0,1-5.3,1.4H235.6V101a1.3,1.3,0,0,0,.9-.5,1.1,1.1,0,0,0,.3-.8V83.5a1.1,1.1,0,0,0-.3-.8,1.3,1.3,0,0,0-.9-.5v-.5h13.9c2.4,0,4.2.4,5.3,1.3a4.4,4.4,0,0,1,1.8,3.8,4.6,4.6,0,0,1-.6,2.3A7.2,7.2,0,0,1,253.8,90.8Zm-12.3-1.7h7.2a5.1,5.1,0,0,0,2.4-.4,2,2,0,0,0,.3-2.7l-.3-.3a5.2,5.2,0,0,0-2.4-.5h-7.2Zm0,8.8h7.3c2.4,0,3.6-.9,3.6-2.6s-1.2-2.6-3.6-2.6h-7.3Z"/><path class="ab7f9af8-16dc-4b2c-940c-da30a067aef7" d="M275.3,96.5h-9.1l-1,2.2a4.2,4.2,0,0,0-.4,1.2c0,.6.4.9,1.1,1.1v.5h-7.2V101a1.8,1.8,0,0,0,1-.4,8.3,8.3,0,0,0,.8-1.2l7.2-14.6a4.2,4.2,0,0,0,.4-1.5c0-.4-.3-.8-1-1.1v-.5h7.7v.5a1.2,1.2,0,0,0-1,1.2,4.2,4.2,0,0,0,.4,1.5L281.7,99l1,1.5a2.2,2.2,0,0,0,1.1.5v.5h-8.1V101c.8-.1,1.1-.5,1.1-1.1a2,2,0,0,0-.4-1.3Zm-1.4-2.7-3.3-6.4-3.1,6.4Z"/><path class="ab7f9af8-16dc-4b2c-940c-da30a067aef7" d="M291.4,97.9h11.1a1.1,1.1,0,0,0,.8-.3,1,1,0,0,0,.5-.8h.5v5.8h-.5a1.8,1.8,0,0,0-.4-.9,1,1,0,0,0-.9-.2H285.6V101a1.4,1.4,0,0,0,.8-.5,1.1,1.1,0,0,0,.3-.8V83.5a1.1,1.1,0,0,0-.3-.8,1.4,1.4,0,0,0-.8-.5v-.5h7v.5a1.3,1.3,0,0,0-.9.5,1.1,1.1,0,0,0-.3.8Z"/><path class="ba371091-3f0b-4941-8d54-8204f1d44887" d="M339.5,93.2l3.4,5-.5.3-.8-.5a7.6,7.6,0,0,0-1.8.9,23.8,23.8,0,0,1-5.1,2.4,20.5,20.5,0,0,1-4.9.6,15.9,15.9,0,0,1-9.4-2.7,12.6,12.6,0,0,1-3.4-3.9,13.8,13.8,0,0,1-1.4-5.9,11.6,11.6,0,0,1,2.5-7.6c2.6-3.2,6.5-4.9,11.7-4.9a20.5,20.5,0,0,1,4.9.6,23.8,23.8,0,0,1,5.1,2.4,4.2,4.2,0,0,0,1.8.8,1.2,1.2,0,0,0,.8-.4l.5.3-3.4,5-.5-.3v-.5a1.3,1.3,0,0,0-.4-1,9.1,9.1,0,0,0-1.6-1.1,13.4,13.4,0,0,0-6.5-1.7,9.7,9.7,0,0,0-6.6,2.1,8.3,8.3,0,0,0-.9,11.7l.9.9a10.2,10.2,0,0,0,6.6,2.1,12.8,12.8,0,0,0,6.6-1.8,8.3,8.3,0,0,0,1.5-1.1,1.2,1.2,0,0,0,.5-1v-.4Z"/><path class="ab7f9af8-16dc-4b2c-940c-da30a067aef7" d="M363.1,92.9h-11v6.8a1.3,1.3,0,0,0,.3.8,1.9,1.9,0,0,0,.9.5v.5h-7V101a1.4,1.4,0,0,0,.8-.5,1.1,1.1,0,0,0,.3-.8V83.5a1.1,1.1,0,0,0-.3-.8,1.4,1.4,0,0,0-.8-.5v-.5h7v.5a1.3,1.3,0,0,0-.9.5,1.1,1.1,0,0,0-.3.8v5.8h11V83.5a.8.8,0,0,0-.2-.8,1.6,1.6,0,0,0-.9-.5v-.5h7v.5a2,2,0,0,0-.9.5,1.1,1.1,0,0,0-.2.8V99.7a1.2,1.2,0,0,0,.2.8l.9.5v.5h-7V101a2,2,0,0,0,.9-.5.8.8,0,0,0,.2-.8Z"/><path class="ab7f9af8-16dc-4b2c-940c-da30a067aef7" d="M387.6,96.5h-9.1l-1,2.2a2.4,2.4,0,0,0-.3,1.2c0,.6.4.9,1.1,1.1v.5H371V101a1.8,1.8,0,0,0,1-.4,4.2,4.2,0,0,0,.8-1.2L380,84.8a2.8,2.8,0,0,0,.4-1.5c0-.4-.3-.8-1-1.1v-.5h7.7v.5a1.4,1.4,0,0,0-1,1.2,4.4,4.4,0,0,0,.5,1.5L394.1,99a6.5,6.5,0,0,0,1,1.5,1.9,1.9,0,0,0,1,.5v.5H388V101c.8-.1,1.2-.5,1.2-1.1a2.9,2.9,0,0,0-.5-1.3Zm-1.4-2.7L383,87.4l-3.1,6.4Z"/><path class="ab7f9af8-16dc-4b2c-940c-da30a067aef7" d="M403.8,93.3v6.4a3.1,3.1,0,0,0,.2.8l.9.5v.5h-7V101a1.3,1.3,0,0,0,.9-.5,1.1,1.1,0,0,0,.3-.8V83.5a1.1,1.1,0,0,0-.3-.8,1.3,1.3,0,0,0-.9-.5v-.5h13a17.1,17.1,0,0,1,3.9.3,5.2,5.2,0,0,1,4.5,5.4,5.2,5.2,0,0,1-1.3,3.8,8.4,8.4,0,0,1-4.3,1.9l3.8,5.3a14,14,0,0,0,1.6,2,3.5,3.5,0,0,0,1.4.6v.5h-8.4V101c.7-.2,1-.4,1-.8a3.4,3.4,0,0,0-.6-1.2l-4-5.6Zm0-3.5h7.1a6.4,6.4,0,0,0,2.4-.4,1.8,1.8,0,0,0,1.1-1.9,1.8,1.8,0,0,0-.7-1.7,5.4,5.4,0,0,0-2.8-.5h-7.1Z"/><path class="ab7f9af8-16dc-4b2c-940c-da30a067aef7" d="M434,85.3V99.7a1.6,1.6,0,0,0,.3.8,1.9,1.9,0,0,0,.9.5v.5h-7V101a1.4,1.4,0,0,0,.8-.5,1.1,1.1,0,0,0,.3-.8V85.3h-5.8a1.5,1.5,0,0,0-.9.2,4.1,4.1,0,0,0-.5.9h-.4V80.6h.4a2.2,2.2,0,0,0,.5.8,1.1,1.1,0,0,0,.8.3h16.4a1.2,1.2,0,0,0,.9-.3,2.2,2.2,0,0,0,.5-.8h.5v5.8h-.5a4.1,4.1,0,0,0-.5-.9.9.9,0,0,0-.9-.2Z"/><path class="ab7f9af8-16dc-4b2c-940c-da30a067aef7" d="M450,93.1v4.8h12.5a1.6,1.6,0,0,0,.9-.3,1.2,1.2,0,0,0,.4-.8h.5v5.8h-.5a1.8,1.8,0,0,0-.4-.9,1,1,0,0,0-.9-.2H444.1V101a1.3,1.3,0,0,0,.9-.5,1.1,1.1,0,0,0,.3-.8V83.5a1.1,1.1,0,0,0-.3-.8,1.3,1.3,0,0,0-.9-.5v-.5H462a1.6,1.6,0,0,0,.9-.3,1.2,1.2,0,0,0,.4-.8h.5v5.8h-.5a1.8,1.8,0,0,0-.4-.9,1.5,1.5,0,0,0-.9-.2H450v4.3h7.4l.9-.2a4.1,4.1,0,0,0,.5-.9h.4v5.7h-.4a4.1,4.1,0,0,0-.5-.9.9.9,0,0,0-.9-.2Z"/><path class="ab7f9af8-16dc-4b2c-940c-da30a067aef7" d="M473.4,93.3v6.4a.8.8,0,0,0,.2.8l.9.5v.5h-7V101a2,2,0,0,0,.9-.5,1.9,1.9,0,0,0,.2-.8V83.5a1.9,1.9,0,0,0-.2-.8,2,2,0,0,0-.9-.5v-.5h13a15.8,15.8,0,0,1,3.8.3,5,5,0,0,1,2.4.9,4.7,4.7,0,0,1,2.1,4.5,5.2,5.2,0,0,1-1.3,3.8,8.1,8.1,0,0,1-4.2,1.9l3.7,5.3,1.6,2a3.5,3.5,0,0,0,1.4.6v.5h-8.3V101c.6-.2.9-.4.9-.8a2.1,2.1,0,0,0-.5-1.2l-4-5.6Zm0-3.5h7.1a6.7,6.7,0,0,0,2.4-.4,1.9,1.9,0,0,0,1.1-1.9,1.7,1.7,0,0,0-.8-1.7,5,5,0,0,0-2.7-.5h-7.1Z"/><path class="ab7f9af8-16dc-4b2c-940c-da30a067aef7" d="M498.4,93.1v4.8H511a1.1,1.1,0,0,0,.8-.3,1.4,1.4,0,0,0,.5-.8h.5v5.8h-.5a2,2,0,0,0-.5-.9.8.8,0,0,0-.8-.2H492.6V101a1.4,1.4,0,0,0,.8-.5,1.1,1.1,0,0,0,.3-.8V83.5a1.1,1.1,0,0,0-.3-.8,1.4,1.4,0,0,0-.8-.5v-.5h17.8l.9-.3a2.2,2.2,0,0,0,.5-.8h.4v5.8h-.4a4.1,4.1,0,0,0-.5-.9,1.5,1.5,0,0,0-.9-.2h-12v4.3h7.5l.8-.2a2,2,0,0,0,.5-.9h.5v5.7h-.5a2,2,0,0,0-.5-.9.8.8,0,0,0-.8-.2Z"/><path class="ab7f9af8-16dc-4b2c-940c-da30a067aef7" d="M517.1,99.7V83.5a1.1,1.1,0,0,0-.3-.8,1.3,1.3,0,0,0-.9-.5v-.5h11.6a14.4,14.4,0,0,1,5.8.9,7.9,7.9,0,0,1,4.2,4.2,12.8,12.8,0,0,1,.9,4.8c0,3.4-1,5.9-3,7.7a10.7,10.7,0,0,1-3.2,1.6,18.2,18.2,0,0,1-4.6.6H516V101a1.4,1.4,0,0,0,.8-.5A1.1,1.1,0,0,0,517.1,99.7Zm4.7-1.8h5.1c2.3,0,4-.5,5-1.6a7.5,7.5,0,0,0,0-9.4,4.7,4.7,0,0,0-2-1.2,7.8,7.8,0,0,0-3-.4h-5.1Z"/><path class="ba371091-3f0b-4941-8d54-8204f1d44887" d="M574.6,93.2l3.3,5-.4.3-.8-.5a5.1,5.1,0,0,0-1.8.9,23.8,23.8,0,0,1-5.1,2.4,20.7,20.7,0,0,1-5,.6,15.4,15.4,0,0,1-9.3-2.7,12.6,12.6,0,0,1-3.4-3.9,13.5,13.5,0,0,1-1.4-5.9,12.3,12.3,0,0,1,2.6-7.6c2.5-3.2,6.4-4.9,11.6-4.9a19.9,19.9,0,0,1,4.9.6,23.8,23.8,0,0,1,5.1,2.4,4.8,4.8,0,0,0,1.8.8,1.2,1.2,0,0,0,.8-.4l.5.3-3.4,5-.4-.3v-.5a1.4,1.4,0,0,0-.5-1l-1.6-1a12.8,12.8,0,0,0-6.6-1.8,9.9,9.9,0,0,0-6.6,2.1,8.3,8.3,0,0,0-.8,11.7l.8.9a10.4,10.4,0,0,0,6.6,2.1,12.8,12.8,0,0,0,6.6-1.8,9.1,9.1,0,0,0,1.6-1.1,1.2,1.2,0,0,0,.5-1v-.4Z"/><path class="ab7f9af8-16dc-4b2c-940c-da30a067aef7" d="M587.1,97.9h11.1l.9-.3a2.2,2.2,0,0,0,.5-.8h.4v5.8h-.4a4.1,4.1,0,0,0-.5-.9,1,1,0,0,0-.9-.2H581.3V101a2,2,0,0,0,.9-.5.8.8,0,0,0,.2-.8V83.5a.8.8,0,0,0-.2-.8,2,2,0,0,0-.9-.5v-.5h7v.5a2,2,0,0,0-.9.5,1.1,1.1,0,0,0-.2.8Z"/><path class="ab7f9af8-16dc-4b2c-940c-da30a067aef7" d="M623,83.5V94a8.6,8.6,0,0,1-1.4,5.3c-1.5,1.7-4.4,2.6-8.6,2.6a14.5,14.5,0,0,1-6.8-1.3,4.7,4.7,0,0,1-2.6-2.6,13.9,13.9,0,0,1-.6-4V83.5a1.1,1.1,0,0,0-.3-.8,1.4,1.4,0,0,0-.8-.5v-.5h7v.5a1.1,1.1,0,0,0-.9.5,1.1,1.1,0,0,0-.3.8V93a10.1,10.1,0,0,0,.3,2.5,4,4,0,0,0,1,1.5,8.4,8.4,0,0,0,8.4,0,3.1,3.1,0,0,0,1-1.5,10.1,10.1,0,0,0,.3-2.5V83.5a1.1,1.1,0,0,0-.3-.8,1.3,1.3,0,0,0-.9-.5v-.5h6.6v.5a1.4,1.4,0,0,0-.8.5A1.1,1.1,0,0,0,623,83.5Z"/><path class="ab7f9af8-16dc-4b2c-940c-da30a067aef7" d="M645.6,90.8a7.7,7.7,0,0,1,2.1,1.4,4.3,4.3,0,0,1,1.3,3.4,5,5,0,0,1-2.2,4.5,9,9,0,0,1-5.3,1.4H627.4V101a2,2,0,0,0,.9-.5,1.1,1.1,0,0,0,.2-.8V83.5a1.1,1.1,0,0,0-.2-.8,2,2,0,0,0-.9-.5v-.5h13.8c2.5,0,4.2.4,5.4,1.3a4.6,4.6,0,0,1,1.8,3.8,3.9,3.9,0,0,1-.7,2.3A5.8,5.8,0,0,1,645.6,90.8Zm-12.3-1.7h7.1a4.7,4.7,0,0,0,2.4-.4,1.9,1.9,0,0,0,.8-1.5,2,2,0,0,0-.7-1.5,5.3,5.3,0,0,0-2.5-.4h-7.1Zm0,8.8h7.3c2.4,0,3.6-.9,3.6-2.6s-1.2-2.6-3.6-2.6h-7.3Z"/><path class="ab7f9af8-16dc-4b2c-940c-da30a067aef7" d="M229,129.9a7.7,7.7,0,0,1-3.4.8,6.8,6.8,0,0,1-5-1.9,6.7,6.7,0,0,1-2.1-5.2,7,7,0,0,1,2.1-5.3,7.2,7.2,0,0,1,5-1.8,6.7,6.7,0,0,1,3.4.9v3a4.5,4.5,0,0,0-3.3-1.5,4.7,4.7,0,0,0,.1,9.4,4.4,4.4,0,0,0,3.2-1.5Z"/><path class="ab7f9af8-16dc-4b2c-940c-da30a067aef7" d="M240.6,126.3a4.4,4.4,0,0,1-8.8,0,4.4,4.4,0,0,1,4.4-4.4,4.3,4.3,0,0,1,4.4,4.2Zm-.9,0a3.6,3.6,0,0,0-3.6-3.5,3.6,3.6,0,0,0-3.4,3.6,3.5,3.5,0,0,0,3.5,3.4,3.4,3.4,0,0,0,3.5-3.4Z"/><path class="ab7f9af8-16dc-4b2c-940c-da30a067aef7" d="M244,122.1h.8v1.3a2.7,2.7,0,0,1,2.5-1.5,2.7,2.7,0,0,1,2.3,1.2,3.6,3.6,0,0,1,.4,2.1v5.2h-.8v-5.2a2.5,2.5,0,0,0-.3-1.7,1.6,1.6,0,0,0-1.6-.8,2.2,2.2,0,0,0-2,1.1,4.6,4.6,0,0,0-.5,2.3v4.3H244Z"/><path class="ab7f9af8-16dc-4b2c-940c-da30a067aef7" d="M254,122.1h.8v1.3a2.7,2.7,0,0,1,2.5-1.5,2.6,2.6,0,0,1,2.3,1.2,3,3,0,0,1,.4,2.1v5.2h-.8v-5.2a2.5,2.5,0,0,0-.3-1.7,1.5,1.5,0,0,0-1.6-.8,2.2,2.2,0,0,0-2,1.1,4.6,4.6,0,0,0-.5,2.3v4.3H254Z"/><path class="ab7f9af8-16dc-4b2c-940c-da30a067aef7" d="M264.3,126.3a3.3,3.3,0,0,0,3.2,3.5h.1a3,3,0,0,0,2.9-1.9l.7.5a4.2,4.2,0,0,1-7.1-4.6,4.4,4.4,0,0,1,3.4-1.9c2.2,0,3.9,1.8,3.9,4.4Zm6.3-.7a3.1,3.1,0,0,0-3.1-2.9,3.1,3.1,0,0,0-3.1,2.9Z"/><path class="ab7f9af8-16dc-4b2c-940c-da30a067aef7" d="M281.5,124a4,4,0,0,0-2.9-1.4,3.6,3.6,0,0,0,0,7.2,4.2,4.2,0,0,0,3-1.5v1.1a4.2,4.2,0,0,1-3,1.2,4.4,4.4,0,0,1-4.1-4.6,4.3,4.3,0,0,1,4.2-4.1,4.2,4.2,0,0,1,2.8,1Z"/><path class="ab7f9af8-16dc-4b2c-940c-da30a067aef7" d="M285.7,122.9v7.5h-.8v-7.5H284v-.8h.9v-3h.8v3h1.4v.8Z"/><path class="ab7f9af8-16dc-4b2c-940c-da30a067aef7" d="M289.5,119.3a.7.7,0,0,1,.7-.7c.4,0,.8.3.7.7a.8.8,0,0,1-.7.8.7.7,0,0,1-.7-.7Zm1.1,2.8v8.3h-.8v-8.3Z"/><path class="ab7f9af8-16dc-4b2c-940c-da30a067aef7" d="M294.6,122.1h.8v1.3a2.6,2.6,0,0,1,2.5-1.5,2.5,2.5,0,0,1,2.3,1.2,3.6,3.6,0,0,1,.4,2.1v5.2h-.8v-5.2a4.7,4.7,0,0,0-.3-1.7,1.7,1.7,0,0,0-1.7-.8,2.3,2.3,0,0,0-2,1.1,5.9,5.9,0,0,0-.4,2.3v4.3h-.8Z"/><path class="ab7f9af8-16dc-4b2c-940c-da30a067aef7" d="M312.2,122.1v8c0,3.1-1.6,4.9-4.2,4.9a3.7,3.7,0,0,1-4-3.4h.8a2.9,2.9,0,0,0,3.2,2.7h0c3.3,0,3.4-3.3,3.4-4.1V129a4.3,4.3,0,0,1-3.3,1.7A4.5,4.5,0,0,1,304,126a4.4,4.4,0,0,1,4.2-4.1,3.7,3.7,0,0,1,3.2,1.7v-1.5Zm-7.3,4.2a3.2,3.2,0,0,0,3,3.5h.2a3.2,3.2,0,0,0,3.3-3.3v-.3a3.2,3.2,0,0,0-3-3.5h-.3a3.2,3.2,0,0,0-3.2,3.4Z"/><path class="ab7f9af8-16dc-4b2c-940c-da30a067aef7" d="M331.8,129.9a7.6,7.6,0,0,1-3.3.8,6.6,6.6,0,0,1-5-1.9,6.4,6.4,0,0,1-2.2-5.2,6.7,6.7,0,0,1,2.2-5.3,6.9,6.9,0,0,1,5-1.8,6.6,6.6,0,0,1,3.3.9v3a4.5,4.5,0,0,0-3.3-1.5,4.7,4.7,0,0,0,.1,9.4,4.2,4.2,0,0,0,3.2-1.5Z"/><path class="ab7f9af8-16dc-4b2c-940c-da30a067aef7" d="M335.2,115.6h.8v7.8a2.8,2.8,0,0,1,2.6-1.5,2.5,2.5,0,0,1,2.3,1.2,4.6,4.6,0,0,1,.4,2.1v5.2h-.8v-5.2a3.3,3.3,0,0,0-.4-1.7,1.5,1.5,0,0,0-1.6-.8,2.3,2.3,0,0,0-2,1.1,4.5,4.5,0,0,0-.4,2.3v4.3h-.9Z"/><path class="ab7f9af8-16dc-4b2c-940c-da30a067aef7" d="M351.5,122.1h.9v8.3h-.9v-1.5a3.7,3.7,0,0,1-3.2,1.7,4.1,4.1,0,0,1-4-4.1v-.3a4,4,0,0,1,4-4.3,3.9,3.9,0,0,1,3.2,1.6Zm-6.4,4.1a3.3,3.3,0,0,0,3.3,3.6c2.1,0,3.2-1.7,3.2-3.6a3.3,3.3,0,0,0-6.5-.4Z"/><path class="ab7f9af8-16dc-4b2c-940c-da30a067aef7" d="M356.3,122.1h.8v1.1a2.1,2.1,0,0,1,1.9-1.3l.8.2-.4.7h-.6c-1.6,0-1.7,2.2-1.7,3.2v4.5h-.8Z"/><path class="ab7f9af8-16dc-4b2c-940c-da30a067aef7" d="M363.5,122.9v7.5h-.8v-7.5h-.9v-.8h.9v-3h.8v3h1.4v.8Z"/><path class="ab7f9af8-16dc-4b2c-940c-da30a067aef7" d="M367.9,126.3a3.3,3.3,0,0,0,3.2,3.5h.1a3.1,3.1,0,0,0,2.9-1.9l.7.5a4.2,4.2,0,0,1-5.8,1.2,4.1,4.1,0,0,1-1.3-5.8,4.4,4.4,0,0,1,3.4-1.9c2.2,0,3.9,1.8,3.9,4.4Zm6.2-.7a3.1,3.1,0,0,0-6.1,0Z"/><path class="ab7f9af8-16dc-4b2c-940c-da30a067aef7" d="M378.4,122.1h.8v1.1a2,2,0,0,1,1.9-1.3l.8.2-.4.7h-.6c-1.7,0-1.7,2.2-1.7,3.2v4.5h-.8Z"/><path class="ab7f9af8-16dc-4b2c-940c-da30a067aef7" d="M385,126.3a3.4,3.4,0,0,0,3.2,3.5h.1a3,3,0,0,0,2.9-1.9l.7.5a4.2,4.2,0,0,1-5.8,1.2,4.3,4.3,0,0,1-1.3-5.8,4.6,4.6,0,0,1,3.4-1.9c2.3,0,3.9,1.8,3.9,4.4Zm6.3-.7a3.1,3.1,0,0,0-6.2,0Z"/><path class="ab7f9af8-16dc-4b2c-940c-da30a067aef7" d="M402.3,115.6h.8v14.8h-.8v-1.5a3.7,3.7,0,0,1-3.2,1.7,4.1,4.1,0,0,1-4.1-4v-.4a3.9,3.9,0,0,1,3.6-4.3h.5a4.2,4.2,0,0,1,3.3,1.6Zm-6.4,10.6a3.3,3.3,0,1,0,3.5-3.5h-.3a3,3,0,0,0-3.2,3.1Z"/><path class="ab7f9af8-16dc-4b2c-940c-da30a067aef7" d="M407.6,122.3H407l-.2-5.5h.9Z"/><path class="ab7f9af8-16dc-4b2c-940c-da30a067aef7" d="M415,123.6a1.6,1.6,0,0,0-1.5-.9,1.4,1.4,0,0,0-1.4,1.3h0c0,.8.7,1.1,1.5,1.4a4.5,4.5,0,0,1,2.1,1.2,1.8,1.8,0,0,1,.4,1.4,2.6,2.6,0,0,1-2.4,2.7h-.3a2.9,2.9,0,0,1-2.8-2.2l.8-.3a2,2,0,0,0,2,1.7,1.9,1.9,0,0,0,1.9-1.7V128c0-.9-.6-1.2-1.9-1.7a5.4,5.4,0,0,1-1.8-1.1,2.1,2.1,0,0,1-.4-1.1,2.3,2.3,0,0,1,2.1-2.2h.2a2.2,2.2,0,0,1,2.1,1.4Z"/><path class="ab7f9af8-16dc-4b2c-940c-da30a067aef7" d="M419.8,129.1l.8.2-1.5,4.1-.6-.2Z"/><path class="ab7f9af8-16dc-4b2c-940c-da30a067aef7" d="M437.4,119.9a2.4,2.4,0,0,0-2.2-1.1c-1.4,0-1.9.9-1.9,1.5a1.8,1.8,0,0,0,.4,1,5.1,5.1,0,0,0,1.7.7,8.7,8.7,0,0,1,2.7,1.4,3.8,3.8,0,0,1,1.2,2.8,4.5,4.5,0,0,1-4.3,4.5h-.5a5.5,5.5,0,0,1-4.6-2.6l1.7-1.6a3.1,3.1,0,0,0,2.8,1.8,1.9,1.9,0,0,0,2.1-1.7v-.2a1.2,1.2,0,0,0-.5-1.2,5.1,5.1,0,0,0-2.1-1,4.8,4.8,0,0,1-2.2-1.2,2.7,2.7,0,0,1-1.1-2.5c0-2,1.3-4,4.3-4a5.5,5.5,0,0,1,3.9,1.6Z"/><path class="ab7f9af8-16dc-4b2c-940c-da30a067aef7" d="M443.4,122.9v7.5h-.8v-7.5h-.9v-.8h.9v-3h.8v3h1.4v.8Z"/><path class="ab7f9af8-16dc-4b2c-940c-da30a067aef7" d="M448.3,122.1v5a3.1,3.1,0,0,0,.5,2.1,2.4,2.4,0,0,0,3.3,0,3.1,3.1,0,0,0,.5-2.1v-5h.9v5.2a3.9,3.9,0,0,1-.7,2.3,3.1,3.1,0,0,1-4.5.1h-.2a3.8,3.8,0,0,1-.6-2.3v-5.2Z"/><path class="ab7f9af8-16dc-4b2c-940c-da30a067aef7" d="M464.1,115.6h.8v14.8h-.8v-1.5a3.7,3.7,0,0,1-3.2,1.7,4.1,4.1,0,0,1-4.1-4v-.4a3.9,3.9,0,0,1,3.6-4.3h.5a3.9,3.9,0,0,1,3.2,1.6Zm-6.4,10.6a3.3,3.3,0,1,0,3.5-3.5h-.3a3.2,3.2,0,0,0-3.2,3.1v.4Z"/><path class="ab7f9af8-16dc-4b2c-940c-da30a067aef7" d="M469.2,126.3a3.4,3.4,0,0,0,3.2,3.5h.1a3,3,0,0,0,2.9-1.9l.7.5a4.2,4.2,0,0,1-5.8,1.2,4.3,4.3,0,0,1-1.3-5.8,4.6,4.6,0,0,1,3.4-1.9c2.3,0,3.9,1.8,3.9,4.4Zm6.3-.7a3.1,3.1,0,0,0-3.1-2.9,3.1,3.1,0,0,0-3.1,2.9Z"/><path class="ab7f9af8-16dc-4b2c-940c-da30a067aef7" d="M479.8,122.1h.8v1.3a2.7,2.7,0,0,1,2.5-1.5,2.4,2.4,0,0,1,2.3,1.2,3,3,0,0,1,.4,2.1v5.2H485v-5.2a2.5,2.5,0,0,0-.3-1.7,1.5,1.5,0,0,0-1.6-.8,2.2,2.2,0,0,0-2,1.1,4.6,4.6,0,0,0-.5,2.3v4.3h-.8Z"/><path class="ab7f9af8-16dc-4b2c-940c-da30a067aef7" d="M490.6,122.9v7.5h-.8v-7.5h-.9v-.8h.9v-3h.8v3h1.5v.8Z"/><path class="ab7f9af8-16dc-4b2c-940c-da30a067aef7" d="M498.3,123.6a1.6,1.6,0,0,0-1.5-.9,1.3,1.3,0,0,0-1.4,1.3h0c0,.8.7,1.1,1.5,1.4a4.5,4.5,0,0,1,2.1,1.2,1.8,1.8,0,0,1,.4,1.4,2.5,2.5,0,0,1-2.4,2.6h-.3a2.8,2.8,0,0,1-2.8-2.2l.8-.2a2,2,0,0,0,2,1.6,1.7,1.7,0,0,0,1.9-1.7h0c0-.9-.6-1.3-1.9-1.8a4.9,4.9,0,0,1-1.8-1.1,2.1,2.1,0,0,1,1.7-3.2h.2a2.3,2.3,0,0,1,2.2,1.3Z"/><path class="ab7f9af8-16dc-4b2c-940c-da30a067aef7" d="M513.6,130.4h-2l-4.7-13.6h2.8l3,9.3,3.3-9.4h1.5l3.1,9.4,3.2-9.3h2.8l-5,13.6h-2l-3-8.6Z"/><path class="ab7f9af8-16dc-4b2c-940c-da30a067aef7" d="M537.4,126.3a4.4,4.4,0,0,1-4.4,4.3,4.3,4.3,0,0,1-4.3-4.3,4.4,4.4,0,0,1,4.3-4.4h0a4.3,4.3,0,0,1,4.4,4.2Zm-.9,0a3.5,3.5,0,0,0-3.5-3.5,3.6,3.6,0,0,0-3.5,3.6,3.5,3.5,0,0,0,3.5,3.4,3.3,3.3,0,0,0,3.5-3.4Z"/><path class="ab7f9af8-16dc-4b2c-940c-da30a067aef7" d="M540.8,122.1h.8v1.1a1.9,1.9,0,0,1,1.8-1.3l.9.2-.4.7h-.6c-1.7,0-1.7,2.2-1.7,3.2v4.5h-.8Z"/><path class="ab7f9af8-16dc-4b2c-940c-da30a067aef7" d="M547.9,115.6v14.8h-.8V115.6Z"/><path class="ab7f9af8-16dc-4b2c-940c-da30a067aef7" d="M558.6,115.6h.8v14.8h-.8v-1.5a3.7,3.7,0,0,1-3.2,1.7,4.1,4.1,0,0,1-4.1-4v-.4a3.9,3.9,0,0,1,3.6-4.3h.5a3.9,3.9,0,0,1,3.2,1.6Zm-6.4,10.6a3.3,3.3,0,1,0,3.5-3.5h-.3a3.1,3.1,0,0,0-3.2,3.1Z"/><path class="ab7f9af8-16dc-4b2c-940c-da30a067aef7" d="M563,122.1l2.8,6.8,2.9-7.3,2.9,7.3,2.9-6.8h.9l-3.8,8.8-2.9-7.4-2.9,7.4-3.7-8.8Z"/><path class="ab7f9af8-16dc-4b2c-940c-da30a067aef7" d="M577.7,119.3a.8.8,0,0,1,.8-.7.7.7,0,0,1,.7.7.8.8,0,0,1-1.5.1Zm1.2,2.8v8.3h-.8v-8.3Z"/><path class="ab7f9af8-16dc-4b2c-940c-da30a067aef7" d="M589.6,115.6h.8v14.8h-.8v-1.5a3.7,3.7,0,0,1-3.2,1.7,4,4,0,0,1-4.1-4v-.4a3.9,3.9,0,0,1,3.5-4.3h.6a4,4,0,0,1,3.2,1.6Zm-6.5,10.6a3.3,3.3,0,0,0,3.3,3.6c1.7,0,3.2-1.2,3.2-3.6a3.2,3.2,0,0,0-2.9-3.5h-.3a3.2,3.2,0,0,0-3.3,3.1Z"/><path class="ab7f9af8-16dc-4b2c-940c-da30a067aef7" d="M594.7,126.3a3.3,3.3,0,0,0,3.1,3.5h.2a3,3,0,0,0,2.8-1.9l.7.5a4.2,4.2,0,0,1-5.8,1.2,4.3,4.3,0,0,1-1.3-5.8,4.7,4.7,0,0,1,3.4-1.9c2.3,0,4,1.8,4,4.4Zm6.2-.7a3.1,3.1,0,0,0-3.1-2.9,3.1,3.1,0,0,0-3.1,2.9Z"/><path class="ab7f9af8-16dc-4b2c-940c-da30a067aef7" d="M605.8,129a.7.7,0,0,1,.7.8.7.7,0,0,1-.7.7.8.8,0,0,1-.8-.7h0a.7.7,0,0,1,.7-.8Z"/></g></g></g></svg>