<svg xmlns="http://www.w3.org/2000/svg" xmlns:xlink="http://www.w3.org/1999/xlink" viewBox="0 0 100 97.3"><defs><style>.b9677891-09bf-4e53-96a4-6a70ae5ab97f{fill:#509c44;}.ea9afb16-6657-4fa7-a1be-2a43d7fbefad{fill:#fff;}.bc81a161-a111-42af-b92f-1f0b7ad88e5f{fill:url(#f1d32a5b-2437-4539-ba64-919d2f4e72b9);}.b64884ff-4152-41a7-bdd8-b3b188737fb3{fill:url(#f19dcb28-ee87-407b-8560-431bc3b961b9);}.b5f095bb-c9f0-4cc6-9e07-3b6d65f84e65{fill:url(#fb38a97f-27cb-4cc3-9488-2c89d03ef5ef);}.f8df2bf2-b975-44ab-b102-bd0d3c6a4423{fill:url(#a0b87a5b-db47-4b16-a1e1-3420137d4dea);}.abf02567-18c5-461e-8833-c2d8f528e1b2{fill:url(#be0b2a7c-20be-4827-8839-0a6f99f3c22b);}.be30304e-723d-467c-9bf2-ae9146111d81{fill:url(#b028ebdd-7e54-487a-a566-85f98fd22657);}.bd4f6f60-ace3-4484-9963-e6e16f308d4c{fill:url(#a4abe2fc-a6c6-4755-87fb-668e9fba7fe1);}</style><linearGradient id="f1d32a5b-2437-4539-ba64-919d2f4e72b9" y1="49.42" x2="48.64" y2="49.42" gradientUnits="userSpaceOnUse"><stop offset="0" stop-color="#dd4d43"/><stop offset="1" stop-color="#be1e2d"/></linearGradient><linearGradient id="f19dcb28-ee87-407b-8560-431bc3b961b9" x1="1.09" y1="19.48" x2="48.84" y2="19.48" xlink:href="#f1d32a5b-2437-4539-ba64-919d2f4e72b9"/><linearGradient id="fb38a97f-27cb-4cc3-9488-2c89d03ef5ef" x1="-541.12" y1="49.42" x2="-492.48" y2="49.42" gradientTransform="matrix(-1, 0, 0, 1, -441.2, 0)" gradientUnits="userSpaceOnUse"><stop offset="0" stop-color="#4298cc"/><stop offset="1" stop-color="#09446e"/></linearGradient><linearGradient id="a0b87a5b-db47-4b16-a1e1-3420137d4dea" x1="-540.03" y1="19.44" x2="-492.28" y2="19.44" xlink:href="#fb38a97f-27cb-4cc3-9488-2c89d03ef5ef"/><linearGradient id="be0b2a7c-20be-4827-8839-0a6f99f3c22b" x1="-525.49" y1="49.28" x2="-505.95" y2="49.28" gradientTransform="matrix(-1, 0, 0, 1, -441.2, 0)" gradientUnits="userSpaceOnUse"><stop offset="0" stop-color="#53b844"/><stop offset="1" stop-color="#509c44"/></linearGradient><linearGradient id="b028ebdd-7e54-487a-a566-85f98fd22657" x1="-525.06" y1="29.86" x2="-505.87" y2="29.86" xlink:href="#be0b2a7c-20be-4827-8839-0a6f99f3c22b"/><linearGradient id="a4abe2fc-a6c6-4755-87fb-668e9fba7fe1" x1="-525.06" y1="512.74" x2="-505.87" y2="512.74" gradientTransform="translate(-441.2 580.6) rotate(180)" xlink:href="#be0b2a7c-20be-4827-8839-0a6f99f3c22b"/></defs><title>Asset 2</title><g id="bd40b22a-acd2-440e-8fd3-40e144082bf0" data-name="Layer 2"><g id="a6f52552-251f-4b73-bc67-ff02f6747108" data-name="Layer 1"><path class="b9677891-09bf-4e53-96a4-6a70ae5ab97f" d="M27.7,24.3c.1,0,.1-.1,0-.1h-.2s0-.1-.1,0-.1-.1-.2,0h0c-.1.1-.1,0-.1.1h-.3c-.1.1,0,.1-.1.1h-.1a.1.1,0,0,0-.1-.1h-.1a.1.1,0,0,0,.1-.1h-.2a.1.1,0,0,1-.1-.1h-.6s0-.1-.1,0h-.8c-.2,0-.3,0-.3.1h-.2c0,.1,0,.1-.1.1H24v.2h0a.1.1,0,0,1-.1-.1h-.2a.1.1,0,0,0-.1-.1c0,.1-.1,0-.1,0h-.2c0,.1,0,.1-.1.1h-.1a.1.1,0,0,1-.1-.1.3.3,0,0,1,.1-.2h0c.1,0,.2-.2.2-.2h0c0-.1-.1,0-.1-.1h-.1a.1.1,0,0,0-.1-.1h-.2s.1,0,0-.1h.1c-.1,0-.1,0-.1-.1h-.2a.1.1,0,0,1-.1-.1h-.3c-.1,0-.1-.1-.1,0h-.3s0-.1-.1,0h-.3c0,.1,0,0-.1,0h-.4c0,.1,0,.1-.1.1h0s-.1-.1-.1,0h0c0,.1,0,.1-.1.1h0v.2h.1c0,.1,0,0-.1.1h.5s.1,0,0,.1h-.2s-.1-.2-.2-.1h-.4c.1-.1.2-.2.1-.3h-.2s.2-.2.2-.3-.3,0,0-.2l.5-.3c.2-.2.2,0,.2-.2H19.8c-.1.1-.3.1-.3.2l-.3.3c-.2.1-.3.1-.3.3s-.2.2-.2.4a.4.4,0,0,1-.2.3c0,.4-.2.4,0,.5l.4.4h-.1a1,1,0,0,1,.1.4h.3c.1.1.1.2.2.2H20c.2.3.2.1.3.2a.3.3,0,0,0,.1.2h1.9c.2.3.2.2.3.1l-.2-.2h1.4c.1,0,0,.1.1,0H24c0,.1.1,0,.1.1s-.1.1,0,.1h.4a.1.1,0,0,1,.1.1v.2h.1a.1.1,0,0,0,.2,0h.1a.1.1,0,0,1,.1.1h.1a.1.1,0,0,1,.1.1c-.1,0,0,0,0,.1h.2c0,.1.1,0,.1.1H25c0,.1.1.1.1.2h.8c0-.1.1,0,.1,0h.1a.1.1,0,0,1,.1.1h.1c.1,0,0-.1.1-.1a.1.1,0,0,0,.1.1h0s-.1.1,0,.1h.2l.3.4h.2v.2h-.3c0,.1,0,0-.1.1h-.3c0,.1.1.1,0,.1s0,.1-.1.1h-.1c-.1,0-.1,0-.1.1h-.5c0,.1-.1.1,0,.1s.1-.1.1,0h-.2s.1-.1-.1-.1h-.7s0-.1-.1,0h0a.1.1,0,0,1-.1.1h-.2c0,.1-.1.2,0,.3s-.1.1,0,.1h.1c0,.1,0,0,.1.1h.9c0-.1,0-.1.1-.1h.1a.1.1,0,0,0,.1.1H26a.1.1,0,0,1-.1-.1H26l.2.2h.1c0,.1,0,.2.1.2v-.2h.1c.1,0,.2,0,.2.1h0l.2.2c.1,0,.1-.1.1,0s-.1-.1-.1,0h.2c-.1.1,0,.1,0,.1h.1c0-.1.1-.1.2-.1s.1,0,.1.1.1-.1.1,0h-.1c.1.1.2,0,.2.1s.1-.1.1,0h.1c0,.1.1.1,0,.1H28c0,.1.2.1.2.1h.1s0-.1.1,0h.3c.1.1.1,0,.1.1h.4c.1.1.1,0,.1.1h.6a.1.1,0,0,1,.1.1h.1l-.4-.3H29a.1.1,0,0,1,.1.1h.3l.3.2h.2s.2-.1.2,0a.1.1,0,0,0,.1.1h.1c.1,0,.1-.1.1.1h.3c0,.1.1,0,.1,0h.1a.1.1,0,0,0-.1-.1H31v-.2h-.2a.1.1,0,0,1-.1-.1h-.1s.1-.1,0-.1h-.1a.1.1,0,0,0-.1-.1h-.1c0,.1,0,.1-.1,0H30c-.1.1-.1-.1-.1-.1h-.1a.1.1,0,0,1-.1-.1s.1,0,0-.1h-.1a.1.1,0,0,0-.1-.1c0,.1,0,.1-.1.1v-.2h-.1a.1.1,0,0,1-.1-.1h.7c.1,0,.1,0,.1.1h.1c0,.1.1,0,.1.1h.1c0,.1,0,.1.1.1s.1-.1.1,0h.3s.1,0,0,.1h.4a.1.1,0,0,0,.1.1h.1a.1.1,0,0,0,.1.1h.1c0-.1.1-.2,0-.2h0V29h.1c0,.1.1,0,.1,0h.3a.1.1,0,0,1,.1-.1h-.1c-.1-.1-.1-.1,0-.1h.1s.1-.1.1,0h.3v-.2h-.1a.1.1,0,0,0-.1-.1h-.1c-.1,0-.1-.1-.1,0s0-.1-.1-.1h-.3s-.1,0,0-.1h-.1a.3.3,0,0,0-.1-.2h-.3c-.1.1-.1.1-.1.2h-.1c0-.1,0-.2-.1-.2h-.4c-.1,0-.1-.1-.1,0h-.2c-.1,0,0,.1-.1.1h.1v-.2c-.1,0,0,0-.1-.1h-.6a.1.1,0,0,0-.1.1v-.2h-.3c-.1,0-.1,0-.1-.1H30a7961314590657.1,7961314590657.1,0,0,1-.2-.2h-.1s0-.2-.1-.2v-.2h-.3c-.1.1,0,.1-.1.1H29c0-.1,0-.1-.1-.1h0a.1.1,0,0,1-.1-.1h-.7c-.1.1,0,0-.1,0s-.1.1,0,0h.1v-.2h-.3c0,.1,0,.1-.1.1h0Z"/><path class="b9677891-09bf-4e53-96a4-6a70ae5ab97f" d="M13.2,25.3h-.4s0-.1-.1,0h-.5c-.1,0,0-.1-.1-.1s-.1.2-.2.1l-.2-.2a.1.1,0,0,0-.1-.1c-.1,0-.2,0-.2-.1v-.2h.1s.1-.2,0-.2,0-.1-.1-.2-.1-.2-.2-.2a.1.1,0,0,0-.1-.1c0-.1-.1-.1-.1-.2v-.3h.2v-.2a.1.1,0,0,1,.1-.1V22h-.7c0,.1-.1.3-.1.4h.1c0,.1.1,0,.1.2s.1.1,0,.1h-.3c-.1.4-.3.8-.4,1.2h0a.1.1,0,0,1-.1.1H9.8a24.4,24.4,0,0,1-1.4,2.8h1c0-.1,0-.1.1-.1h.7a.1.1,0,0,1,.1-.1h.1c.1.1.2,0,.1.1h.6c0,.1.1.1.1.2h1s.1,0,0-.1h.3c.1,0,.2-.1.2,0h.5v-.4Z"/><path class="b9677891-09bf-4e53-96a4-6a70ae5ab97f" d="M17.7,13.7h.2c.1,0,.1,0,.1-.1h.2c0,.1-.1.1,0,.1h.2c-.1,0-.1.1,0,.1h1a.1.1,0,0,1,.1.1h1.1v.2h-.2c-.1,0,0-.1-.1.1s-.1.1,0,.1h1.4s-.1,0,0-.1h.2s.1,0,0,.1h2s-.1,0,0-.1h.1c.1,0,.2,0,.2-.1h.2s-.1,0,.1-.1h.5l-.6.3h.5c.1.1.1.1,0,.1H23.6s0-.1-.1,0H22v.2h.6s-.1.1,0,.1h-.3c-.1-.2,0-.2-.1-.2h-.6a.1.1,0,0,1-.1-.1H20.2c-.1.1-.1.1,0,.2H21a.1.1,0,0,1,.1.1h.3c.1.1.3.2.3.3h-.9c-.1,0,.1.1,0,.1s-.2-.1-.2,0h-.3L20,17h-.1c-.1.1-.1.1-.1.2h0a.1.1,0,0,0,.1.1h.4a.1.1,0,0,1,.1-.1h0c0,.1,0,.1.1.1h.3s.2-.1.2-.2h0c0-.1,0-.1.1-.1h0v.2h.2c0,.1,0,.1-.1.1h.5a.1.1,0,0,1,.1-.1.3.3,0,0,1,.1-.2h.2L22,18c0,.1,0,.1-.1.2H20.8l-.2-.2-.4-.2h-.6c-.1,0-.1,0-.1.1h.3c.1,0,.2,0,.2.1H18.9c-.1,0-.1,0-.1.1s-.1,0,0,.2h.3a.1.1,0,0,0,.1-.1h.1s-.1,0,0,.1-.1,0,0,.1h.3a.1.1,0,1,1,.2,0h.5c0-.1.1-.1.1,0h.5c0,.1.1,0,.1.1h.5s-.1,0,0,.1h.8a.1.1,0,0,1,.1-.1h.1a.3.3,0,0,1,.1-.2h0a.1.1,0,0,1-.1-.1h.1a.1.1,0,0,1,.1.1h.4c-.1.1-.1.1-.1.2h1.5v-.2h-.1a.1.1,0,0,0-.1.1h-.4s-.1,0,0-.1h.4c.1,0,.2-.2.2-.2h.1c-.1-.2-.1-.2-.2-.2h1.3v-.2h0a.1.1,0,0,1,.1-.1h-.1c-.1,0-.1-.1,0-.1h.3a.1.1,0,0,1-.1-.1h.3v-.2h-.7a.1.1,0,0,0-.1-.1c-.1.1-.1,0-.1,0h1.4s.1-.1.1,0a.1.1,0,0,0,.1-.1h-.1a.1.1,0,0,1-.1-.1.1.1,0,0,1,.1.1h1l.2-.2h0s-.1-.1,0-.1h-.2s-.1,0,0-.1h.5a.1.1,0,0,1,.1-.1h.5l.2-.2.4-.3h1l.7-.3H32c0-.1.2-.1.2-.1h.5c.1,0,.1-.1,0-.1s0,0-.1-.1h-.9c-.1-.2-.2-.2-.2-.2s.2-.2,0-.2h-1a.1.1,0,0,1-.1.1H28.9l.5-.2H27.5s.1-.1,0-.1h-.9c0,.1-.1,0,0,.1H24.9a.1.1,0,0,1,.1.1s.1-.1.1,0h.3c0,.1.1.1,0,.1h-.5a.1.1,0,0,1-.1-.1H23.4c-.1.1,0,.1,0,.1h-.6c-.1,0-.1,0-.1.1h.1v.2h-.7c-.1,0-.1.1,0,.1h.4l.4.2h.7c0,.1.1.1,0,.1h-.2a.1.1,0,0,1-.1-.1H22.1c-.1,0-.1,0,0,.1h-.2c-.2-.2-.1-.2-.2-.2h-.5c0,.1,0,.1-.1,0h-.4s.1,0,0,.1-.1,0,0,.1.1.1,0,.1H21c0,.1.1,0,0,.1h-.9v.2h-.9l-.2.2H17.7Z"/><path class="b9677891-09bf-4e53-96a4-6a70ae5ab97f" d="M15.5,15.7a.3.3,0,0,0,.1.2h.7c0,.1.1.1,0,.1h-.5c-.1.1,0,.1.1.2h.4a.1.1,0,0,0,.1-.1h.1v.2h.3a.1.1,0,0,1,.1-.1h.4a.1.1,0,0,0,.1.1h.2c.1.1,0,.1-.1.1h-.2c0,.1-.1-.1-.1,0h-.5c0,.1,0,0-.2.1s-.2-.2-.1,0l.3.2H17a.1.1,0,0,0,.1.1c.1,0,.2-.1.2,0h-.2c0,.1.2.1.2.2h.2c.1,0,.1-.1.2,0s0,.1.1.1h.4c.1,0,.3.2.2,0s-.1-.1,0-.2h.3c0,.1,0,.1.1.1h0v-.2h.4a.3.3,0,0,1,.1-.2s-.2-.1,0-.1h.2c0,.1-.1,0,0,.1v-.2a.1.1,0,0,0-.1-.1.1.1,0,0,1-.1-.1h.2a.1.1,0,0,1-.1.1c0,.1,0,.2.1.2s0,.1.1,0h.5l.4-.2h0a.1.1,0,0,0-.1.1H20s.1-.1,0-.1h-.1v-.2h-.2s-.1-.2-.2-.1h.1s.1-.1,0-.1h-.5s-.1,0,0,.1H19a.1.1,0,0,1-.1-.1H19c-.1-.1,0-.2-.1-.2h-.6a.1.1,0,0,0-.1-.1h-.3v-.2H16.4c0,.1,0,.2.1.2h0s-.1-.1-.1,0,0,.1,0,.1h-.5c0,.1-.1.1,0,.2h.3a.1.1,0,0,1-.1-.1h-.2c-.1.1-.1,0-.2,0s-.1,0-.1.1h-.2c0,.1-.1.2,0,.2h1l-.3.2h-.8Z"/><path class="b9677891-09bf-4e53-96a4-6a70ae5ab97f" d="M14.5,17.1v.3c.1.2.1,0,.2,0h.1c.1-.1.1,0,.2.1h-.1a.1.1,0,0,0,.1.1h1.1a.1.1,0,0,0-.1-.1.1.1,0,0,1,.1-.1h0a.1.1,0,0,0-.1-.1h-.5c0-.1,0-.1-.1-.1s-.2,0-.3-.1h-.7C14.4,17,14.5,17,14.5,17.1Z"/><path class="b9677891-09bf-4e53-96a4-6a70ae5ab97f" d="M15.2,17.9Z"/><path class="b9677891-09bf-4e53-96a4-6a70ae5ab97f" d="M15.6,18.2h.7c0,.1.2.1.2.1h.4c0-.1.1-.1,0-.2s.1-.1-.1-.1h-1c-.2.1-.1,0-.2,0a.3.3,0,0,0-.1.2h.1Z"/><path class="b9677891-09bf-4e53-96a4-6a70ae5ab97f" d="M18.2,18c-.5.1-.3.2-.3.2s.1.1.1.2h-.1a.1.1,0,0,0,.1.1s0,.1.1,0h0a.1.1,0,0,0,.1-.1.1.1,0,0,0,.1.1c0-.1,0,0,.1,0h.2a.1.1,0,0,1,.1-.1v-.2c0-.1,0-.1-.1-.1h-.1C18.5,18,18.6,18,18.2,18Z"/><path class="b9677891-09bf-4e53-96a4-6a70ae5ab97f" d="M16.8,19.3a.1.1,0,0,0,.1-.1H17c-.1-.1-.1-.2-.2-.2h-.6a.1.1,0,0,1-.1-.1h-.6s-.2,0-.2.1h-.1V19h.2c0,.1-.1,0,0,.1h.3a.1.1,0,0,1-.1.1H16c0,.1.1,0,.1,0s.2.1.2.1h.1c0,.1.1,0,.1.1h.3Z"/><path class="b9677891-09bf-4e53-96a4-6a70ae5ab97f" d="M18.2,21.1h.9s.1-.1.1,0,0,.1,0,.1v.2h.1c.1,0,.1-.1.1,0H20c.1.1.1,0,.1,0h.5s0,.1.1,0h1.1s-.1-.1,0-.1.1,0,.1.1h1.4c0-.1,0-.1.1-.1h.3s.1-.1,0-.1h-.1a.1.1,0,0,0-.1-.1h.1a.1.1,0,0,1,.1-.1v-.2h-.3v-.2H21.8a.1.1,0,0,0-.1-.1c0,.1-.1,0-.1,0H20.4c0,.1.1.1,0,.1H18.9V20h-.6c0-.1.1-.1,0-.1h0s0-.1.1,0H16.9c.1,0,0,0,.1.1s0,.1.1.1h.1c.1,0,.1,0,.1.1h.2c0,.1.1.1,0,.2s-.1,0-.1.1h-.1v.2c.1,0,.1,0,.1.1h.2c.1,0,.1,0,.1.1h.4v.2Z"/><path class="b9677891-09bf-4e53-96a4-6a70ae5ab97f" d="M15.5,25.9h.2c.1.1.1,0,.1,0h-.1a.1.1,0,0,0-.1-.1c-.1,0-.1,0-.1.1h-.3a.1.1,0,0,1-.1-.1h-.5c-.1,0-.1,0-.1.1h-.1v.2h0a.1.1,0,0,1-.1.1h-.4c0,.1-.1.1,0,.1h.9c0,.1,0,.1.1.1h.6C15.5,26,15.4,25.9,15.5,25.9Z"/><path class="b9677891-09bf-4e53-96a4-6a70ae5ab97f" d="M15.3,23.2c.1-.1.1,0,.1-.2h-.1v-.2a.1.1,0,0,1-.1-.1h-.2v.2h.1c.1,0,0,.1.1.1H15c0-.1,0,0-.1-.1h-.3a.1.1,0,0,1,.1-.1h.4v-.2h-.9c0,.1,0,0-.1,0a.1.1,0,0,0-.1.1h-.1c0-.1,0-.1-.1-.1h-.1c-.2-.1,0,0-.1,0s0,.1,0,.1H13c-.1-.1-.1,0-.1,0h-.1c0,.1,0,0,.1,0v.2a.1.1,0,0,1,.1.1h.4c-.1-.1,0,0,0,.1H13l-.2-.2c-.2-.2-.1-.1-.2-.1h-.3v.2h.3a.1.1,0,0,1,.1.1h1.8c.1,0,.1-.1,0-.1a.3.3,0,0,0-.1-.2c0-.1.1,0,.1,0h0a.1.1,0,0,1,.1.1c.1.1,0,0,.1,0h.4c0-.1,0,0,.1,0h.1v-.2h0Z"/><path class="b9677891-09bf-4e53-96a4-6a70ae5ab97f" d="M14.9,22.7c.1,0,0-.1,0,0Z"/><path class="b9677891-09bf-4e53-96a4-6a70ae5ab97f" d="M14.9,20h0C14.9,20.1,14.8,20,14.9,20Z"/><path class="b9677891-09bf-4e53-96a4-6a70ae5ab97f" d="M14.9,20h-.1v-.2h0c-.1,0,0,0,0-.1h-.3c-.1-.1-.2,0-.3,0h-.3c0-.1-.2,0-.2-.1h0a.1.1,0,0,1-.2,0h-.3c0-.1-.1,0-.2,0s-.1.2-.1.2h.3v.2h.2a.1.1,0,0,1,.1.1h-.2a.1.1,0,0,1-.1-.1c0-.1-.1,0-.2-.1s-.1,0-.1-.1h-.3c-.1.1,0,.1-.1.2l.2.2h.2c0,.1.2.1.2.2h-.4c-.1,0,0-.1,0-.1a.1.1,0,0,1-.2,0s0,.1-.1,0h-.3l-.3.3h.4c0,.1.1,0,.2.1s.1,0,.1-.1H13c.1,0,.1.1.2,0h.4c0-.1-.1.1-.1.1h-.2a.3.3,0,0,1,.1.2h0v.2h.5c.1-.1.1,0,.2,0s0,0,.1,0h.6c-.1-.1-.1,0-.1,0s-.1,0-.1-.2,0,0,.2,0h.1v-.2h0C15,20.1,14.9,20.1,14.9,20Z"/><path class="b9677891-09bf-4e53-96a4-6a70ae5ab97f" d="M15.4,20.3h-.3s-.1.1,0,.1h.2C15.4,20.3,15.2,20.4,15.4,20.3Z"/><path class="b9677891-09bf-4e53-96a4-6a70ae5ab97f" d="M16.4,21.1h.3c.1-.1.1-.1.1-.2s.1,0,0-.1.1.1,0-.1a.8.8,0,0,1-.1-.3h-.8c0,.1-.1.1-.1.2h-.3c0,.1,0,.1-.1.1s-.1,0-.1.1h1.1Z"/><path class="b9677891-09bf-4e53-96a4-6a70ae5ab97f" d="M15.8,21h-.1s0-.1-.1,0h.1c0,.1,0,.1.1.1h.1Z"/><path class="b9677891-09bf-4e53-96a4-6a70ae5ab97f" d="M16.2,19.9a.1.1,0,0,0,.1.1h-.1Z"/><path class="b9677891-09bf-4e53-96a4-6a70ae5ab97f" d="M11.8,20.4h-.3a.2.2,0,0,0-.2.2h0c.1.1.1,0,.2,0a.1.1,0,0,0,.1.1c.1,0,.2,0,.2-.1s.1-.1,0-.2S11.9,20.4,11.8,20.4Z"/><path class="b9677891-09bf-4e53-96a4-6a70ae5ab97f" d="M24.8,22.8h.5v-.2h-.1c0-.1,0-.1-.1-.1h-.1a.1.1,0,0,0-.1-.1H24a.1.1,0,0,0-.1.1h-.6a.2.2,0,0,0-.3,0h0v.2h.4c.1,0,.1,0,.1.1h1.1a.1.1,0,0,0,.1.1C24.8,22.8,24.6,22.7,24.8,22.8Z"/><path class="b9677891-09bf-4e53-96a4-6a70ae5ab97f" d="M32.4,40.8v-.2l-.4-.2h-.9s0,.1.2.1l.3.2H32c.1,0,.2.1.3,0Z"/><path class="b9677891-09bf-4e53-96a4-6a70ae5ab97f" d="M35.4,39.2c.1,0,0-.2,0,0Z"/><path class="b9677891-09bf-4e53-96a4-6a70ae5ab97f" d="M35.1,39.2H35c-.1,0-.1.2-.2.3h-.2v.2c0,.1-.1.2-.1.3h-.1v.2H34V41h-.1c.1,0,0,.1,0,.1h-.1a.1.1,0,0,0-.1.1.3.3,0,0,0-.1.2h1.7c.1,0,0,.1,0,.1h.1a.3.3,0,0,0,.1.2h-.2c0,.1,0,.1-.1.1a.1.1,0,0,0,.1.1h.3l.2-.2c.1,0,.2,0,.1-.1h.2c0,.1,0,.1.1.3h.2v.2h.2c.1-.1,0,0,0-.1a.1.1,0,0,1,.1-.1c0-.1,0-.1.1-.1a.3.3,0,0,0-.1-.2h-.1v-.3h-.2a.3.3,0,0,1-.1.2h-.2l.2-.2c0-.1.1-.1.2-.2s.1,0,.1-.1a.1.1,0,0,0-.1.1h-.3c.1-.1,0,0,0-.1s-.1-.1,0-.2.1,0,.1-.1h-.2c-.1,0-.2,0-.2-.2h-.2v.2h-.1v-.2c0-.1-.1,0-.2,0a.1.1,0,0,1,0-.2h.1c.1-.1,0-.1,0-.1H35l-.2.2v-.2h.1c0-.1.1-.1.2-.2s.2-.2.2-.3,0-.1,0-.2,0,0,.1-.1.1,0,0-.1h-.3Z"/><path class="b9677891-09bf-4e53-96a4-6a70ae5ab97f" d="M22.9,30.8h.3c.1-.1.1,0,0-.2s0-.2-.1-.2h-.4l-.2-.4h-.4l-.3-.2c-.1-.2-.2-.2-.3-.2s-.1.2-.2,0-.1-.2-.1-.2h-.3V29a.2.2,0,0,0-.2-.2c-.2.1-.4.1-.3.4s.1.2,0,.5-.2.2-.1.3v.2a.4.4,0,0,1-.3.2c-.1.1-.3.1-.2.2h.4c.2,0,.3-.1.4,0s-.1.2,0,.3.2.2.4.1.2-.2.2-.3h.2l.2-.3a.1.1,0,0,1,.2,0c.1.1.1.2.3.2l.4.2Z"/><path class="b9677891-09bf-4e53-96a4-6a70ae5ab97f" d="M25.7,57.2H26c.1,0,.2,0,.3-.2s0,0-.1-.1-.1,0-.1-.1h-.4c-.1,0-.1-.1-.1-.2h-.3c-.2,0-.1.1-.1,0h-.5c-.1-.1-.1-.2-.2-.2a.1.1,0,0,1-.2,0c0-.1-.1,0-.2-.2h-.3c-.1,0-.1-.1-.1-.2h-.2c-.1,0-.2.1-.3,0h-.6c-.2,0-.1.1-.2.1h-.8s0,.1-.2.1h-.2a1,1,0,0,0,.1.3h.2c.1-.2.1,0,.3-.1h.5c.1-.1.1,0,.2,0v.2c0,.1.1,0,.1.1h.8c.1,0,0,0,.2.2s.1,0,.3,0h.2a.4.4,0,0,1,.1.3l.3.2h.2c.1,0,.1.1.1.2l-.2.2h1.1Z"/><path class="b9677891-09bf-4e53-96a4-6a70ae5ab97f" d="M22,56.1c-.1,0-.1.1-.1.2s0,.1.1,0,.2.1.2,0S22.1,56,22,56.1Z"/><path class="b9677891-09bf-4e53-96a4-6a70ae5ab97f" d="M24.9,57.9h-.6c0,.2.1.2.1.3h.4c.1-.1.1,0,.2,0h.3c.1,0,0,0-.1-.1S25.1,58,24.9,57.9Z"/><path class="b9677891-09bf-4e53-96a4-6a70ae5ab97f" d="M27.8,57.9H29c0-.1-.1-.1-.5-.3s-.2,0-.2,0h0v-.2c0-.1-.2,0-.3,0h-.6L27,57h-.3c0,.1.1.1.1.2h.1c.1.1.1.1.1.2s0,.1.1.2h.1c.1.1-.1.1-.2.1a.1.1,0,0,1-.1-.1h-.7c-.1.1,0,.1.1.2h.3c.1.1.2,0,.3,0h.4a.1.1,0,0,1,.1.1h.3c.1.1,0,0,0-.1S27.8,58,27.8,57.9Z"/><path class="b9677891-09bf-4e53-96a4-6a70ae5ab97f" d="M30.3,57.9h-.6c-.1,0,0,.1,0,.2h.7a.1.1,0,0,0,.1-.1Z"/><path class="b9677891-09bf-4e53-96a4-6a70ae5ab97f" d="M24.4,54.4h0c-.1,0-.1.1-.1.2s-.1.1,0,.2h.1c.1.1.1.2.1.1s.1-.2,0-.2A1,1,0,0,0,24.4,54.4Z"/><path class="b9677891-09bf-4e53-96a4-6a70ae5ab97f" d="M24.6,55.1c.1-.1.1-.2,0-.1h-.1C24.5,55.1,24.5,55.2,24.6,55.1Z"/><path class="b9677891-09bf-4e53-96a4-6a70ae5ab97f" d="M24.9,53.6h-.2c-.1,0,.1.1.1.1s0,.1-.1.2.1.2.1.1a.1.1,0,0,1,.1-.1v-.2Z"/><path class="b9677891-09bf-4e53-96a4-6a70ae5ab97f" d="M24.3,53.5c0,.1-.2,0-.2.1h.2a.1.1,0,0,1,.1-.1C24.5,53.6,24.4,53.5,24.3,53.5Z"/><path class="b9677891-09bf-4e53-96a4-6a70ae5ab97f" d="M26.3,55.7h.1c0,.1-.1,0-.1.1s-.1.1,0,.1a.1.1,0,0,0,.1-.1S26.5,55.6,26.3,55.7Z"/><path class="b9677891-09bf-4e53-96a4-6a70ae5ab97f" d="M22.7,26.2Z"/><path class="b9677891-09bf-4e53-96a4-6a70ae5ab97f" d="M35.2,38.7v-.2c.1-.1.2-.1.2-.2v-.2a.3.3,0,0,1,.1-.2l-.4-.2h-.3v.2s.1.1,0,.1,0-.1,0-.3h-1l-.3.2h.3a.1.1,0,0,0,.1-.1c.1,0,.1-.1.1,0s.3,0,.3-.1h.3c-.1-.2,0-.3-.1-.3h-.3c-.1,0-.1.1-.1,0s0-.1-.1-.2h-.1c-.1.1-.1.1-.1.2a.1.1,0,0,1-.2,0h-.2v-.2a.3.3,0,0,0-.1-.2h-.3s0-.2-.1-.2a.1.1,0,0,0-.1-.1.1.1,0,0,1-.1-.1s-.2-.1,0-.1h.2s.1-.2,0-.2,0-.2-.1-.2h-.1a.3.3,0,0,1-.1-.2c.1,0,.2,0,.1-.1l-.2-.2h-.2v-.2h-.2c-.1-.1,0-.3-.1-.3h0c-.1,0-.1,0-.1-.1h-.3c0-.1,0-.2-.1-.2v-.2h0c-.2.2-.2.2-.2.3s-.1-.1-.1,0h0c0,.2-.2.1-.2.2h.1c0,.1.1.1,0,.1s-.1,0-.1.1-.1.1-.1.2.2-.1.1.1-.1.3-.2.3-.1-.3-.2-.2h-.2a.1.1,0,0,1-.1.1h.1c0,.1-.1.1-.2.1h-.2c-.1.1,0-.1-.1-.1s0-.1-.1,0,0,.1-.1.1-.2,0-.1-.1a.3.3,0,0,0,.1-.2c-.1,0,0-.1-.1-.2s0-.1-.1-.1l-.4.2c-.1,0,0,.1-.1,0s-.2-.2-.1-.2h.2c0-.1.1,0,.1-.1h0c-.1-.2-.1.2-.1-.1s-.1-.2-.1-.3a.1.1,0,0,1-.1-.1.3.3,0,0,0,.1-.2c0-.1-.1-.1-.1-.2s-.1.1,0-.1l.2-.3h-.2c-.1,0,0,.1-.2.1s0-.1-.1-.1h-.6c0-.2,0-.2-.1-.2a.1.1,0,0,0-.1-.1H27c-.1-.1,0-.2-.2-.2h-.7c-.1.1,0,.1-.1.1h-.4c-.1,0-.1.1-.1,0s0-.1-.1-.2.1-.1-.1,0-.3.1-.3,0h-.4c-.1,0-.2,0-.2.1s-.1,0-.1.2.1.1.1.2.1.1.1.2h.1a.5.5,0,0,0-.1.3v.2c-.1,0-.1,0,0,.1s.1.2.1.3.1.1,0,.1.1.1.1.2a.1.1,0,0,1,0,.2h-.2c0,.2,0,.2-.1.3a.1.1,0,0,1-.1.1h-.1c0,.1-.2.2-.1.2l.4.2h.3v.2l.2.2v.2h0c0,.1.1,0,0,.3v.4h0l-.2.2-.3.2-.2.2h0c-.1.1-.2.1-.2.2s-.2-.1-.3,0h-.2c-.1.1-.1.1-.1.2s.2.2.2.2v.2c0,.1,0,.1.1.2H24c-.1.1,0,.1-.1.2s.1.1.1.2v.3c0,.1.1,0,.2.1v.2h-.1c0,.1,0,.1-.1.2s-.1.1,0,.1v.2s-.1.2-.1.1h-.3c-.1.1-.1.1-.1.2s0,0,.1.1-.1-.1-.2-.1h-.3c-.1.1-.2.1-.2.2a.1.1,0,0,1,.1-.1h0c.1-.1.1,0,.1-.1v-.2H23c-.2-.1-.2-.2-.2-.2s-.3.2-.2,0h.1c-.1-.1-.1-.2-.2-.2h-.2c.1-.1.1-.1.1-.2h0a.5.5,0,0,1-.1-.3h0a.1.1,0,0,1-.1-.1v-.2c.1,0,.1,0,.1-.1s.1.1,0-.2h-.1c0-.1.1,0,0-.1H20.9c-.2-.3-.1-.3-.3-.3h-.2c-.1-.1.1-.1-.2-.2h-.4c-.2-.1,0-.1-.2-.2h-.2a.1.1,0,0,0-.1-.1h-.7c0,.1,0,.1-.1.1s0-.1-.1-.2a.1.1,0,0,1-.1-.1H17.2c.1-.1.2-.1.1-.2h0c-.1-.1-.1-.1-.1-.2a.3.3,0,0,0-.1-.2c-.1-.1,0-.1-.1-.2s.1,0,0-.1h-.6s-.1-.3-.1-.2a.3.3,0,0,1-.1-.2c-.1,0-.1,0-.1-.1a.1.1,0,0,0,.1-.1v-.2a1,1,0,0,0,.1-.3c-.1-.1-.1,0-.1-.2h0c.1-.1.3-.1.2-.2l.2-.2c-.1-.1,0,0,0-.2s.1-.2.1-.2h.2a.1.1,0,0,0,0-.2h.3s.1-.1,0-.1h.3c0-.1-.1-.2,0-.2h.2a.1.1,0,0,0,.1.1h.4s.1-.1,0-.1H18c0-.1.1-.1,0-.1h-.4s.1-.2-.1-.2h-.3c-.1,0-.2-.1-.1-.1h.5c.1,0,.1,0,.1.1h.7s-.1,0,0-.1h.1v-.2h.7l.2-.2h.2c0-.1.2-.2.2-.2H20v-.2h-.3c.2,0,.3,0,.3-.1h.5c.1-.1,0-.1.1-.2h.3c0,.2.1.1.1.2h.5a.1.1,0,0,0,.1.1c.1,0,.1,0,.1-.1h-.1l-.2-.2c-.1,0,0-.1-.1,0s-.2-.1-.1-.1h.4v.2h.1a.1.1,0,0,0,.1.1h.5c0-.1-.1-.1,0-.1h.4v-.2c.1-.1.1-.2,0-.2h-.3v-.2h-.1c-.1-.1,0-.1-.1-.1s-.1,0,0-.1-.1-.1,0-.1h.2a.1.1,0,0,0,.1.1h.3s.1-.2,0-.2-.1,0-.1,0-.1.1-.1,0-.2-.1,0-.1.1,0,.1-.1H20.8s0-.2-.1-.1,0,.2,0,.2h0c.1.2-.1.1.1.2s.1-.1.2.1-.1.1,0,.1.3,0,.2.1h-.4s-.1-.2-.1,0v.6h-.2l-.2.2h-.1c-.2.1-.2.1-.2.2s-.1.2-.1.1v-.2l-.2-.2h-.2v-.3c0-.1-.1-.1,0-.1s0-.2.1-.1.1.1.1,0h0a.3.3,0,0,0-.1-.2h0v-.2H19c-.1,0-.2-.1-.2,0h-.2c0,.1-.1.1,0,.1s0,.1-.1.1l-.2.3h0v-.5s.2,0,0-.1h-.2c0-.1.1-.1.2-.1s.1.1.1,0,0-.2-.1-.2-.1-.1-.2,0h-.2c-.1,0-.1-.1-.2,0s.1.1,0,.1h-.3c-.1,0-.2-.1-.1-.2h0l.4-.2h.1v-.2h-.3l-.2-.2c0-.1-.1-.1-.1-.2h-.1v-.4h-.2c0-.1-.2-.3-.2-.3h-.1c-.1,0-.2-.1-.2,0h.3l.2-.2h.5c.1.1.4-.1.3-.1a.1.1,0,0,0,.1-.1c0-.2,0-.3.1-.3s.1,0,.1,0h.2a1,1,0,0,0,.1-.3H16c-.1.1-.1,0-.1.1a.3.3,0,0,1,.1.2h-.1c-.1.1-.1,0-.1.1s0,0-.1.1h0c0,.1.1.2,0,.3v.2s-.1.1,0,.1h.1c0,.1,0,.2.1.2v.4h0v.2h-.2a.1.1,0,0,1,.1.1h-.4a.1.1,0,0,1-.1.1v.2c0,.1-.1.2,0,.2s0,.1.1.1h.1c.1,0-.1.1-.1.1a.3.3,0,0,1-.1.2l.2.3a.1.1,0,0,1,.1.1h.8v.2h0s-.2.1-.1.1.2.1.2,0h.2s.1.1,0,.1v.2c0,.1.1.1,0,.1l-.2.3H16c-.1.1,0,0-.1,0s-.1,0-.1.1-.2.2-.1.2.1,0,.1.2.1.1.1.2h0c0,.1-.1.1-.1.2h0c0-.2,0-.3-.1-.2h-.1c-.1,0-.2,0-.2-.1s-.1-.1,0-.1h.2v-.2h0c-.1-.1,0-.1-.1-.1s-.1,0-.1.1H14.3v.2h-.1c.1.1,0,.2-.1.2H14s.1-.2,0-.1-.2,0-.2,0H12.2c-.1-.1-.1-.2-.2-.2h-.1c-.1.1-.1,0-.2,0h-.5c-.1,0-.2,0-.2-.1h0c-.1-.1-.1-.1-.1-.2H9.7a.1.1,0,0,1-.1.1H9.4c0,.1-.1.1-.1.2h1.2l-.3.2s0-.1-.1,0H9.7c0,.1-.1.1,0,.1s.1.1.1.2h.1c.1.1.1.1.1.2h0c-.1.1-.2,0-.2.1v.2c0,.1.1,0,.1.1l-.2-.2H9.6c0-.1-.1-.1,0-.1v-.2s.1-.1,0-.1h0c-.1,0-.2-.1-.2,0H9.3a.3.3,0,0,1-.1-.2h-1v.2H8a4.3,4.3,0,0,1-.4.7c.2-.3-3.9,7.3-1.6,2.6L5,32.4a14.6,14.6,0,0,0-.9,1.5c-.2,1-.3,2.1-.4,3-.4,2.5-.6,5.1-1.1,7.6L2,47H2c.1.1.1,0,.1.1h.1a.3.3,0,0,0,.1.2H3a.1.1,0,0,1-.1.1H2.7c0,.1-.1.1,0,.1H2.6c.1.1.1.1.1.2h.2v.4h0l.2.2h.2a.1.1,0,0,0,.1.1h.2c0,.1,0,0,.1,0a.1.1,0,0,0,.1.1h.4a.1.1,0,0,1,.1.1h0c0,.1.1,0,.1.1h.4c.1,0,.1,0,.1.1H5c0,.1.1.2.2.3v.2h0a.1.1,0,0,1,.1.1h.1c.1.1.1.1.1.2s.1.2.2.2.1.1.1.2h0c0,.1.1.1.1.2h.6a.1.1,0,0,1,.1.1h.2c0,.1,0,.1-.1.1h0s-.1.1-.1,0H6.3c-.1.1,0,.1,0,.1h.1c0,.1.1.1.1.2h.1c.1,0,.1-.1.2,0h.3c.1,0,.1-.1.1,0h.1c.1.1.2.1.2.2h.1a.1.1,0,0,0,.1.1v.2h0c-.1,0,0,0-.1.1h0c0,.1,0,0,.1.1s0,.1.1.1h.3s.2.1.2.2h.3c.1.1.1,0,.1.1v.2h.1a.1.1,0,0,0-.1-.1H8.6a.1.1,0,0,1-.1-.1H8.3c.1-.1,0-.1.1-.1h0c0-.1,0-.1-.1-.1H8.2v-.2H8c0-.1,0-.1-.1-.1s0-.1-.1-.2H7.7l-.2-.2H7.4v-.2a.2.2,0,0,1-.2-.2h0c-.1,0-.2,0-.1-.1s.1-.2,0-.2A.3.3,0,0,0,7,52H6.9c-.1.1-.1,0-.1,0H6.6c0-.1,0-.1-.1-.2h0a.3.3,0,0,0-.1-.2h0v-.2c0-.2-.2-.3,0-.2s.3,0,.3.1h.1c0-.1,0-.1.1-.1h.3v.4h.1c.1.1.1.1.1.2h.1c0,.1,0,.2.1.2h0a.1.1,0,0,0,.1.1h0a.1.1,0,0,1,.1.1h.3c.1.1,0,.1.1.1h.2v.2a.1.1,0,0,1,.1.1s.1-.1.1,0H9s.1,0,0,.1H9a.1.1,0,0,1,.1.1h.5a.1.1,0,0,0,.1.1h0c-.1,0-.1,0,0,.1H10a.1.1,0,0,0,.1.1.1.1,0,0,0,.1.1c0,.1-.1,0,0,.1s.2.1.2.2h.1l.2.2h.1a.1.1,0,0,1,.1.1v.2H11v.2h0c-.1.1-.1.1-.1.2h0v.2h.2v.2h.8a.1.1,0,0,0,.1.1h.1c0,.1,0,.1.1.1s.3,0,.3,0h.7s-.1.1.1.1a.1.1,0,0,1,.1.1h.9c0,.1,0,.1.1.1h.1l.5.2h1a.1.1,0,0,0,.1-.1h.4a.1.1,0,0,1,.1.1h.5c.1.1.1,0,.1.1h.2v.2h.1l.5.2h1.7a.1.1,0,0,1,.1.1H20a.1.1,0,0,0,.1.1h.4a.1.1,0,0,0,.1.1h0v.2h0v.2h.3s.1.1.1,0h0c0-.1.1,0,.1,0v.2h.4a.1.1,0,0,1,.1.1h.1c.1.1,0,.1.1.1h1.5V63h.1c0,.1.1,0,.1,0h.2v.2H24a.1.1,0,0,0,.1.1h.1l.2.2h-.2l.3.3c.1-.1.2-.2.1-.3s.3-.1.3-.2h-.1a.1.1,0,0,1-.1-.1h-.1c-.1-.1-.1-.2-.2-.2a.1.1,0,0,0-.1-.1h-.4c-.1,0-.1-.2-.2,0s-.1-.1-.1.1,0,.1-.1.1h-.6s0,.1-.2.1h-.3c-.1-.1-.2-.1-.2-.2H22a19668661934075.5,19668661934075.5,0,0,1-.2-.4h0c-.2-.2-.2-.2-.2-.3s0-.1,0-.2v-.4a.4.4,0,0,1,.1-.3h0a.4.4,0,0,1,.1-.3c0-.1.1-.2.1-.3s0-.1-.1-.1v-.2h0a.1.1,0,0,1-.1-.1c-.1-.2-.4-.2-.4-.3s.1-.1-.1-.1-.1-.1-.2,0H19.4c-.1.1-.3.2-.2,0h0a.4.4,0,0,1,.1-.3h.1c0-.1.1-.1.1-.2a.5.5,0,0,0-.1-.3c0-.1-.2-.1,0-.2s.1,0,.1-.1h0a.3.3,0,0,0-.1-.2c.1,0,.1-.1.1,0a1,1,0,0,1,.1.3v-.4h0c.1-.1.1-.1,0-.2V57c.1,0,0,0,.2-.2l.2-.2c0-.1.2-.1,0-.2s0-.1-.1-.1h-.2c-.2,0-.2,0-.2.1h-.9c-.1,0-.2,0-.2.1s0-.1-.1.1-.1-.2-.1.2,0,.4-.1.5,0,0-.1.1.1.1,0,.1l-.2.2h-.3c-.1.1,0-.1-.1,0h-.6c-.1,0,0-.1-.2,0h-.4a.1.1,0,0,0-.1-.1c-.1,0,0-.1-.1-.1h-.5a.5.5,0,0,0-.1-.3s0-.2-.1-.2a.1.1,0,0,0-.1-.1l-.2-.3v-.2c-.1-.3-.2-.2-.2-.3a.3.3,0,0,1-.1-.2v-.4a.1.1,0,0,0,.1-.1v-.2a.3.3,0,0,1-.1-.2h.2c0-.1-.2-.4-.1-.4s.2-.2.2-.3h0v-.3a.4.4,0,0,0-.1-.3c-.1-.1-.1-.1-.1-.2v-.2H15a.3.3,0,0,0,.1-.2h.2a.1.1,0,0,1,.1-.1c.1,0,.1.1.2,0H16c0-.1.1,0,.1-.1h0c0-.1.1-.1.2-.1h.2l.4-.2h.7c.1-.1.2,0,.3,0s.1,0,.1.1h.1c.1,0,.1.1.2,0h.5a.1.1,0,0,0,.1.1v-.2c-.1,0-.1-.1-.1-.2h-.2s.1-.1,0-.1h-.3c.2-.1.2,0,.2,0H19c.1,0,0-.1.1,0h.4c0-.1,0-.1.1-.1h1.2a.1.1,0,0,0,.1.1h.5c.1-.1.1-.1.1,0s.1,0,.1.1.2,0,.2.1.1,0,.1.1.1.2.2.2h0v.2a.3.3,0,0,0-.1.2v.2c.1.2.1.2.2.2a.3.3,0,0,0,.1.2h0c.1,0,.1.1.1.2s-.1.2,0,.1v.2h.3v.3H23a.1.1,0,0,0,.1.1h.2v-.2h.1s.1-.2,0-.2v-.4h-.1v-.2h0c-.1-.1,0,.1-.1-.1s-.1-.3,0-.4.1-.1,0-.1a.3.3,0,0,0-.1-.2c0-.1-.1-.1-.2-.2v-.2c0-.1-.1-.1,0-.2s0-.1,0-.2-.1-.2,0-.3l.2-.2c0-.1,0-.1.1-.2l.4-.3.2-.2h.2c0-.1,0-.2.1-.2s0-.2.2-.1h.2s0,.1.1-.1.3-.2.3-.3H25s0,.1.1,0h.1c-.2-.1-.2-.1-.2-.2s0-.1.1-.1.1.1.2,0h.2v-.2h-.2s.1,0,0-.1v-.2c0-.1,0-.1-.1-.1s0,0-.1-.1H25c.1,0,.2.1.2,0v-.2h-.1c0-.2-.2-.3-.1-.3s0,.3.2-.1.1-.4.2-.4-.1.2-.1.4h.1c0,.1.1.1.1.2s-.2.1-.1.2.2.1.3,0-.1-.2,0-.2h.1c0-.1.1-.1.1-.2s-.1-.1-.1-.2-.1.1-.1-.1H26l.3-.3a.3.3,0,0,1,.1-.2c0-.1.1-.2,0-.2s-.1-.1-.1-.2v-.2h.2v.2h.3a.1.1,0,0,0,.1-.1h.3s-.1.1.1,0,.3,0,.3,0h.3a.1.1,0,0,0,.1-.1h.2c0-.1-.1-.1-.1-.2s0,0,0-.1-.2,0-.1-.1.1-.1.1-.3,0-.1.1-.2l.2-.2c.1-.1-.1-.1.1-.1s.1,0,.2,0,.2,0,.2-.1h.9c.1.1.2.1.2,0h0v-.2h.5c0-.1.2-.1.2-.1h.2a.1.1,0,0,0,.1-.1H31c0,.1,0,.1.1.1h.2c.1,0,.1,0,.1.1h-.1c-.1,0,.1-.2-.2-.1s-.2.1-.3.1h-.1c-.2.1-.2.2-.3.3s-.1.2-.2.2,0,.1,0,.2h.6c0-.1.2-.2.3-.3v-.2h.9l.4-.2h.2c0-.1.1-.2,0-.2h-.5c0,.1,0-.1-.1-.1h-.3a.1.1,0,0,1-.1-.1h-.2c-.1,0-.2-.2-.2-.2H31c-.1,0-.1-.2-.2-.2a.3.3,0,0,0-.1-.2s.3-.1.2-.2h0c-.1-.1-.4.1-.4,0s0,0,0-.1h.6v-.2c.1-.1-.1-.1-.1-.2l-.2-.2h-.5c0,.1-.3.1-.3.1h-.8l-.3.2h-.2l-.3.3c-.1.1,0-.1-.2.1l-.4.3c0,.1.1-.2.1-.2l.3-.2.2-.2h.4a.3.3,0,0,1,.1-.2h.7v-.2l.2-.2h1.2c.1,0,.2-.1.3,0h1.4l.3-.2h.2c.1-.1.4-.2.4-.3s.2-.2.2-.2.2-.1.2-.1h1.1v-.2ZM9.4,31.5H9a.3.3,0,0,1-.1.2H8.2l-.2.2H7.8a.2.2,0,0,1-.2.2c0,.1-.1.1-.2,0H7.2v.2c0,.1-.1.1-.2.2H6.1s-.2,0-.2-.1H5.2v0H6c.1-.1.1-.1.1-.2a.3.3,0,0,1,.1-.2c0-.1.1-.1.2,0s.1,0,.2-.1,0,0,0-.1H6.4v-.2H6.2c-.1-.1-.2-.1-.2-.2h.3a.1.1,0,0,0,.1.1h.4c.1,0,.1,0,.1.1h1v-.2h.1l.2-.2h.1a.1.1,0,0,0,.1-.1h.9Zm6,8.4-.2.2c-.1-.1-.1-.1-.1-.2v-.2c0-.1.1-.2.1-.3a.3.3,0,0,0-.1-.2H15c0,.1-.1.1-.1,0a.1.1,0,0,0,0-.2.1.1,0,0,0-.1-.1c-.1,0-.2.1-.2,0s-.2-.2-.2-.3-.2-.1-.2-.2a.3.3,0,0,1,.1-.2h-.2c-.1.1-.1,0-.1-.1s0-.1.1-.2a.3.3,0,0,1,.1-.2h.2c.1,0,.2-.4.2-.4a.3.3,0,0,0,.1.2c0,.1,0,0,.1,0s.1,0,0,.1h-.3c-.1.1.1.1.1.2h.2a.1.1,0,0,1,0,.2.1.1,0,0,0,.1.1c.1,0,.1.1.1.2v.2c.1,0,.1.1.1.2s.1.2.2.2v.4C15.5,39.7,15.4,39.8,15.4,39.9Zm10.4,3.6-.4.4c-.1.1-.2,0-.2.1s.1.1,0,.2h-.1c-.1,0-.1,0-.1.1s0,.1-.2.1h-.3c-.1,0-.2-.1-.2,0s-.3-.1-.3,0v.2l-.2.2h-.2a.3.3,0,0,1-.1.2H22.3c-.1.1-.2,0-.3,0h-.3c0-.1-.1,0,0-.1h.1a1.4,1.4,0,0,0,.2-.4h.1a.1.1,0,0,0,.1-.1.4.4,0,0,0-.1-.3s.1-.1,0-.1a.1.1,0,0,0-.1-.1c0-.1,0-.2-.1-.1s0,.1-.1.1l-.2.2a.2.2,0,0,1-.2-.2h.4v-.5c0-.1,0-.2-.1-.2s-.2-.2-.3-.2h-.3s0-.1-.1,0-.1.1-.1.2,0,.1-.1.2,0,.2-.1.1h-.3c0,.1-.1.1-.1.2v.2h0a.3.3,0,0,0-.1.2h.1c0,.1.1.1.1.2v.3l-.2.3c0,.1.1.1,0,.2h-.5c-.1-.1-.1-.4-.1-.4s-.1-.2-.1-.3.1-.1.1-.2V44h.1l.2-.2v-.3H20c-.1-.1,0-.2-.1-.2a.8.8,0,0,1-.2.4v.2c0-.1-.1-.1,0-.2l.2-.2v-.2a.3.3,0,0,1,.1-.2h.3c.1-.1.2-.1.2-.2H21c-.1-.1,0-.1-.1-.1s-.1-.1-.2,0-.1-.1-.3,0h-.2c0,.1-.1,0-.2,0h-.1c-.1.1-.2-.1-.3-.1h-.3l.3-.2s.2-.1,0-.1-.2-.1-.2,0h-.3l-.2.2-.2.2c-.1,0-.1-.1-.2,0h-.1c-.1.1-.1,0-.2,0s-.1,0-.1-.1.1-.1,0-.1h-.3c0,.1-.2.1-.2.1h-.1l.3-.2.3-.2.4-.2.4-.2c0-.1,0-.3.1-.3h.1c0,.1.1-.1.2-.1a.3.3,0,0,1,.1-.2c0-.1.2-.1.2-.1s.1.1.1.2h.7c0,.1.2.2.2.3h.1a.1.1,0,0,1,.1-.1H21c0,.1.1.1.1.2s-.1.2,0,.2.2.1.2.2h.8c0,.1.2.1.3.1h.7a.3.3,0,0,1,.1.2.1.1,0,0,1,.1.1h.2v.2a.1.1,0,0,1-.1.1c-.1,0-.1.1-.2,0H23c-.1,0-.2-.2-.2-.2h0c0,.1.1.1.1.2l-.2.2h-.1v.4c-.1.1-.1.1-.1.2h-.2v.2h0c-.1.1-.2,0-.2.1h.3c0-.1.1-.1.2-.1h.6a.1.1,0,0,0,.2,0h.6s.1-.1-.1-.1h0c.1,0,.2-.1.3,0h.5c0,.1,0,.1.1.1h.2A.1.1,0,0,0,25,44v-.2h.2c.1,0,.2,0,.2-.1Z"/><path class="b9677891-09bf-4e53-96a4-6a70ae5ab97f" d="M25.2,54.3h-.1c-.1.1.1.1.1.1s0,.2.1.2a.1.1,0,0,0,0-.2C25.3,54.3,25.3,54.3,25.2,54.3Z"/><path class="b9677891-09bf-4e53-96a4-6a70ae5ab97f" d="M25.7,54.8h-.1c-.1,0,0,0,0,.1h0c.1.1,0,.1,0,.1a.1.1,0,0,0,.1-.1Z"/><path class="b9677891-09bf-4e53-96a4-6a70ae5ab97f" d="M25.3,55.3h.1c.1-.1-.1-.1-.1-.1Z"/><path class="b9677891-09bf-4e53-96a4-6a70ae5ab97f" d="M25.7,55.4h.1c.1.1.1.2.1.1h-.2C25.7,55.3,25.6,55.3,25.7,55.4Z"/><path class="b9677891-09bf-4e53-96a4-6a70ae5ab97f" d="M26.5,56.5h.1c.1,0,.2.1.2,0h.1S26.6,56.4,26.5,56.5Z"/><path class="b9677891-09bf-4e53-96a4-6a70ae5ab97f" d="M27,55.9h0a.1.1,0,0,0-.1-.1c-.1.1-.1.1,0,.1Z"/><path class="b9677891-09bf-4e53-96a4-6a70ae5ab97f" d="M31.2,42.1v.2a.1.1,0,0,0,.1.1c.1.1.2.2.2.1a.3.3,0,0,1-.1-.2s-.1,0,0-.1Z"/><path class="b9677891-09bf-4e53-96a4-6a70ae5ab97f" d="M32,42.4c-.1.1-.5,0-.5,0s-.1.1-.1.2h.3c0-.1.1-.1.1,0h.3c0-.1.1-.1,0-.1S32.2,42.4,32,42.4Z"/><path class="b9677891-09bf-4e53-96a4-6a70ae5ab97f" d="M33.1,42.4c.1-.2,0-.1-.1-.2s-.1,0-.2,0-.2.4-.3.4h.3Q33,42.7,33.1,42.4Z"/><path class="b9677891-09bf-4e53-96a4-6a70ae5ab97f" d="M33.1,42.9h.2c.1-.1,0-.1,0-.2s-.1,0-.2,0-.1.2-.2.2h0C32.9,43,33,43,33.1,42.9Z"/><path class="b9677891-09bf-4e53-96a4-6a70ae5ab97f" d="M25.2,26.8l-.3.2c0,.1-.1.2-.1.4s-.1.2.1.2h.5a.5.5,0,0,0,.3-.3c.1,0,.1-.2.1-.3a.3.3,0,0,0-.1-.2Z"/><path class="b9677891-09bf-4e53-96a4-6a70ae5ab97f" d="M24,26.3c.1,0,.2-.2.2-.2h-.1l-.4.4H24Z"/><path class="b9677891-09bf-4e53-96a4-6a70ae5ab97f" d="M24.2,25.8c.1,0,.2,0,.2-.1s0-.1-.1-.2-.2.2-.2.3Z"/><path class="b9677891-09bf-4e53-96a4-6a70ae5ab97f" d="M25.1,26c-.1-.1-.2-.2-.3-.1s-.2.2-.1.2h.2C25,26.1,25.1,26.1,25.1,26Z"/><path class="b9677891-09bf-4e53-96a4-6a70ae5ab97f" d="M25.8,26.7c.1,0,.1-.1.1-.2s-.2,0-.2.1Z"/><path class="b9677891-09bf-4e53-96a4-6a70ae5ab97f" d="M26.2,27.3h.5c0-.1,0-.1-.1-.2h-.5c-.1.1-.1.1,0,.1S26.1,27.3,26.2,27.3Z"/><path class="b9677891-09bf-4e53-96a4-6a70ae5ab97f" d="M23.4,25.8h.3s.1-.1,0-.1h-.5c-.1-.1-.1,0,0,.1Z"/><path class="b9677891-09bf-4e53-96a4-6a70ae5ab97f" d="M20.1,26.8c-.1.1-.2.3-.1.4s0,.1.1.1h.2v-.3Z"/><path class="b9677891-09bf-4e53-96a4-6a70ae5ab97f" d="M20.3,25.4h-.2C20.3,25.4,20.4,25.5,20.3,25.4Z"/><path class="b9677891-09bf-4e53-96a4-6a70ae5ab97f" d="M22.3,31.1h-.4c0,.1-.1,0-.2.1s-.2.1-.2.2,0,.1.2.2.1.1.3,0,.2-.1.3-.3.3,0,.2-.1Z"/><path class="b9677891-09bf-4e53-96a4-6a70ae5ab97f" d="M23.4,32.1c.1.1.1.2.2.1s.1-.2.1-.3.1-.2,0-.3h-.3c-.1.1-.1.1-.1.3S23.3,32,23.4,32.1Z"/><path class="b9677891-09bf-4e53-96a4-6a70ae5ab97f" d="M24.3,30.9h.2c.1,0,.1.1.1,0s.1-.2,0-.2h-.4S24.1,30.9,24.3,30.9Z"/><path class="b9677891-09bf-4e53-96a4-6a70ae5ab97f" d="M24.9,30.6h-.2c0,.1.2.3.3.2s.2,0,.1-.1S24.9,30.5,24.9,30.6Z"/><path class="b9677891-09bf-4e53-96a4-6a70ae5ab97f" d="M48.8,24.9h0V13.1h-1a.1.1,0,0,1-.1.1h1.1V11.8h0v-.5H46.3a.1.1,0,0,1-.1.1H45a.1.1,0,0,0-.1.1h-.5s0,.1-.1,0-.1,0-.1.1h-.4c-.1,0,0,.1,0,.1h-.2a.1.1,0,0,0-.1-.1h-.3a.1.1,0,0,0,.1.1H41.4a.1.1,0,0,0-.1-.1H40.1c0-.1.1,0,.1,0h.6c.1,0,.1,0,.1.1h-.7V13h-.7l-.2-.2H36.8c0-.1,0,0-.1,0h-.2s-.1-.1,0-.1h.1v-.3H35.4c-.1,0-.1.2-.1.2H33.8c-.1.1,0,.1,0,.1H34v-.2c-.1-.1,0,0-.1,0h-.1c0-.1,0-.1-.1-.1h-.9c-.1,0,0,.2,0,.2h0a.1.1,0,0,1-.2,0H31.3a.1.1,0,0,1,.1-.1H29.7a.1.1,0,0,0-.1.1h-.1a.1.1,0,0,0-.1-.1h-.8a.1.1,0,0,0,.1.1h0c.1,0,0,.1,0,.1h.4a.1.1,0,0,1,.1-.1h.6c.1,0,.1,0,.1-.1a.1.1,0,0,0,.1-.1h.1a.1.1,0,0,0,.1.1H28.4c0-.1-.1,0-.1,0h.1a.1.1,0,0,0,.1-.1h.1a.1.1,0,0,1-.1.1h.2a.1.1,0,0,0,.1.1h0c.1-.1.1,0,.1-.1h.2s.1.1.1,0H30c-.1,0,0-.1,0-.1h0s.1.1.1,0h.2c0-.1.1,0,.1-.1h.5a.1.1,0,0,0,.1-.1h.1s.1.1.1,0h.3c.1,0,.1,0,.1-.1h.2c0-.1,0,0,.1,0h2.2a.1.1,0,0,1,.1.1h.6a.1.1,0,0,1,.1.1h0a.1.1,0,0,0,.1.1h.1a.1.1,0,0,1,.1.1h.1a.1.1,0,0,0-.1.1h0a.1.1,0,0,1,.1.1h.1a.1.1,0,0,1,.1.1h.2a.1.1,0,0,1,.1.1h-.1v.3h.1c-.1,0-.1,0-.1.1h.1a.1.1,0,0,0,.1-.1H36a.1.1,0,0,1,.1-.1h-.6a.1.1,0,0,1,.1.1h.9a.1.1,0,0,1,.1-.1h0a.1.1,0,0,1-.1-.1h-.1a.1.1,0,0,1,.1-.1h.3c.1-.1.1,0,.1,0h.8a.1.1,0,0,0,.1.1h-.6c0-.1,0-.1-.1-.1h-1a.1.1,0,0,1,.1.1h.2a.1.1,0,0,0,.1.1H38a.1.1,0,0,0,.1.1h.1v.3h-.1a.1.1,0,0,0-.1-.1h0c.1,0,0,.1,0,.1s.1,0,.1-.1h.1c0,.1-.1.1-.1,0s0,.1,0,.1H36.5c-.1.1,0,.1,0,.1h.8c.1-.1.1,0,.1,0h.1c.1-.1.1,0,.1,0h.1c0-.1,0,0-.1-.1s0-.1,0-.1h-.9a.1.1,0,0,1-.1.1h0a.1.1,0,0,0,.1.1h.5l.2-.2a.1.1,0,0,0,.1-.1H37c.1,0,.1,0,.1.1h.3a.1.1,0,0,1-.1.1h0v.3h.3c.1.1,0,.1,0,.1h0c0-.1,0-.1.1-.1h.2v-.2h0a.3.3,0,0,1,.1.2h.1v.2h-.5c.1,0,.1,0,.1.1a.1.1,0,0,1,.1-.1h.5c.1,0,0,.1,0,.1h.5c.1,0,0,.1,0,.1h.1a.1.1,0,0,1-.1.1h.4a.1.1,0,0,1,.1-.1h0a.1.1,0,0,1,.1.1h-.2v.3h.2c.1-.1.1-.1.1-.2h.1c.1,0,0,.1,0,.1h.2a.1.1,0,0,0,.1-.1h.1s.2,0,.2-.1h0c.1-.1.1,0,.1,0h0a.1.1,0,0,0,.1.1v0h-.1v.2h.4s-.1.1,0,.1,0,0,.1,0h0a.1.1,0,0,1-.1.1h.3c.1-.1.1,0,.1,0h.1v.2h.1c0-.1.1,0,.1-.1s.2.1.2,0,0,0,0-.1h.2v-.2h0a.1.1,0,0,1,.1-.1h.1v-.2h0c.1,0,0-.1,0-.1h0c-.1-.1-.1,0-.1-.1h.1s.1.1.1,0h.2c.1-.1,0-.1,0-.1a.1.1,0,0,0,.1-.1h.1c0-.1.1,0,.1-.1s.1.1.1.1a.1.1,0,0,0,.1-.1v-.2h-.4c-.1,0-.1,0,.1-.1s.1,0,.2,0,.1.1.1,0a.1.1,0,0,0,.1-.1h0v-.2h-.3v-.2a.1.1,0,0,0,.2,0h.2a.1.1,0,0,0,.1-.1h.1c-.1-.1-.1-.1,0-.2h.3c0,.1.1,0,.1,0H44v-.2h0c.1,0,.1.1.1,0s.1-.1,0-.1h.1c0-.1,0-.1.1-.1h0c0,.1,0,.1-.1.1h-.1V29h.4a.1.1,0,0,0,.1-.1h.1a.1.1,0,0,1,.1-.1h.2a.1.1,0,0,0,.1-.1h.1c0-.1,0-.1.1-.1h.5v-.2h.4c0-.1.1-.1.1-.2h0a.1.1,0,0,1,.1-.1c0-.1,0-.1.1-.1h.1a.1.1,0,0,0,.1-.1h.4a.1.1,0,0,1-.1-.1H47c-.1-.1,0-.1.1-.1s0,.2.1.2h.2a.3.3,0,0,1,.1.2h.6a.1.1,0,0,1,.1-.1h.2c0-.1.1-.1.1-.2s.2.1.3,0h0Z"/><path class="b9677891-09bf-4e53-96a4-6a70ae5ab97f" d="M37,25.4l-.2-.2h-.3c-.1,0-.3-.1-.5,0s-.1.2,0,.3h.2c0,.1-.3,0-.3.1l.2.2h.3c.1.2-.2.1-.1.2s.3,0,.3.1h.7c.2-.1.2-.2.1-.3S37,25.5,37,25.4Z"/><path class="b9677891-09bf-4e53-96a4-6a70ae5ab97f" d="M37.6,26.7h-.1c-.1,0-.1,0-.1-.1s-.2-.1-.4-.1,0,0,.1.2H37c-.2,0-.4,0-.3.1H37c.1.1,0,.2-.1.2s-.3,0-.3.1h-.1c0,.1-.2.2,0,.2s.3-.1.3-.2h.6s0,.2.2.1h.2a.1.1,0,0,0-.1-.1h-.2C37.6,26.8,37.6,26.8,37.6,26.7Z"/><path class="b9677891-09bf-4e53-96a4-6a70ae5ab97f" d="M35.5,22.8h0Z"/><path class="b9677891-09bf-4e53-96a4-6a70ae5ab97f" d="M35.8,23.4l.2-.3h0c-.1.1-.3,0-.3.1h-.2c0,.1-.1.1.1.1h.2C35.7,23.5,35.8,23.5,35.8,23.4Z"/><path class="b9677891-09bf-4e53-96a4-6a70ae5ab97f" d="M36.5,24.2a.1.1,0,0,0-.1.1h.2C36.6,24.2,36.6,24.1,36.5,24.2Z"/><path class="b9677891-09bf-4e53-96a4-6a70ae5ab97f" d="M37.2,24H37c-.1,0,0,0,.1.1h.1Z"/><path class="b9677891-09bf-4e53-96a4-6a70ae5ab97f" d="M37.5,24.5c.1.1.2.1.1,0a.1.1,0,0,0-.1-.1c-.1,0-.2,0-.2.1S37.3,24.5,37.5,24.5Z"/><path class="b9677891-09bf-4e53-96a4-6a70ae5ab97f" d="M27.7,81.8Z"/><path class="b9677891-09bf-4e53-96a4-6a70ae5ab97f" d="M22.9,69.8h.6c-.1.1,0,.1,0,.2h.3a.3.3,0,0,0,.1.2c0,.1,0,.1.1.1h.3V72c.1.1.1.1.1.2a.4.4,0,0,1,.1.3h.1v.2h.1v.2c0,.1.1.1.1.2h.1c0,.1-.1.1,0,.1s.2.1.2.2v.2h.1l.2.2h0c.1.1.1,0,.1.1h.2a.1.1,0,0,1,.1.1h.3l.4.3h.6a.1.1,0,0,1,.1.1h.2l.2.2c0,.2.1.2.2.2v.2h.2a.3.3,0,0,0-.1.2.4.4,0,0,1,.1.3v.2h0v.2h0c.1.1.1,0,.1.1V78c0,.1-.1.1-.1.2v1.1a2.5,2.5,0,0,1-.1.9c-.1.1-.1.1-.1.2s.1.1,0,.2V81c-.1.1-.1.1-.1.2h0c-.1.2-.1.1-.1.3s.1.1,0,.2h-.1v.4c.1.1.1,0,.1.2v.4a.8.8,0,0,1,0,.5v.5c0,.1.1.1.1.2s-.1.1-.1.2v.2h0c0,.1-.1.1-.1.3s-.1,0-.1.1.1.1,0,.2,0,.1-.1.3v.2c-.1.1,0,.2-.1.3v.2c-.1.1-.1,0-.1.1s-.1.1-.1.2-.2.2-.2.4v.4a.3.3,0,0,1,.1.2v.4h-.1a.3.3,0,0,1-.1.2c0,.1,0,.1-.1.2h0v.2h.7c-.1,0-.2,0-.2.1h.1a8.2,8.2,0,0,1,2.5,1.6l.3.3h.2s-.1.1.1,0l.3-.2c.1,0,.1.2.2,0v-.4h0V90c.2-.1.2-.2.2-.2v-.2h.2c.1.2,0,.3.1.3s.1.2.2-.1.1-.4,0-.4h-.2l-.2.2c-.1-.1-.2-.1-.2-.2h0v-.3h0c.1-.1-.1-.1,0-.2h.5c-.1.1,0,.2.1.2h.6c0-.1.3-.1.1-.2H32l.2-.2c0-.2.1-.2.1-.3s.1,0,0-.1-.2-.2-.1-.3h.9l.8-.2h.7v-.2h.2v-.4h-.1c-.1-.1-.1-.1-.1-.2h0v-.5s0-.2-.1-.1l-.4-.2h-.1s-.1,0,0-.1v-.2c0-.2.1-.2.1-.3h-.1c.1-.1,0-.1.1-.1s.1-.1,0-.2v-.2h0v.9c0,.1-.1.1,0,.2h.7c0,.1.1.1.2.1h.3c.1,0,.1-.1.1,0h.6l.2-.2h.1l.2-.3h.1a.2.2,0,0,1,.2-.2v-.4a.3.3,0,0,1,.1-.2h0c.1,0,.1.1.1,0l.3-.2a.1.1,0,0,1,.1-.1H38c0-.1.1-.2.1-.3v-.2s0,.1.1-.1,0-.2.1-.3,0-.2.2-.3l.3-.4H39v-.2a1,1,0,0,1,.1-.3.1.1,0,0,1,0-.2v-.2h-.1c0-.1-.1-.1,0-.2s.1,0,.1-.1-.2-.2-.1-.2h.4a.3.3,0,0,1,.1-.2l.4-.3h.9s-.3,0-.1-.1h.2l.2-.2h1.2a.3.3,0,0,1,.1-.2l.2-.2.2-.2v-.3c.1-.1.2-.1.2-.2l.2-.3v-.2c.1-.1.1.2.1-.2s.1-.3,0-.4h0c.1-.1,0-.2.1-.2h.2v-.2s.1-.2,0-.3v-.4c0-.1-.1-.2-.1-.3s.1-.3.1-.4v-.6c-.1-.1-.2-.1-.1-.2H44l.2-.2a.3.3,0,0,1,.1-.2.1.1,0,0,1,.1-.1h0v-.2h.2l.5-.5c.1-.1.1,0,.1-.1l.2-.2c0-.1.1-.1.1-.2a.1.1,0,0,1,.1-.1c0-.1.1-.2,0-.2s.1-.2,0-.2v-.4c.1-.1.1-.1.1-.2v-.2h0c-.2-.4-.2-.5-.3-.5h-.7a.2.2,0,0,1-.2-.2s0-.2-.1-.2H44l-.2-.2c-.1,0-.2,0-.2-.1h-.5c0-.1,0-.1-.1-.1h-.8l-.2-.2h-.3c-.2,0-.1-.1-.2,0H41c-.1.1.1.1-.1.1s-.1,0,0-.1v-.4h-.4c-.1,0-.2-.1-.2,0h-.5c0,.1,0-.1-.1,0h-.4c0,.1,0,0-.1.1v.2l-.2.2c-.1.1-.1,0-.1.1h-.2s0-.2-.1-.2H38a.1.1,0,0,0-.1-.1h1v-.4s.1-.1,0-.1h-.7c-.1-.1,0-.2-.2-.1l-.2.2h.1c0,.2,0,.3-.1.3s-.1-.1,0-.1h-.1v-.3h.1c0-.1-.1-.1.1-.1h.4c0-.1-.1-.1,0-.2s.1.1,0-.1v-.2h-.3a.1.1,0,0,1-.1-.1v-.2a.1.1,0,0,0,0-.2c-.1,0,0-.1-.1-.2s.1,0,0-.2h-.4l-.3-.2h-.8a.1.1,0,0,0-.2,0h-.3c0,.1,0,0-.1,0h-.3c-.1,0-.1-.1-.2,0h-.3l-.2-.2c0-.1-.3-.3-.3-.2a.1.1,0,0,0-.1-.1s-.2.1-.2,0v-.2a.1.1,0,0,0-.1-.1c0-.1,0-.1-.1-.2s-.1,0-.1-.1h-.6c-.1,0-.2-.1-.3,0s-.2.1-.2,0h.1v-.2a.3.3,0,0,1-.1-.2h-.3v-.2h-.2c0,.1-.1.1-.1,0h0s-.2.1-.2,0-.1-.1,0-.1-.2,0,0-.1h-.1s-.2.1-.2,0h-.2c-.1.1-.1-.1-.2.1l-.2.2h-.5c-.1,0,0-.1-.1-.1h-.6c-.2.1-.2.2-.3.1h-.3s0-.2-.1-.2h-.5c-.1-.1,0-.2-.1-.2h-.2a.3.3,0,0,0-.1.2c-.1.1.1.1-.1.2h-.5v.2c0,.1.2.1.2.2s.1,0,.1.2.1.2,0,.3-.2,0-.3,0-.2-.2-.2-.3-.1,0,.1-.2a1.1,1.1,0,0,0,0-.6.1.1,0,0,1-.1-.1h0c0-.1,0-.1.1-.1h.2l.2-.2h0a.1.1,0,0,0,.1.1h0c0-.1,0-.2-.1-.2h-.5c-.1.1-.2.1-.2.2h-.3c-.1.1,0,.1-.1.1h-.1c-.1,0-.1-.1-.2,0s.1-.2-.1,0-.1.1-.2.1-.3,0-.3.1-.1.1-.2.2,0-.1,0,.1,0,.3-.1.4,0,.1-.1.1-.1-.1-.2,0V63H25l-.3.2a.2.2,0,0,1-.2.2h.2c0,.1.1.1.1.2s0,.1,0,.1v.2h-.1c0,.1,0,.1.1.1v.4h0v.3h.1l-.2.2h-.5a.1.1,0,0,0-.1.1v.2h-.4c-.1,0-.1,0-.1.1h-.2s-.1,0,0,.1h0c0,.1.1,0,0,.1h-.1c-.1.1,0,.1,0,.1h0c0,.1,0,.2-.1.2a.3.3,0,0,1-.1.2h0c0,.1.1.1,0,.2h.2s.1.1.1,0h.1v.1h0l-.2.2h-.3a.1.1,0,0,0-.1.1c-.1,0-.1.2-.1.2h-.1C22.8,69.7,22.8,69.7,22.9,69.8Z"/><path class="b9677891-09bf-4e53-96a4-6a70ae5ab97f" d="M32.5,59.3h0Z"/><path class="b9677891-09bf-4e53-96a4-6a70ae5ab97f" d="M32.7,59.6c-.1-.1-.1,0-.1,0h.1Z"/><path class="b9677891-09bf-4e53-96a4-6a70ae5ab97f" d="M32.8,59.9h-.1c0,.2,0,.2.1.2s.1.1.1,0S32.9,60,32.8,59.9Z"/><path class="b9677891-09bf-4e53-96a4-6a70ae5ab97f" d="M32.8,60.3c-.1,0-.1.2,0,.2S33,60.3,32.8,60.3Z"/><path class="b9677891-09bf-4e53-96a4-6a70ae5ab97f" d="M32.8,60.8h-.1C32.6,60.7,32.7,60.8,32.8,60.8Z"/><path class="b9677891-09bf-4e53-96a4-6a70ae5ab97f" d="M32.5,61.4a.1.1,0,0,0,0-.2C32.4,61.2,32.4,61.4,32.5,61.4Z"/><path class="b9677891-09bf-4e53-96a4-6a70ae5ab97f" d="M18.1,67.5v-.2h-.2s-.2.1-.1.1h.1a.1.1,0,0,0-.1.1h.3c.1-.1.1-.1.1-.2Z"/><path class="b9677891-09bf-4e53-96a4-6a70ae5ab97f" d="M18.3,67.4c-.1,0,0,.1,0,0Z"/><path class="b9677891-09bf-4e53-96a4-6a70ae5ab97f" d="M18.4,67.5h-.1c0,.1,0,.2.1.2h.1c0-.1.1-.1,0-.2Z"/><path class="b9677891-09bf-4e53-96a4-6a70ae5ab97f" d="M18.8,67.6h.1A.1.1,0,0,0,18.8,67.6Z"/><path class="b9677891-09bf-4e53-96a4-6a70ae5ab97f" d="M30.9,58.5s-.1,0,0,.1a.1.1,0,0,0,.1-.1h-.1Z"/><path class="b9677891-09bf-4e53-96a4-6a70ae5ab97f" d="M31.7,58.2c0,.1,0,.2.1.2h-.1Z"/><path class="b9677891-09bf-4e53-96a4-6a70ae5ab97f" d="M31.9,58.6c-.1.1,0,.1,0,.1H32C32.1,58.7,32,58.6,31.9,58.6Z"/><path class="b9677891-09bf-4e53-96a4-6a70ae5ab97f" d="M32.5,62.3h.3c0-.2,0-.3-.1-.2s-.1.1-.2.2S32.4,62.3,32.5,62.3Z"/><path class="ea9afb16-6657-4fa7-a1be-2a43d7fbefad" d="M36.7,48.3V58.8h0V80.9a34.5,34.5,0,0,1,0-65.1V4.3a45.5,45.5,0,0,0,0,88.1,45,45,0,0,0,11.1,1.4V48.3Z"/><path class="ea9afb16-6657-4fa7-a1be-2a43d7fbefad" d="M6.3,30.7a52,52,0,0,0-2.6,8.5H14.9v-.8H15a.1.1,0,0,0,.1-.1c.1,0,.1,0,.1-.1h-.1c.1,0,.1-.1.1-.2v-.2h0c.1,0,.1,0,.1-.1h0c.2-.7.8-2,1-2.6A34.2,34.2,0,0,1,48,13.9V2.8A45.2,45.2,0,0,0,6.3,30.7Z"/><rect class="ea9afb16-6657-4fa7-a1be-2a43d7fbefad" x="43.2" y="3.2" width="5.7" height="10.75"/><rect class="ea9afb16-6657-4fa7-a1be-2a43d7fbefad" x="35.2" y="47.7" width="14.4" height="36.89"/><path class="bc81a161-a111-42af-b92f-1f0b7ad88e5f" d="M36.6,48.7V59.9h0V83.5a36.8,36.8,0,0,1,0-69.6V1.5a48.7,48.7,0,0,0,0,94.3,48.1,48.1,0,0,0,12,1.5V48.7Z"/><path class="b64884ff-4152-41a7-bdd8-b3b188737fb3" d="M3.9,29.8a43.4,43.4,0,0,0-2.8,9.1s10.6.1,12,0V38h.1l.3-.2a32.4,32.4,0,0,1,1.3-3.3,36.9,36.9,0,0,1,34-22.6V0A48.7,48.7,0,0,0,3.9,29.8Z"/><path class="b5f095bb-c9f0-4cc6-9e07-3b6d65f84e65" d="M63.3,10.2V59.9h0V83.5a36.8,36.8,0,0,0,0-69.6V1.5a48.7,48.7,0,0,1,0,94.3,47.5,47.5,0,0,1-12,1.5V4.6Z"/><path class="f8df2bf2-b975-44ab-b102-bd0d3c6a4423" d="M96,29.8A48.8,48.8,0,0,0,51.3,0V11.8A37,37,0,0,1,85.1,34.4a40.4,40.4,0,0,1,1.6,4.5H98.8A43.4,43.4,0,0,0,96,29.8Z"/><path class="ea9afb16-6657-4fa7-a1be-2a43d7fbefad" d="M100,40.4V40a17.7,17.7,0,0,0-.4-2c-.3-1.4-.8-2.8-1.1-4.2H84.2c-.4,0,0,.9,0,.9l.2.3c1.3,3.2,2.6,6.4,2.8,9.7a1.5,1.5,0,0,0,.1.7c.3,2.9,0,9.2-.3,9s-.4,1.9-.7,2.8a11.1,11.1,0,0,1-.4,1.3,15.1,15.1,0,0,1-1.7,4.4H98.7a30.9,30.9,0,0,1,1.3-4.6v-18Z"/><path class="abf02567-18c5-461e-8833-c2d8f528e1b2" d="M69.6,26.2V55.5h0V69.4c5.8-3,9.9-11.1,9.9-20.6s-4.1-17.5-9.9-20.5V21C78,24.2,84.3,35.5,84.3,48.8S78,73.5,69.6,76.6a13.6,13.6,0,0,1-4.8.9V22.8Z"/><path class="be30304e-723d-467c-9bf2-ae9146111d81" d="M82.7,37.7C79.5,25.8,71.3,18.9,64.8,16.6V27.1c5.7.1,11.2,5.1,13.5,13.3a26.8,26.8,0,0,1,.7,2.7h4.9A52.3,52.3,0,0,0,82.7,37.7Z"/><path class="bd4f6f60-ace3-4484-9963-e6e16f308d4c" d="M82.7,60C79.5,71.9,71.3,78.9,64.8,81.1V70.6c5.7,0,11.2-5,13.5-13.3a19.7,19.7,0,0,0,.7-2.6h4.9A45.4,45.4,0,0,1,82.7,60Z"/><path class="ea9afb16-6657-4fa7-a1be-2a43d7fbefad" d="M84.4,42.6l-.6-2.5H77.1c-.2,0,0,.5,0,.5v.2a22.4,22.4,0,0,1,1.3,5.7c0,.2.1.3.1.4.1,1.7,0,5.4-.2,5.3s-.2,1.2-.3,1.7-.1.5-.2.7a8.8,8.8,0,0,1-.8,2.6H84c.1-.9.4-1.9.5-2.7s.2-1.8.4-2.6.1-.1.1-.2A56.1,56.1,0,0,0,85,46C84.7,44.9,84.6,43.7,84.4,42.6Z"/></g></g></svg>